<svg preserveAspectRatio="xMidYMid meet" data-bbox="49.5 20 101 160" viewBox="49.5 20 101 160" height="200" width="200" xmlns="http://www.w3.org/2000/svg" data-type="color" role="presentation" aria-hidden="true" aria-label="">
    <g>
        <path d="M125.213 128.923s9.126 1.962 9.602 2.152c.476.19 1.88 26.349 1.737 27.396-.143 1.047-11.465 2.141-11.465 2.141l.126-31.689z" fill="#4D3932" data-color="1" data-darkreader-inline-fill="" style="--darkreader-inline-fill: #c0bab2;"></path>
        <path d="M106.246 167.174c.299 2.84 1.876 8.583 3.121 12.826h18.639c-.3-6.775-.935-21.575-.935-25.132 0-8.881-1.778-22.837-1.778-22.837s-14.603-2.918-15.491-2.791c-.889.127-9.82 1.692-10.031 3.922-.212 2.23 1.651 8.549 1.651 8.549s4.316 20.642 4.824 25.463z" fill="#EBCFA9" data-color="2" data-darkreader-inline-fill="" style="--darkreader-inline-fill: #e7c699;"></path>
        <path d="M67.518 118.974s2.984.761 8.19.888c5.206.127 7.682.19 7.682 0v-5.76l-12 1.633-4.317 1.589.445 1.65z" fill="#FFA18A" data-color="3" data-darkreader-inline-fill="" style="--darkreader-inline-fill: #ff947a;"></path>
        <path d="M85.112 180h18.742c.641-2.663 1.489-6.906 1.274-10.02-.337-4.876.785-12.584.99-15.142.205-2.558 1.45-23.222 1.45-23.222l-25.687.349s1.64 25.576 2.064 29.871c.31 3.121.808 12.876 1.167 18.164z" fill="#EBCFA9" data-color="2" data-darkreader-inline-fill="" style="--darkreader-inline-fill: #e7c699;"></path>
        <path d="M114.436 32.032c.051-1.139.294-2.432-.168-3.529-.484-1.149-1.698-1.559-2.887-1.484-.258-1.361-.747-2.7-1.843-3.61-.519-.431-1.132-.742-1.805-.837-.378-.053-.772.058-1.139.001-.793-.122-1.096-.503-1.615-1.006-.93-.901-2.487-1.937-3.855-1.436-.616.226-1.207.722-1.663 1.316a1.772 1.772 0 0 0-.257-.228c-.686-.483-1.582-.348-2.291.003-1.082.536-1.918 1.435-2.472 2.488-.473.02-.943.263-1.384.582-.87.631-1.794 1.402-2.101 2.478-.405 1.422.372 2.843-.34 4.225-.495.96-.867 1.687-.191 2.683.096.141.205.271.319.395a4.88 4.88 0 0 0 .433 2.497c.658 1.423 2.018 2.622 3.662 2.216a12.88 12.88 0 0 0-.374 1.29c-.055.238.313.34.367.101.2-.873.485-1.709.858-2.514.321.245.652.477 1.006.679 1.272.728 2.671 1.202 3.956 1.905a17.652 17.652 0 0 1 5.31 4.452c.54.678.39 1.439.779 2.155.246.454.646.91 1.05 1.223.161.125.336.262.539.307.256.058 1.018-.18 1.217-.085-.183.114 0 .411.213.314.946-.436 1.458-.686 1.695-1.744.282-1.258.781-2.443 1.075-3.696.622-2.654.584-5.312 1.629-7.874.201-.492.395-.989.427-1.525.034-.591-.176-1.147-.15-1.742z" fill="#4D3932" data-color="1" data-darkreader-inline-fill="" style="--darkreader-inline-fill: #c0bab2;"></path>
        <path d="M115.019 59.389c-4.391-.712-4.44-4.771-4.645-7.029-.199-2.202-.19-4.418-.166-6.627a2.83 2.83 0 0 0 .006-.813c-.029-.21-1.524.015-1.526.231l-.008.815c-.315 1.952-3.337 2.887-5.041 3.24-1.821.378-2.936.549-4.792.68a31.757 31.757 0 0 0-.25-1.919c-.04-.242-.414-.17-.374.072.103.622.183 1.247.248 1.874l-.09.006c-.244.017-.17.39.072.374l.058-.004c.071.79.11 1.582.11 2.377 0 2.08.474 5.04-.793 6.71-1.04 1.372-2.534 1.8-2.534 1.8s-1.399 2.41-.675 2.853a41.349 41.349 0 0 0 2.829 1.577c1.676.854 2.657 1.695 4.434 2.319 1.462.513 2.904-.239 4.265-.769 3.423-1.332 7.076-3.04 10.13-5.079.463-.309 1.246-1.882 1.246-1.882s-1.658-.669-2.504-.806z" fill="#FFA18A" data-color="3" data-darkreader-inline-fill="" style="--darkreader-inline-fill: #ff947a;"></path>
        <path d="M96.426 51.166c1.301 1.954 4.563 3.246 6.895 2.581 2.336-.666 4.74-3.116 6.098-5.269 2.416-3.832 2.399-8.505 2.331-12.867-.045-2.934-.75-4.798-2.938-7.015-1.952-1.978-4.985-2.381-7.737-1.978-2.079.304-4.188 1.053-5.555 2.558-2.125 2.34-2.601 5.549-2.643 8.591-.031 2.372.325 8.558 3.549 13.399z" fill="#FFA18A" data-color="3" data-darkreader-inline-fill="" style="--darkreader-inline-fill: #ff947a;"></path>
        <path d="M111.218 38.024s1.494-.941 1.862 1.612c.368 2.553-.4 4.314-1.665 4.435-1.264.121-1.633-1.862-1.633-1.862l1.436-4.185z" fill="#FFA18A" data-color="3" data-darkreader-inline-fill="" style="--darkreader-inline-fill: #ff947a;"></path>
        <path d="M96.573 39.026c-.985-.161-.739 2.188-.019 2.183a.592.592 0 0 0 .444-.241c.371-.471.323-1.82-.425-1.942z" opacity=".8"></path>
        <path d="M105.854 38.29c-.977-.204-.835 2.154-.116 2.18a.596.596 0 0 0 .455-.222c.391-.453.403-1.803-.339-1.958z" opacity=".8"></path>
        <path d="M101.167 45.784a.193.193 0 0 1-.095-.025c-.219-.126-1.316-.783-1.447-1.334-.125-.524.873-3.808 1.075-4.461a.19.19 0 0 1 .238-.126c.1.031.157.138.126.238-.577 1.874-1.135 3.98-1.068 4.261.069.29.782.813 1.267 1.092a.191.191 0 0 1 .07.26.192.192 0 0 1-.166.095z" opacity=".2"></path>
        <path d="M111.478 42.263a.19.19 0 0 1-.146-.313c.001-.002.24-.295.247-.784.008-.525-.275-1.201-.278-1.208a.191.191 0 0 1 .352-.148c.013.031.317.758.308 1.361-.01.632-.325 1.009-.338 1.025a.188.188 0 0 1-.145.067z" opacity=".2"></path>
        <path d="M98.75 46.985s1.298.202 2.774.083c1.476-.119 3.083-.583 3.083-.583s-.75 1.725-2.917 1.891c-2.166.167-2.94-1.391-2.94-1.391z" fill="#FFFFFF" data-color="4" data-darkreader-inline-fill="" style="--darkreader-inline-fill: #e8e6e3;"></path>
        <path d="M101.851 54.11c-1.858 0-3.021-.817-3.081-.861a.19.19 0 1 1 .222-.309c.017.012 1.738 1.214 4.287.622 2.567-.597 5.856-5.379 5.889-5.427a.19.19 0 1 1 .314.214c-.138.202-3.406 4.953-6.118 5.583a6.62 6.62 0 0 1-1.513.178z" opacity=".2"></path>
        <path d="M98.422 36.911a1.457 1.457 0 0 0-.415-.087 7.568 7.568 0 0 0-2.983.375c-.262.089-1.755.86-.898 1.125a.981.981 0 0 0 .382.014l3.13-.302c.365-.035.77-.09 1.004-.372a.498.498 0 0 0 .123-.396c-.033-.178-.172-.289-.343-.357z" fill="#4D3932" data-color="1" data-darkreader-inline-fill="" style="--darkreader-inline-fill: #c0bab2;"></path>
        <path d="M103.762 36.896a.502.502 0 0 0 .161.383c.261.258.669.274 1.036.273l3.144-.003a.967.967 0 0 0 .379-.051c.826-.347-.734-.97-1.004-1.032a7.571 7.571 0 0 0-3.006-.084c-.134.023-.28.064-.405.127-.163.084-.291.208-.305.387z" fill="#4D3932" data-color="1" data-darkreader-inline-fill="" style="--darkreader-inline-fill: #c0bab2;"></path>
        <path d="M112.478 35.306c-.25-.807-.366-1.543-.488-2.384a4.992 4.992 0 0 0-.452-1.463c-.335-.706-.574-1.428-.868-2.148-.458-1.12-1.413-1.607-2.47-2.08-1.26-.564-2.547-1.11-3.932-1.26-4.803-.521-10.847 2.149-11.289 7.47a1.79 1.79 0 0 1-.633-.099c-.231-.083-.331.285-.101.367.193.069.395.095.601.102-.275.319-.53.652-.746 1.001-.453.731-.239 1.771.018 2.545.175.527.531 1.341 1.223 1.2.755-.155.939-1.07 1.04-1.674.114-.683.127-1.186.888-1.45.46-.16 1.067.032 1.494-.259.521-.355.414-1.174.943-1.551.652-.465 1.537-.65 2.317-.743 1.037-.123 1.476-.027 1.997-.982a2.14 2.14 0 0 1 .405-.52c.928-.171 1.855-.387 2.833-.206a6.408 6.408 0 0 1 3.974 2.491c.069.647.147 1.292.251 1.934.097.602.21 1.202.338 1.798.078.364.101.937.328 1.243.704.95 1.823-1.047 2.191-1.71.092.025.2-.009.233-.127.148-.536.067-.971-.095-1.495z" fill="#4D3932" data-color="1" data-darkreader-inline-fill="" style="--darkreader-inline-fill: #c0bab2;"></path>
        <path d="M109.476 32.867a.19.19 0 0 1-.16-.293c.007-.011.69-1.093.78-2.126.046-.527.013-.77-.017-.984a2.121 2.121 0 0 1 .02-.819c.157-.811.914-1.273.946-1.293a.19.19 0 0 1 .196.326c-.006.004-.644.397-.768 1.039a1.752 1.752 0 0 0-.016.695c.031.223.068.5.019 1.069-.098 1.128-.808 2.251-.839 2.298a.191.191 0 0 1-.161.088z" opacity=".4"></path>
        <path d="M102.738 30.702a.19.19 0 0 1-.121-.337c.057-.047 1.422-1.155 3.497-1.469 2.128-.32 3.741 1.413 3.809 1.487a.19.19 0 1 1-.281.257c-.016-.017-1.552-1.657-3.471-1.368-1.968.297-3.299 1.375-3.312 1.386a.184.184 0 0 1-.121.044z" opacity=".4"></path>
        <path d="M92.977 33.366a.191.191 0 0 1-.182-.246c.015-.047.365-1.164 1.504-2.001a6.005 6.005 0 0 1 1.122-.673c.232-.109.277-.134.333-.269.161-.391.988-1.858 1.806-2.13.404-.135.723-.128 1.09-.122.326.007.695.013 1.225-.075.398-.066.677-.281 1.062-.579.61-.471 1.446-1.117 3.294-1.486 3.178-.634 5.38 1.976 5.4 2.003a.19.19 0 1 1-.308.224c-.018-.025-2.056-2.446-5.017-1.854-1.76.352-2.523.941-3.136 1.414-.397.306-.74.571-1.232.653-.564.094-.97.086-1.294.081-.349-.006-.622-.011-.963.102-.637.212-1.414 1.526-1.575 1.914-.114.276-.276.353-.523.468-.214.101-.538.253-1.058.635-1.038.763-1.362 1.795-1.365 1.805a.19.19 0 0 1-.183.136z" opacity=".4"></path>
        <path d="M90.905 33.364h-.007a.189.189 0 0 1-.183-.188c0-.021.25-2.316 1.355-3.227.667-.55 1.248-.713 1.673-.832.239-.067.428-.12.549-.217.159-.128.372-.463.577-.789.277-.437.563-.889.872-1.127.562-.434 1.444-.512 1.481-.515.099-.013.197.069.206.174a.19.19 0 0 1-.174.206c-.008.001-.809.072-1.28.437-.256.197-.536.64-.782 1.03-.243.383-.452.715-.661.882-.182.146-.415.211-.684.287-.414.116-.929.261-1.534.76-.965.795-1.215 2.923-1.217 2.944a.192.192 0 0 1-.191.175z" opacity=".4"></path>
        <path d="M104.944 22.772a.19.19 0 0 1-.117-.04c-.011-.009-1.135-.876-2.832-.848-1.693.03-2.411.416-2.418.419a.191.191 0 0 1-.259-.074.19.19 0 0 1 .072-.258c.032-.018.793-.436 2.598-.468 1.824-.031 3.023.889 3.073.929a.19.19 0 0 1 .032.267.185.185 0 0 1-.149.073z" opacity=".4"></path>
        <path d="M95.89 61.175s6.711 3.402 9.521 3.212c2.81-.19 5.337-2.569 7.037-2.855 1.7-.285 3.715-1.788 3.715-1.788s4.633 1.502 7.635 2.771 3.492 2.03 4.35 3.489c.858 1.459-.073 45.746.178 49.691.273 4.306-1.005 11.144-.834 15.456.11 2.779-1.274 2.422-3.418 2.733-2.005.291-4.015.53-6.023.797-3.336.443-6.78.961-10.151.787-5.514-.285-6.648-.381-12.009.761-3.447.734-7.296-.227-10.632-1.125-1.464-.394-3.114-.562-4.428-1.398-1.65-1.05-1.3-2.644-1.256-4.425.045-1.838.107-3.676.172-5.513.182-5.162-.463-16.302-.232-21.462.487-10.884 1.861-15.793 2.596-26.662.152-2.246-.253-6.143.792-8.212.918-1.808 12.987-6.257 12.987-6.257z" fill="#AB5855" data-color="5" data-darkreader-inline-fill="" style="--darkreader-inline-fill: #b36966;"></path>
        <path d="M85.17 65.772s-6.443 2.324-8.425 11.335c-.716 3.253-2.573 18.047-2.573 18.047l14.704 1.871-3.706-31.253z" fill="#AB5855" data-color="5" data-darkreader-inline-fill="" style="--darkreader-inline-fill: #b36966;"></path>
        <path d="M94.072 62.703s1-1.266.746-3.36c-.254-2.093.584-3.299 1.498-3.299s5.539.485 9.924-.444c4.386-.929 7.041-2.794 8.349-1.683 1.307 1.112.165 1.873 1.371 3.332 1.206 1.459.952 3.426.952 3.933 0 .507 2.032.698-2.667 2.474-4.698 1.776-16.126 2.855-16.634 2.284-.507-.57-3.539-3.237-3.539-3.237z" fill="#AB5855" data-color="5" data-darkreader-inline-fill="" style="--darkreader-inline-fill: #b36966;"></path>
        <path d="M115.94 77.944c-.072 2.329-.05 4.617.011 5.915.004.053.004.107.008.16.004.065.008.133.011.213.05 1.248.076 4.29.08 7.479.004.137.004.274 0 .415a430.39 430.39 0 0 1-.008 5.131c-.004.133-.004.263-.004.388-.015 1.915-.042 3.365-.08 3.757-.126 1.332-1.459.697-2.785.571-1.329-.126-3.246.826-3.71.464-.259-.202-.019-3.604.309-7.08.011-.118.023-.236.03-.35.103-1.039.21-2.074.309-3.022.015-.129.031-.255.042-.377.137-1.252.259-2.329.347-3.022.16-1.264.347-2.622.484-4.05.008-.126.019-.251.03-.381.141-1.621.194-3.327.034-5.07-.011-.126-.027-.251-.038-.377-.019-.175-.042-.35-.065-.525-.51-3.742.827-9.2.827-9.2l5.752-3.426s-.293 3.174-.994 6.219c-.32 1.408-.495 3.601-.575 5.797v.004c-.008.124-.011.246-.015.367z" fill="#FFFFFF" data-color="4" data-darkreader-inline-fill="" style="--darkreader-inline-fill: #e8e6e3;"></path>
        <path d="M116.043 97.257c-.004.133-.004.263-.004.388-1.219-.236-2.027-1.043-3.101-1.614-.99-.525-2.065-.651-3.166-.674.011-.118.023-.236.03-.35.83.015 1.657.084 2.457.335 1.169.365 2.004 1.298 3.135 1.728.214.08.432.141.649.187z" fill="#A18BBC" data-color="6" data-darkreader-inline-fill="" style="--darkreader-inline-fill: #a38dbd;"></path>
        <path d="M116.05 91.711c.004.137.004.274 0 .415-1.608-.167-3.211-.236-4.865-.145-.362.019-.72.023-1.074.004.015-.129.031-.255.042-.377.701.011 1.402-.042 2.122-.072 1.261-.053 2.522.031 3.775.175z" fill="#A18BBC" data-color="6" data-darkreader-inline-fill="" style="--darkreader-inline-fill: #a38dbd;"></path>
        <path d="M115.97 84.232a8.05 8.05 0 0 0-1.173.023c-.865.084-1.699.392-2.571.415a4.842 4.842 0 0 1-1.242-.133c.008-.126.019-.251.03-.381.19.046.385.08.583.103 1.459.171 2.876-.411 4.354-.4.004.053.004.107.008.16l.011.213z" fill="#A18BBC" data-color="6" data-darkreader-inline-fill="" style="--darkreader-inline-fill: #a38dbd;"></path>
        <path d="M115.94 77.944a.217.217 0 0 1-.072 0c-1.352-.24-2.541.038-3.752.651-.358.179-.709.354-1.067.491-.011-.126-.027-.251-.038-.377.804-.316 1.524-.826 2.369-1.054.846-.232 1.714-.232 2.575-.08v.004h.011c.218.038.16.335-.026.365z" fill="#A18BBC" data-color="6" data-darkreader-inline-fill="" style="--darkreader-inline-fill: #a38dbd;"></path>
        <path d="M117.524 62.388c-.11.289-1.55 1.146-3.718 1.968-.133.053-.274.103-.415.152a28.23 28.23 0 0 1-4.324 1.191c-.122.027-.244.049-.37.072-.888.152-1.802.27-2.731.324-.389.023-.777.038-1.158.049-.13.004-.255.008-.381.008a36.893 36.893 0 0 1-4.095-.148c-.13-.011-.255-.027-.377-.042-1.394-.148-2.632-.377-3.627-.662-.13-.034-.251-.072-.373-.11-1.051-.331-1.787-.731-2.091-1.153-.956-1.332.209-5.169.918-5.119.366.023 1.086.419 2.061.849.114.053.232.103.354.156.785.327 1.71.658 2.731.83.095.019.19.034.286.049.042.004.08.011.122.015 1.055.133 2.251.046 3.577-.148.126-.019.248-.038.373-.061 1.87-.297 3.977-.784 6.278-1.165l.19-.034.206-.034a39.351 39.351 0 0 0 1.749-.335c.126-.027.248-.053.366-.08 2.632-.582 3.878-1.111 4.274-.757.499.444.389 3.615.175 4.185z" fill="#FFFFFF" data-color="4" data-darkreader-inline-fill="" style="--darkreader-inline-fill: #e8e6e3;"></path>
        <path d="M99.975 63.983c.225.685.343 1.344.358 2.021-.13-.011-.255-.027-.377-.042a5.768 5.768 0 0 0-.24-1.553c-.164-.56-.434-1.096-.457-1.69-.031-.727.274-1.378.67-1.968.095.019.19.034.286.049.042.004.08.011.122.015-.244.339-.457.7-.579 1.096-.233.736-.012 1.376.217 2.072z" fill="#A18BBC" data-color="6" data-darkreader-inline-fill="" style="--darkreader-inline-fill: #a38dbd;"></path>
        <path d="M104.809 66.145c-.13.004-.255.008-.381.008-.031-.982-.16-1.964-.248-2.938-.076-.849-.126-1.709-.267-2.546.126-.019.248-.038.373-.061.122.742.171 1.5.24 2.253.1 1.084.252 2.188.283 3.284z" fill="#A18BBC" data-color="6" data-darkreader-inline-fill="" style="--darkreader-inline-fill: #a38dbd;"></path>
        <path d="M110.306 61.342c-.64 1.264-2 2.935-1.238 4.358-.122.027-.244.049-.37.072-.366-.83-.206-1.804.187-2.661.446-.967 1.108-1.804 1.455-2.824.095-.278.171-.56.225-.845l.19-.034.206-.034a7.004 7.004 0 0 1-.655 1.968z" fill="#A18BBC" data-color="6" data-darkreader-inline-fill="" style="--darkreader-inline-fill: #a38dbd;"></path>
        <path d="M113.806 64.356c-.133.053-.274.103-.415.152.065-1.058 0-2.086-.324-3.167-.229-.761-.324-1.526-.358-2.303.126-.027.248-.053.366-.08.011.403.038.807.103 1.207.103.666.358 1.29.499 1.949.164.743.179 1.492.129 2.242z" fill="#A18BBC" data-color="6" data-darkreader-inline-fill="" style="--darkreader-inline-fill: #a38dbd;"></path>
        <path d="M97.198 59.922c-.229.788-.335 1.61-.469 2.421-.168.986-.343 1.968-.4 2.957-.13-.034-.251-.072-.373-.11.061-.99.236-1.964.404-2.95.141-.83.255-1.671.484-2.474.114.053.232.103.354.156z" fill="#A18BBC" data-color="6" data-darkreader-inline-fill="" style="--darkreader-inline-fill: #a38dbd;"></path>
        <path d="M104.976 159.732a.191.191 0 0 1-.186-.148c-.017-.072-1.669-7.26-2.353-9.891a.19.19 0 0 1 .37-.096c.686 2.637 2.339 9.829 2.356 9.901a.191.191 0 0 1-.143.228.137.137 0 0 1-.044.006z" opacity=".4"></path>
        <path d="m81.714 87.557-.38-.026s.215-3.176.36-5.095c.141-1.875-1.271-11.13-1.285-11.223a.19.19 0 0 1 .16-.217.191.191 0 0 1 .217.159c.059.383 1.433 9.392 1.289 11.31-.146 1.918-.361 5.092-.361 5.092z" opacity=".4"></path>
        <path d="M85.263 65.3c-.093.472 11.35 31.344 20.341 45.237 8.991 13.893 23.331 26.12 24.157 25.502.826-.619 2.127-3.235 2.127-3.235s-14.197-10.236-22.562-23.313C100.58 95.82 88.774 64.196 88.291 63.935c-.483-.262-2.935.893-3.028 1.365z" fill="#4D3932" data-color="1" data-darkreader-inline-fill="" style="--darkreader-inline-fill: #c0bab2;"></path>
        <path d="M93.422 66.096s-.019 3.349-.11 7.011l-.011.434a174.339 174.339 0 0 1-.16 4.339l-.023.434c-.065 1.203-.145 2.246-.24 2.98a17.84 17.84 0 0 1-.107.727c-.027.152-.049.297-.076.43-.476 2.398-1.139 1.96-2.259 1.587-1.269-.423-3.95-.171-4.133-1.199-.091-.502.046-1.553.232-2.725l.057-.381c.183-1.115.392-2.299.48-3.197.008-.072.015-.145.027-.221.015-.118.034-.24.057-.365.236-1.393.808-3.007.979-4.959a12.374 12.374 0 0 0 .015-2.066c-.252-3.235 1.333-5.964 1.333-5.964l3.939 3.135z" fill="#FFFFFF" data-color="4" data-darkreader-inline-fill="" style="--darkreader-inline-fill: #e8e6e3;"></path>
        <path d="M92.771 82.021c-.027.152-.049.297-.076.43a4.822 4.822 0 0 1-.198-.186c-1.63-1.625-3.771-2.078-5.962-2.151l.057-.381c1.661.049 3.341.304 4.781 1.146.522.308.956.742 1.398 1.142z" fill="#A18BBC" data-color="6" data-darkreader-inline-fill="" style="--darkreader-inline-fill: #a38dbd;"></path>
        <path d="m93.141 77.88-.023.434c-1.074-.354-2.103-.845-3.215-1.081-1.051-.221-1.928-.282-2.804-.917.015-.118.034-.24.057-.365.358.251.724.461 1.105.59 1.097.373 2.267.415 3.371.822.507.186 1.006.357 1.509.517z" fill="#A18BBC" data-color="6" data-darkreader-inline-fill="" style="--darkreader-inline-fill: #a38dbd;"></path>
        <path d="m93.312 73.107-.011.434c-.183-.057-.366-.11-.549-.167a10.008 10.008 0 0 1-2.068-.925c-.846-.487-1.672-1.047-2.548-1.458a6.58 6.58 0 0 0 .03-.403c.933.426 1.813 1.016 2.712 1.534.781.452 1.611.692 2.434.985z" fill="#A18BBC" data-color="6" data-darkreader-inline-fill="" style="--darkreader-inline-fill: #a38dbd;"></path>
        <path d="M122.347 61.056c-.503-1.252-1.543-.506-2.507-.849-.343-.126-.533-.499-.949-.48-.389.015-.632.289-.827.594-.434.678-.83 1.283-1.299 1.854-.072.091-.148.179-.225.27-.248.282-.514.56-.819.834-1.345 1.222-2.903 2.143-4.426 3.113l-.061.038c-.122.08-.248.156-.373.236-1.303.811-2.708 1.568-4.164 2.055-.118.042-.236.08-.354.118-1.215.365-2.465.537-3.729.384-.126-.015-.255-.03-.381-.057a7.429 7.429 0 0 1-1.547-.438 9.81 9.81 0 0 1-.697-.312c-.114-.061-.228-.118-.339-.183a10.97 10.97 0 0 1-2.354-1.785 28.522 28.522 0 0 1-.301-.304c-.983-1.02-1.828-2.185-2.613-3.369l-.263-.4c-.076-.122-.152-.24-.229-.358-.202-.685-.613-1.443-1.36-1.054-.61.316-.968.891-1.615 1.176-1.246.544-3.238.845-3.101 2.573.034.377.229.773.476 1.149.069.107.141.209.217.308.206.289.423.56.59.792a31.655 31.655 0 0 0 2.4 2.893c.084.095.175.19.267.285.015.015.03.034.046.049a15.285 15.285 0 0 0 3.276 2.603c.114.069.229.133.343.198a13.838 13.838 0 0 0 5.15 1.667c.11.011.221.019.335.03.552.046 1.112.057 1.676.03 1.794-.08 3.543-.472 5.223-1.073.137-.046.274-.099.411-.152 1.642-.62 3.219-1.443 4.705-2.364a87.7 87.7 0 0 0 1.509-.955l.32-.213c1.95-1.294 3.95-2.79 5.535-4.468a14.675 14.675 0 0 0 1.101-1.279c.629-.815 1.384-2.086.953-3.156z" fill="#FFFFFF" data-color="4" data-darkreader-inline-fill="" style="--darkreader-inline-fill: #e8e6e3;"></path>
        <path d="M99.99 68.417c-.815.906-1.009 2.406-2.057 3.152-.67.476-1.562.529-2.187 1.07a1.724 1.724 0 0 0-.316.354c-.114-.065-.228-.129-.343-.198.411-.594 1.032-.837 1.707-1.104 1.387-.544 1.707-1.488 2.358-2.702.149-.278.309-.533.499-.754.11.064.225.122.339.182z" fill="#A18BBC" data-color="6" data-darkreader-inline-fill="" style="--darkreader-inline-fill: #a38dbd;"></path>
        <path d="M102.15 72.281c-.37.837-1.086 1.503-1.234 2.409-.114-.011-.225-.019-.335-.03.05-.419.187-.841.453-1.26.613-.971 1.07-1.793 1.173-2.965.038-.422.042-.845.027-1.267.126.027.255.042.381.057.034 1.042-.042 2.093-.465 3.056z" fill="#A18BBC" data-color="6" data-darkreader-inline-fill="" style="--darkreader-inline-fill: #a38dbd;"></path>
        <path d="M107.814 73.647a2.828 2.828 0 0 0-.034-.716c-.282-1.435-1.124-2.672-1.436-4.092.118-.038.236-.076.354-.118.27 1.34 1.048 2.508 1.387 3.837.08.308.13.62.141.936-.137.054-.274.108-.412.153z" fill="#A18BBC" data-color="6" data-darkreader-inline-fill="" style="--darkreader-inline-fill: #a38dbd;"></path>
        <path d="m114.759 69.963-.32.213c-.05-.084-.095-.171-.141-.255a7.651 7.651 0 0 0-3.436-3.254c.126-.08.251-.156.373-.236.808.407 1.543.94 2.175 1.61.442.468.823.986 1.143 1.545.069.118.134.244.206.377z" fill="#A18BBC" data-color="6" data-darkreader-inline-fill="" style="--darkreader-inline-fill: #a38dbd;"></path>
        <path d="M120.549 65.224a4.28 4.28 0 0 1-.255.27c-.617-.495-1.257-.955-1.977-1.336-.743-.396-1.215-1.115-1.775-1.713.076-.091.152-.179.225-.27.549.582 1.021 1.256 1.745 1.652.738.411 1.401.883 2.037 1.397z" fill="#A18BBC" data-color="6" data-darkreader-inline-fill="" style="--darkreader-inline-fill: #a38dbd;"></path>
        <path d="M97.297 66.45a6.777 6.777 0 0 1-1.417 1.134c-1.398.834-2.781 1.644-4.114 2.558-.091-.095-.183-.19-.267-.285a39.689 39.689 0 0 1 3.619-2.284 8.067 8.067 0 0 0 1.878-1.427c.099.102.198.201.301.304z" fill="#A18BBC" data-color="6" data-darkreader-inline-fill="" style="--darkreader-inline-fill: #a38dbd;"></path>
        <path d="M94.382 62.777a7.073 7.073 0 0 1-.465 1.051c-.411.723-1.04 1.18-1.825 1.431-1.009.327-2.107.312-3.105.693a4.182 4.182 0 0 0-.48.221 4.478 4.478 0 0 1-.217-.308c.111-.065.225-.122.343-.175.899-.4 1.889-.445 2.834-.658 1.352-.305 2.049-1.054 2.526-2.318l.126-.335c.088.131.176.264.263.398z" fill="#A18BBC" data-color="6" data-darkreader-inline-fill="" style="--darkreader-inline-fill: #a38dbd;"></path>
        <path d="M124.232 62.703s4.621 1.779 6.826 4.824c2.206 3.045 13.877 23.598 13.877 23.598s-4.595 7.137-8.455 8.278c-3.86 1.142-6.617 2.876-6.984 3.436-.368.56-5.238-.772-5.238-.772s-5.146-16.462-3.492-19.221c1.653-2.759 3.466-20.143 3.466-20.143z" fill="#AB5855" data-color="5" data-darkreader-inline-fill="" style="--darkreader-inline-fill: #b36966;"></path>
        <path d="M125.214 143.318a.192.192 0 0 1-.111-.035c-.017-.012-1.705-1.226-3.508-3.264-1.827-2.066-2.175-4.701-2.189-4.813a.19.19 0 0 1 .165-.212.194.194 0 0 1 .213.165c.003.026.349 2.632 2.097 4.608 1.774 2.006 3.427 3.195 3.444 3.206a.19.19 0 0 1 .044.265.192.192 0 0 1-.155.08z" opacity=".4"></path>
        <path d="m130.095 136.468-.081-.002c-1.039-.049-3.058-1.884-3.284-2.093a.19.19 0 0 1-.011-.269.19.19 0 0 1 .269-.011c.588.542 2.281 1.956 3.044 1.992.506.022 1.152-.25 1.606-.682.371-.354.576-.77.576-1.174 0-.759-2.646-2.845-4.315-3.982a.19.19 0 1 1 .215-.314c.458.313 4.481 3.089 4.481 4.296 0 .508-.246 1.023-.694 1.449-.509.487-1.209.79-1.806.79z" opacity=".4"></path>
        <path d="M135.569 110.151c-2.583-1-6.266 2.608-8.339 3.924-2.182 1.385-5.656 4.331-6.056 4.717-.2.21-2.9 3.093-3.97 4.162-1.07 1.069-2.513 3.441-2.001 4.092.512.651 2.234-1.162 3.444-2.325 1.21-1.162 2.527-2.371 2.527-2.371s-2.201 2.929-3.039 4.371c-.838 1.441-1.536 3.394-1.583 4.138-.047.744.698 1.162 1.257 1.069.558-.093 1.024-.976 1.024-.976s.444.989 1.475.651c.587-.193 4.435-5.394 4.435-5.394s-2.094 3.208-2.001 3.906c.093.697 1.354.62 2.47-1.193 1.117-1.813 1.91-2.96 1.91-2.96 1.607-1.974 3.037-3.007 4.094-5.326.056-.123.195-.487.18-.542 1.1-.762 2.544-1.944 3.632-2.723.783-.56 1.562-1.124 2.338-1.693.681-.499 1.547-.979 2.139-1.583 1.493-1.523-2.96-3.566-3.936-3.944z" fill="#FFA18A" data-color="3" data-darkreader-inline-fill="" style="--darkreader-inline-fill: #ff947a;"></path>
        <path d="M118.849 130.615a.189.189 0 0 1-.168-.279c.061-.115 1.51-2.818 2.428-4.052a98.091 98.091 0 0 0 1.995-2.816.19.19 0 0 1 .314.214c-.011.016-1.092 1.603-2.004 2.829-.901 1.212-2.382 3.977-2.397 4.004-.035.063-.1.1-.168.1z" opacity=".2"></path>
        <path d="M124.743 126.4a.19.19 0 0 1-.153-.303l.677-.924a.19.19 0 0 1 .307.225l-.677.924a.19.19 0 0 1-.154.078z" opacity=".2"></path>
        <path d="M147.047 111.869c-1.745 2.189-4.411 5.329-5.882 5.709-1.463.381-9.043-7.083-9.097-7.137-.133-.129.96-2.12 1.021-2.39.088-.369.278-.845-.122-1.111-.198-.129-.438-.16-.659-.24-.309-.118-.994-.735-1.665-1.45-.792-.853-1.558-1.846-1.611-2.272l-.754-6.334 16.658-5.519s2.514 5.667 4.217 9.645c.354.834.674 1.591.929 2.208 1.472 3.562-1.286 6.702-3.035 8.891z" fill="#AB5855" data-color="5" data-darkreader-inline-fill="" style="--darkreader-inline-fill: #b36966;"></path>
        <path d="M142.988 99.563c-.054.005-1.344.15-4.079 1.803-.941.568-1.88 1.351-2.703 2.109.983-1.932 2.223-4.307 2.454-4.573a.19.19 0 0 0-.097-.354c-.144 0-.308.001-3.181 5.713-.125.124-.265.258-.377.374a33.544 33.544 0 0 0-1.732 1.913.19.19 0 0 0 .148.311c.055 0 .11-.024.147-.07.007-.008.7-.852 1.71-1.888.968-.993 2.418-2.355 3.828-3.208 2.645-1.598 3.908-1.748 3.921-1.75a.19.19 0 0 0-.039-.38z" opacity=".4"></path>
        <path d="M133.489 82.663a.19.19 0 0 0-.247.109c-4.413 11.409-4.989 13-5.065 13.25.002-.829.008-1.644.019-2.356.025-1.648-.117-2.888-.267-4.201-.126-1.102-.257-2.242-.286-3.672-.061-3.028 4.192-12.08 4.235-12.171a.19.19 0 1 0-.344-.162c-.177.375-4.334 9.224-4.271 12.341.029 1.448.161 2.597.288 3.708.149 1.3.29 2.528.265 4.152-.046 3.012 0 7.842 0 7.89a.19.19 0 0 0 .19.188h.002a.19.19 0 0 0 .189-.192c0-.036-.026-2.8-.019-5.446.015.09.085.163.179.163a.19.19 0 0 0 .187-.157c.119-.416 3.684-9.657 5.054-13.198a.192.192 0 0 0-.109-.246z" opacity=".4"></path>
        <path d="M49.647 90.681c-.679.25 1.084 4.397 3.433 9.774 2.952 6.756 6.345 14.346 6.628 14.205.508-.254 34.703 0 34.703 0l-5.535-15.042s-3.264-8.493-4.289-8.937c-1.405-.609-7.609-.451-7.609-.451H58.947s-8.59.189-9.3.451z" fill="#F5DED3" data-color="7" data-darkreader-inline-fill="" style="--darkreader-inline-fill: #efc9b7;"></path>
        <path d="M59.708 114.66s.032 1.539 4.127 1.658 38.83.258 40.003 0c1.19-.262 1.429-1.656-1.025-1.909-1.688-.174-17.407-.147-17.693-.147s-22.523-2.202-22.523-2.202l-2.889 2.6z" fill="#F5DED3" data-color="7" data-darkreader-inline-fill="" style="--darkreader-inline-fill: #efc9b7;"></path>
        <path fill="#FFFFFF" d="M71.955 100.525c0 1.103-1.592 1.998-3.555 1.998s-3.555-.895-3.555-1.998 1.592-1.998 3.555-1.998 3.555.895 3.555 1.998z" data-color="4" data-darkreader-inline-fill="" style="--darkreader-inline-fill: #e8e6e3;"></path>
        <path d="M74.802 117.006c.03-.917.01-2.979-1.024-3.489-.539-.266-.975.231-1.244 1.004-.108-.691-.356-1.332-.85-1.691-.665-.483-1.068-.135-1.295.38-.268-.615-.758-1.137-1.534-.837-.661.256-.803 2.488-.798 2.698-.234-.33-.751-.373-1.094-.197-.405.209-.525.808-.604 1.213-.108.554-.079 1.124.01 1.678.077.479.237 1.125.783 1.258.64.156 1.132-.441 1.466-.921.046.05.085.106.136.151.525.465 1.207.498 1.597.075.037.077.066.159.109.232.553.932 1.865.757 2.358-.097.009.005.012.013.023.017l.062.022c.347.27 1.102.254 1.444.026.493-.329.438-1.001.455-1.522z" fill="#FFA18A" data-color="3" data-darkreader-inline-fill="" style="--darkreader-inline-fill: #ff947a;"></path>
        <path d="M68.373 118.011a.19.19 0 0 1-.189-.169l-.279-2.484a.19.19 0 0 1 .168-.21.195.195 0 0 1 .211.168l.279 2.484a.19.19 0 0 1-.168.21l-.022.001z" opacity=".2"></path>
        <path d="M70.298 118.098a.19.19 0 0 1-.19-.189l-.033-4.218a.19.19 0 0 1 .189-.192h.001a.19.19 0 0 1 .19.189l.033 4.218a.19.19 0 0 1-.189.192h-.001z" opacity=".2"></path>
        <path d="M72.636 118.281a.19.19 0 0 1-.19-.182l-.126-2.926a.19.19 0 0 1 .182-.198c.103-.01.194.077.199.182l.126 2.926a.19.19 0 0 1-.182.198h-.009z" opacity=".2"></path>
        <path d="M75.231 115.001a.19.19 0 0 1-.19-.188.191.191 0 0 1 .188-.193l18.643-.259a.195.195 0 0 1 .193.188.191.191 0 0 1-.188.193l-18.643.259h-.003z" fill="#FFFFFF" data-color="4" data-darkreader-inline-fill="" style="--darkreader-inline-fill: #e8e6e3;"></path>
        <path d="M66.289 115.001h-6.061a.19.19 0 1 1 0-.38h6.061a.19.19 0 1 1 0 .38z" fill="#FFFFFF" data-color="4" data-darkreader-inline-fill="" style="--darkreader-inline-fill: #e8e6e3;"></path>
        <path d="M92.771 114.292a.191.191 0 0 1-.177-.12l-8.849-22.279a.19.19 0 1 1 .354-.14l8.849 22.279a.19.19 0 0 1-.177.26z" fill="#FFFFFF" data-color="4" data-darkreader-inline-fill="" style="--darkreader-inline-fill: #e8e6e3;"></path>
        <path d="M87.808 64.024a.19.19 0 0 1-.184-.237c.007-.029.2-.721 1.391-1.162.519-.193.974-.461 1.413-.72.498-.294.969-.571 1.516-.742.712-.223 1.218.003 1.502.209.101-.433.288-1.193.448-1.606.239-.616.599-.936.614-.95a.191.191 0 0 1 .252.286c-.003.003-.308.278-.511.802-.216.559-.501 1.858-.504 1.871l-.087.401-.25-.326c-.019-.024-.481-.595-1.35-.324-.506.158-.958.425-1.436.707-.454.268-.924.545-1.475.749-.987.366-1.154.899-1.155.904a.192.192 0 0 1-.184.138z" fill="#FFFFFF" data-color="4" data-darkreader-inline-fill="" style="--darkreader-inline-fill: #e8e6e3;"></path>
        <path d="m117.705 60.025-.017-.001a.19.19 0 0 1-.173-.206c.038-.433.032-1.215-.148-1.474-.183-.262-.512-.106-.549-.088a.19.19 0 0 1-.175-.338c.226-.119.734-.227 1.037.208.317.456.227 1.596.215 1.725a.192.192 0 0 1-.19.174z" fill="#FFFFFF" data-color="4" data-darkreader-inline-fill="" style="--darkreader-inline-fill: #e8e6e3;"></path>
        <path d="M122.474 61.924a.191.191 0 0 1-.185-.235c.001-.004.106-.453-.102-.707-.109-.132-.296-.195-.56-.185-.836.031-1.522-.666-1.983-1.127-.251-.25-.971.108-1.281.321a.191.191 0 0 1-.265-.049.189.189 0 0 1 .049-.264c.124-.085 1.225-.818 1.766-.277.415.414 1.048 1.035 1.699 1.015.382-.017.683.095.87.326.328.402.182 1.011.176 1.037a.189.189 0 0 1-.184.145z" fill="#FFFFFF" data-color="4" data-darkreader-inline-fill="" style="--darkreader-inline-fill: #e8e6e3;"></path>
        <path d="M87.808 64.024a.19.19 0 0 1-.184-.237c.007-.029.2-.721 1.391-1.162.519-.193.974-.461 1.413-.72.498-.294.969-.571 1.516-.742.712-.223 1.218.003 1.502.209.101-.433.288-1.193.448-1.606.239-.616.599-.936.614-.95a.191.191 0 0 1 .252.286c-.003.003-.308.278-.511.802-.216.559-.501 1.858-.504 1.871l-.087.401-.25-.326c-.019-.024-.481-.595-1.35-.324-.506.158-.958.425-1.436.707-.454.268-.924.545-1.475.749-.987.366-1.154.899-1.155.904a.192.192 0 0 1-.184.138z" fill="#A18BBC" data-color="6" data-darkreader-inline-fill="" style="--darkreader-inline-fill: #a38dbd;"></path>
        <path d="m117.705 60.025-.017-.001a.19.19 0 0 1-.173-.206c.038-.433.032-1.215-.148-1.474-.183-.262-.512-.106-.549-.088a.19.19 0 0 1-.175-.338c.226-.119.734-.227 1.037.208.317.456.227 1.596.215 1.725a.192.192 0 0 1-.19.174z" fill="#A18BBC" data-color="6" data-darkreader-inline-fill="" style="--darkreader-inline-fill: #a38dbd;"></path>
        <path d="M122.474 61.924a.191.191 0 0 1-.185-.235c.001-.004.106-.453-.102-.707-.109-.132-.296-.195-.56-.185-.836.031-1.522-.666-1.983-1.127-.251-.25-.971.108-1.281.321a.191.191 0 0 1-.265-.049.189.189 0 0 1 .049-.264c.124-.085 1.225-.818 1.766-.277.415.414 1.048 1.035 1.699 1.015.382-.017.683.095.87.326.328.402.182 1.011.176 1.037a.189.189 0 0 1-.184.145z" fill="#A18BBC" data-color="6" data-darkreader-inline-fill="" style="--darkreader-inline-fill: #a38dbd;"></path>
    </g>
</svg>