<svg preserveAspectRatio="xMidYMid meet" data-bbox="60.501 20 78.999 160" viewBox="60.501 20 78.999 160" height="200" width="200" xmlns="http://www.w3.org/2000/svg" data-type="color" role="presentation" aria-hidden="true" aria-label="">
    <g>
        <path d="M82.144 131.509s-4.79-.704-9.621-1.92c-.152-.038-.303-.08-.455-.117a58.742 58.742 0 0 1-3.353-.968c-.152-.055-.303-.105-.451-.155-1.495-.507-2.831-1.069-3.825-1.677a6.147 6.147 0 0 1-.438-.285c-.527-.369-.923-.75-1.154-1.149-2.169-3.756-3.597-38.009-.775-42.113.4-.583.851-1.14 1.331-1.669.164-.184.333-.361.501-.537a26.805 26.805 0 0 1 3.13-2.721l.447-.327c1.55-1.115 2.734-1.765 2.734-1.765l11.812 2.436.117 52.967z" fill="#A5B1C7" data-color="1" data-darkreader-inline-fill="" style="--darkreader-inline-fill: #bab4ab;"></path>
        <path d="M82.144 131.509s-4.79-.704-9.621-1.92c-.152-.038-.303-.08-.455-.117a58.742 58.742 0 0 1-3.353-.968c-.152-.055-.303-.105-.451-.155-1.495-.507-2.831-1.069-3.825-1.677a6.147 6.147 0 0 1-.438-.285c-.527-.369-.923-.75-1.154-1.149-2.169-3.756-3.597-38.009-.775-42.113.4-.583.851-1.14 1.331-1.669.164-.184.333-.361.501-.537a26.805 26.805 0 0 1 3.13-2.721l.447-.327c1.55-1.115 2.734-1.765 2.734-1.765l11.812 2.436.117 52.967z" opacity=".2"></path>
        <path d="M85.079 108.622c-.19-3.46-1.124-6.933-2.011-10.324a97.578 97.578 0 0 1-.938-3.787 19.56 19.56 0 0 1-.164-.843c-.484-2.685-.411-5.358-.246-8.056.048-.766.104-1.532.156-2.302.043-.667.091-1.33.134-1.997l.558-8.4c.022-.353.048-.706.069-1.059.069-1.041.19-2.109.272-3.172.069-.891.108-1.777.065-2.651-.052-1.067-.342-2.152-1.388-2.621a.218.218 0 0 0-.138-.013c-.035-.009-.692-1.407-.735-1.407-.631.151-1.258.288-1.877.43-3.827.865-8.613 1.833-9.988 6.107-.03.086-.056.172-.082.262-.721 2.51-1.667 4.9-1.916 7.521-.214 2.254-.14 4.535-.499 6.775-.37 2.309-1.118 4.541-1.447 6.858-.365 2.569-.078 5.148-.545 7.722-.511 2.818-1.448 5.543-1.508 8.431-.035 1.657.389 2.969 1.12 4.019 1.129 1.627 2.997 2.608 5.059 3.253 1.868.585 4.734.891 6.511 1.14a47.45 47.45 0 0 0 2.227.267c2.149.211 4.307.288 6.465.245a.223.223 0 0 0 .208-.159c.19-.646.333-1.291.441-1.941.232-1.423.279-2.861.197-4.298z" fill="#3B3348" data-color="2" data-darkreader-inline-fill="" style="--darkreader-inline-fill: #c1bcb4;"></path>
        <path d="M122.422 145.063c-.347-9.885-.352-16.736-2.054-26.496.241-.066.425-.323.239-.587a1.993 1.993 0 0 0-.427-.444c-.046-.247-.088-.495-.135-.742-.101-.529-.88-.305-.778.223l.027.148c-.823-.142-1.778.085-2.629.124-2.661.121-5.323-.034-7.976-.256-5.167-.432-10.358-1.158-15.547-.667-2.238.212-4.422.717-6.623 1.168-1.492.306-2.997.584-4.52.647-1.367.057-2.692-.42-4.022-.392-.96.02-1.399.449-1.622 1.398-.415 1.767-.412 2.137-.464 4.068-1.474 4.155-1.79 10.349-1.764 14.807.047 7.878.35 15.763.535 23.639.097 4.125 1.417 16.305 1.691 18.151l.024.148h20.645c-.002-1.362.14-2.717.417-4.053.358-1.726 1.919-15.358 1.919-15.358s.808 18.95.753 19.411h20.701s1.981-24.37 1.61-34.937z" fill="#A5B1C7" data-color="1" data-darkreader-inline-fill="" style="--darkreader-inline-fill: #bab4ab;"></path>
        <path d="m99.26 159.839-.021-.001a.209.209 0 0 1-.188-.23c.051-.506 1.253-12.41 1.805-13.784.549-1.367 4.879-7.834 5.063-8.109a.21.21 0 0 1 .292-.058.209.209 0 0 1 .058.291c-.045.067-4.489 6.705-5.023 8.032-.424 1.056-1.347 9.404-1.777 13.671a.21.21 0 0 1-.209.188z" opacity=".5"></path>
        <path d="M96.235 123.687c-10.521 0-19.06-.766-19.16-.775a.21.21 0 1 1 .039-.418c.116.011 11.791 1.057 24.662.698 11.984-.334 18.04-1.659 18.1-1.672a.21.21 0 1 1 .092.409c-.06.014-6.15 1.346-18.181 1.682-1.886.053-3.749.076-5.552.076z" opacity=".5"></path>
        <path d="m80.886 123.193-.021-.001a.208.208 0 0 1-.188-.229l.211-2.096a.212.212 0 0 1 .23-.188c.116.011.2.114.188.229l-.211 2.096a.209.209 0 0 1-.209.189z" opacity=".5"></path>
        <path d="m81.974 123.193-.017-.001a.21.21 0 0 1-.193-.226l.168-2.096a.212.212 0 0 1 .227-.192.21.21 0 0 1 .193.226L82.184 123a.21.21 0 0 1-.21.193z" opacity=".5"></path>
        <path d="M119.044 121.934a.209.209 0 0 1-.209-.193l-.175-2.201a.211.211 0 0 1 .193-.226c.108-.005.217.077.226.192l.175 2.201a.211.211 0 0 1-.193.226l-.017.001z" opacity=".5"></path>
        <path d="M118.096 122.249a.21.21 0 0 1-.209-.191l-.21-2.306a.211.211 0 0 1 .191-.228.215.215 0 0 1 .229.19l.21 2.306a.211.211 0 0 1-.191.228l-.02.001z" opacity=".5"></path>
        <path d="M101.729 122.969c-.566 0-1.027-.558-1.027-1.245 0-.686.461-1.245 1.027-1.245.566 0 1.027.558 1.027 1.245s-.461 1.245-1.027 1.245zm0-2.07c-.334 0-.606.37-.606.825 0 .455.271.825.606.825.334 0 .606-.37.606-.825 0-.454-.272-.825-.606-.825z" opacity=".5"></path>
        <path d="M100.913 146.608a.209.209 0 0 1-.15-.357l3.844-3.851a.211.211 0 0 1 .298-.001.209.209 0 0 1 .001.296l-3.844 3.851a.206.206 0 0 1-.149.062z" opacity=".5"></path>
        <path d="M134.522 60.498s2.911 21.632-.705 24.523c-3.616 2.891-7.519 1.667-7.03-6.025a7696.12 7696.12 0 0 0 1.104-17.817l6.631-.681z" fill="#FFA18A" data-color="3" data-darkreader-inline-fill="" style="--darkreader-inline-fill: #ff947a;"></path>
        <path d="M107.68 25.495c-1.606-2.846-4.519-4.611-7.722-4.706-3.389-1.124-7.311-1.052-10.576.247-2.802 1.115-5.421 3.263-6.963 5.951a8.558 8.558 0 0 0-.951 2.574 8.427 8.427 0 0 0-.517 2.021c-.149 1.208-.092 2.444-.478 3.613-.341 1.033-.922 1.963-1.538 2.852-1.06 1.532-2.331 3.019-2.852 4.842-.712 2.49.74 5.071-.811 7.38-1.133 1.686-2.861 3.113-3.04 5.284-.079.953.848 1.361.734 2.27-.098.78-.807 1.264-.453 2.118.822 1.982 3.831.822 5.355 1.215 1.001.258 1.922.762 2.959.887 1.091.132 2.15-.149 3.197-.416.784-.2 1.566-.401 2.378-.433.722-.028 1.45.115 2.168-.02.477-.09.872-.292 1.295-.521.183-.099.357-.214.546-.302.451-.211.678-.115 1.125-.27.799-.277.515-1.09.42-1.757-.039-.277-.083-.554-.126-.83.373.069.745.143 1.115.228.932.216 1.903.567 2.875.435.955-.13 1.75-.731 2.384-1.483a7.872 7.872 0 0 0 1.666-.011c.849-.086 2.207 2.665 2.781 2.192.986-.812 1.948-1.467 1.632-4.821-.116-1.229 3.265-3.302 4.577-11.836.298-1.939.516-3.839.583-5.799.125-3.691.107-7.592-1.763-10.904z" fill="#875549" data-color="4" data-darkreader-inline-fill="" style="--darkreader-inline-fill: #ba8b7f;"></path>
        <path d="M118.33 64.786c-.754-1.853-3.143-2.754-4.887-3.048a22.483 22.483 0 0 1-5.493-1.698c-2.73-1.224-4.697-2.717-5.228-3.509-.843-1.258-.901-8.385-.211-11.73.03-.134-.105-.252-.236-.235-3.526.398-7.064.646-10.611.759l-.025-1.866c0-.268-.417-.214-.417.05.004.612.013 1.22.021 1.832-.143.004-.286.008-.425.017-.105-.134-.619-1.3-.628-1.09-.126 2.247.194 5.672 0 7.915-.101 1.166-.139 2.394-.64 3.471-.569 1.228-1.672 2.109-2.78 2.838-.91.595-6.213 2.742-6.213 2.742s5.573 5.194 6.555 5.387c2.907.574 5.872.973 8.808 1.367 2.65.356 5.325.235 8.008-.059a5.356 5.356 0 0 0 1.976 2.096c1.457.868 3.168 1.161 4.819 1.438 2.132.361 4.267.709 6.399 1.065.114.017.227-.021.261-.143.388-1.233.661-2.49.8-3.773.105-.971.526-2.883.147-3.826z" fill="#FFA18A" data-color="3" data-darkreader-inline-fill="" style="--darkreader-inline-fill: #ff947a;"></path>
        <path d="M106.442 35.553c-.09-2.463.034-4.912-.737-7.04-.772-2.131-3.3-4.758-5.547-5.345-2.975-.777-6.357-.707-8.746 1.22-2.676 2.159-3.796 3.844-4.207 7.05-.458 3.582-.223 6.288.663 9.831.465 1.861 1.111 3.707 2.182 5.348s2.596 3.072 4.476 3.84c2.482 1.013 5.509.963 7.668-.475 2.013-1.341 2.695-3.189 3.338-5.38.756-2.573 1.017-6.125.91-9.049z" fill="#FFA18A" data-color="3" data-darkreader-inline-fill="" style="--darkreader-inline-fill: #ff947a;"></path>
        <path d="M87.749 35.466s-1.662-.979-2.041 1.693.49 4.511 1.889 4.634c1.399.122 1.785-1.954 1.785-1.954l-1.633-4.373z" fill="#FFA18A" data-color="3" data-darkreader-inline-fill="" style="--darkreader-inline-fill: #ff947a;"></path>
        <path d="M103.026 35.565c1.042-.202.858 2.293.093 2.311-.185.004-.361-.1-.481-.241-.41-.486-.403-1.917.388-2.07z" opacity=".8"></path>
        <path d="M93.299 35.565c1.042-.202.858 2.293.093 2.311-.185.004-.361-.1-.481-.241-.41-.486-.403-1.917.388-2.07z" opacity=".8"></path>
        <path d="M98.964 51.418a8.766 8.766 0 0 1-1.618-.157c-2.868-.539-6.78-3.93-6.945-4.074a.21.21 0 0 1-.019-.296.211.211 0 0 1 .297-.019c.04.035 3.99 3.459 6.745 3.977 2.791.525 4.252-.519 4.266-.529a.213.213 0 0 1 .295.043.209.209 0 0 1-.042.293c-.052.038-1.051.762-2.979.762z" opacity=".2"></path>
        <path d="M99.442 42.909a.21.21 0 0 1-.086-.402c.261-.115.984-.534.878-.933-.072-.272-.189-.521-.337-.836a11.175 11.175 0 0 1-.658-1.673c-.411-1.365-.258-2.053-.251-2.082a.21.21 0 0 1 .41.095c-.003.015-.128.633.244 1.867.22.731.451 1.221.636 1.615.151.321.281.598.363.907.218.827-1.061 1.399-1.116 1.423a.18.18 0 0 1-.083.019z" opacity=".2"></path>
        <path d="M95.463 43.711s.685.337 2.949.52 3.405-.14 3.405-.14-.79 1.9-3.177 1.926c-2.387.026-3.177-2.306-3.177-2.306z" fill="#FFFFFF" data-color="5" data-darkreader-inline-fill="" style="--darkreader-inline-fill: #e8e6e3;"></path>
        <path d="M87.498 39.937a.197.197 0 0 1-.111-.033c-.042-.027-.413-.281-.53-.999-.116-.711.322-1.485.341-1.518a.21.21 0 0 1 .366.208c-.004.007-.383.679-.291 1.243.087.532.334.708.344.715a.211.211 0 0 1 .057.29.214.214 0 0 1-.176.094z" opacity=".2"></path>
        <path d="M95.816 32.979c-.837-.277-1.702-.256-2.569-.162-.525.057-1.046.151-1.558.282-.448.115-1.06.206-1.353.601-.31.418.6.286.812.295.703.03 1.409-.052 2.291-.065.683-.01 1.37.099 2.052.09.285-.004.609.041.798-.237.301-.443-.108-.684-.473-.804z" fill="#875549" data-color="4" data-darkreader-inline-fill="" style="--darkreader-inline-fill: #ba8b7f;"></path>
        <path d="M101.57 33.78c.154.278.416.233.646.237.552.009 1.109-.1 1.662-.09.714.013 1.285.096 1.855.066.171-.009.908.123.657-.295-.356-.592-1.241-.709-1.86-.807-.858-.136-1.749-.252-2.577.087-.295.119-.627.36-.383.802z" fill="#875549" data-color="4" data-darkreader-inline-fill="" style="--darkreader-inline-fill: #ba8b7f;"></path>
        <path d="M88.529 36.271s-1.565-1.163-2.194 1.608.064 4.772 1.448 5.014c1.383.243 1.963-1.903 1.963-1.903l-1.217-4.719z" fill="#FFA18A" data-color="3" data-darkreader-inline-fill="" style="--darkreader-inline-fill: #ff947a;"></path>
        <path d="M91.109 37.551a.305.305 0 0 1-.06-.006l-2.716-.522a.315.315 0 1 1 .12-.617l2.715.522a.315.315 0 0 1-.059.623z" fill="#3B3348" data-color="2" data-darkreader-inline-fill="" style="--darkreader-inline-fill: #c1bcb4;"></path>
        <path d="m106.794 30.009-.147-.075c-.916-5.767-7.716-8.533-12.962-7.213-2.962.745-5.506 2.775-6.848 5.512a10.845 10.845 0 0 0-1.072 3.852c-.062.737.143 1.533.053 2.247-.088.702-.921 1.182-1.181 1.848-.743 1.901.212 4.203 1.471 6.038.095-.076.192-.15.286-.223.617-.482.99-.983 1.197-1.758.261-.975.181-2.081.741-2.963.499-.787 1.402-.996 2.044-1.612.765-.734.747-1.924 1.422-2.736.666-.801 1.743-1.238 2.664-1.671 1.222-.574 2.756-.836 3.78-1.721.491-.425.987-.851 1.407-1.348.213-.252.412-.522.553-.82.142-.301.284-.728.317-1.056 1.71 1.585 3.599 2.817 5.752 3.912.02.149.156.176.266.127l.045.023c.242.118.455-.243.212-.363z" fill="#875549" data-color="4" data-darkreader-inline-fill="" style="--darkreader-inline-fill: #ba8b7f;"></path>
        <path d="M87.374 24.11c.126-.063.189-.261.037-.368-1.631-1.158-3.746-1.35-5.585-.561-1.366.587-3.401 2.117-3.626 3.715-.247 1.757 2.274 1.062 3.154.756 2.161-.751 3.728-2.631 5.986-3.146.215-.049.192-.326.034-.396z" fill="#875549" data-color="4" data-darkreader-inline-fill="" style="--darkreader-inline-fill: #ba8b7f;"></path>
        <path d="M108.573 68.597c-.072.528-.914.532-.843 0 .383-2.859.455-5.702.219-8.557.282.13.569.252.868.373a39.346 39.346 0 0 1-.244 8.184z" opacity=".7"></path>
        <path d="M121.607 100.623c.042 2.117.331 8.817.347 8.872.476 1.627.672 7.83.183 8.895-.805 1.757-44.472 3.726-47.047 1.518-2.575-2.207 2.133-19.734 1.653-21.885a32.376 32.376 0 0 1-.333-1.744 54.197 54.197 0 0 1-.522-4.31 75.688 75.688 0 0 1-.257-6.771c.008-1.547.072-2.985.181-4.209.025-.302.055-.587.088-.859.206-1.748.682-4.905 1.201-8.07.227-1.388.463-2.78.687-4.054.552-3.14 1.032-5.584 1.167-5.584a.087.087 0 0 0 .042-.013c.375-.256 1.559-3.396 1.559-3.396s6.942 5.245 18.084 5.085c5.089-.075 14.491-2.465 14.491-2.465s1.213.105 2.591.553a9.092 9.092 0 0 1 1.605.671c.16.088.324.18.484.285.758.495 1.394 1.149 1.689 2.004.164.478.282 1.145.366 1.941.126 1.241.173 2.796.194 4.444.05 3.836-.021 8.188.518 10.313.025.101.05.197.08.285.299.947.35 2.327.278 3.878-.188 3.866.658 13.899.671 14.616z" fill="#3B3348" data-color="2" data-darkreader-inline-fill="" style="--darkreader-inline-fill: #c1bcb4;"></path>
        <path d="M138.453 85.09c-.055-.201-.11-.402-.16-.604-.034-.13-.059-.26-.088-.39-.274-1.363-.261-2.763-.156-4.171.114-1.539.341-3.086.421-4.603.076-1.451-.063-2.771-.35-4.155-.042-.193-.084-.39-.131-.587-.253-1.069-.653-2.335-.653-3.488 0-.201.013-.398.038-.587.115-.856.012-1.803-.396-2.63-.675-1.366-1.041-1.322-2.375-.867a45.13 45.13 0 0 1-7.967 1.933.149.149 0 0 0-.063.025c-.093-.013-.177.029-.198.147-.131.792-.194 1.589-.126 2.39.034.39.135.78.211 1.17.11.562.168 1.124-.101 1.669-.329.662-.678 1.031-.805 1.807a5.172 5.172 0 0 0-.059.566c-.021.444.008.893.059 1.337.034.298.11.595.131.889.055.91-.046 1.119-.375 1.484a19.852 19.852 0 0 0-2.751-4.23 8.986 8.986 0 0 0-.329-.382c-.973-1.082-1.31-2.088-1.588-3.471a10.48 10.48 0 0 0-.299-1.136c-.215-.7-.489-1.388-.762-2.075-.337-.864-1.024-1.513-1.769-1.987a7.18 7.18 0 0 0-.876-.482 9.092 9.092 0 0 0-1.213-.474c-.055-.017-.105-.034-.156-.046-.35-.105-.569-.151-.569-.151s.459 2.314.615 4.448c.076 1.04.076 2.038-.084 2.704a65.15 65.15 0 0 0-.35 1.543c-.274 1.3-.493 2.616-.581 3.941-.126 1.891.152 3.731.265 5.614.038.667.038 1.325-.004 1.983a16.983 16.983 0 0 1-.775 4.05c-.017.059-.038.117-.055.176-.484 1.522-1.011 3.102-.451 4.683.548 1.56-1.378 3.979-.8 5.551.076.201.16.398.257.587.796 1.543 2.351 2.763 3.985 3.891.876.604 1.778 1.186 2.591 1.778.219.159.434.319.64.482 2.321 1.824 5.278 2.729 8.185 3.048 1.622.18 3.56-.088 4.878-1.199 1.82-1.534 2.321-3.824 2.633-5.937.084-.553.198-1.077.337-1.585.404-1.459 1.015-2.771 1.643-4.18.097-.21.194-.423.286-.641 1.066-2.451.943-5.31.24-7.838z" fill="#3B3348" data-color="2" data-darkreader-inline-fill="" style="--darkreader-inline-fill: #c1bcb4;"></path>
        <path d="M81.974 70.11s3.296 11.577 1.478 21.289c-1.818 9.713-13.176 30.043-13.238 30.325-.062.282 0 6.291 0 6.291s12.848-19.217 15.446-28.511c2.598-9.293 2.647-16.281 2.096-20.683-.551-4.402-1.956-9.828-1.956-9.828l-3.826 1.117z" fill="#F5EBE3" data-color="6" data-darkreader-inline-fill="" style="--darkreader-inline-fill: #ebd6c6;"></path>
        <path d="M95.241 68.183c-.436-.735-1.032-1.362-1.558-2.032-.8-1.018-1.151-1.978-1.218-3.283-.092-1.773-.497-3.074-1.424-4.597-.499-.82-1.006-3.071-1.067-4.033-.139-2.22-.145-3.356-.243-4.448.124-.096.135-.325-.061-.367-3.55-.762-6.934 3.408-9.964 5.055-1.581.86-3.3 1.396-4.883 2.232-1.07.565-2.274 1.524-2.306 2.851-.029 1.22 1.214 2.289 2.142 2.897.347.227.746.359 1.088.59.084.057.162.121.24.188.558.656 1.059 1.355 1.444 2.126.912 1.828.868 3.816 2.162 5.48.517.665 1.106 1.278 1.564 1.987.486.751.583 1.602.949 2.396.674 1.46 2.41 2.913 3.87 3.534.143.061.315-.008.317-.181.013-.932-.641-1.746-.937-2.609a10.214 10.214 0 0 1-.301-1.102c.216.356.442.703.694 1.026.377.483.812.88 1.381 1.12.316.133.614.184.917.36.489.284.656.681.999 1.1.456.557 1.277 1.056 1.881.391.239-.263.292-.609.333-.949.108-.894.209-1.574.529-2.422.537-1.424.822-2.882.74-4.409a9.947 9.947 0 0 0-.431-2.359c.247.362.536.69.922.936 1.24.789 1.729 2.188 2.383 3.459.085.166.336.115.385-.05.482-1.643.336-3.4-.547-4.887z" fill="#875549" data-color="4" data-darkreader-inline-fill="" style="--darkreader-inline-fill: #ba8b7f;"></path>
        <path d="M108.921 80.634a3.717 3.717 0 0 0-1.153 1.127l-.009-.018c.05-.451-.017-.919-.295-1.292-.152-.204-.373-.342-.634-.325a.462.462 0 0 0-.574.279c-.396 1.144-.083 2.78 1.045 3.438 1.25.729 2.037-1.952 2.239-2.735.088-.344-.3-.674-.619-.474z" fill="#A5B1C7" data-color="1" data-darkreader-inline-fill="" style="--darkreader-inline-fill: #bab4ab;"></path>
        <path d="M114.156 67.857c-.048-.372-.569-.621-.785-.212-.052.099-.099.2-.147.301-.19-.234-.482-.416-.786-.402-1.018.047-.678 1.218-.433 1.787.205.477.716 2.055 1.507 1.404.324-.266.474-.864.565-1.252.127-.535.149-1.08.079-1.626z" fill="#A5B1C7" data-color="1" data-darkreader-inline-fill="" style="--darkreader-inline-fill: #bab4ab;"></path>
        <path d="M96.65 76.108c-.316-.021-.53.235-.669.484a2.241 2.241 0 0 0-.142.315c-.134-.197-.296-.428-.526-.512a.476.476 0 0 0-.393.016.742.742 0 0 0-.512.358c-.17.306-.076.64.047.943.139.343.263.713.462 1.028.305.482.874.85 1.446.563.693-.349 1.327-3.126.287-3.195z" fill="#A5B1C7" data-color="1" data-darkreader-inline-fill="" style="--darkreader-inline-fill: #bab4ab;"></path>
        <path d="M76.404 73.085c-.012-.332-.345-.503-.634-.362a1.868 1.868 0 0 0-.48.338c-.048-.506-.341-.862-.826-1.048-.224-.086-.447.098-.518.293-.369 1.006-.166 2.585.885 3.146 1.419.757 1.603-1.544 1.573-2.367z" fill="#A5B1C7" data-color="1" data-darkreader-inline-fill="" style="--darkreader-inline-fill: #bab4ab;"></path>
        <path d="M118.482 111.529c-.012-.332-.345-.503-.634-.362a1.868 1.868 0 0 0-.48.338c-.048-.506-.341-.862-.826-1.048-.224-.086-.447.098-.518.293-.369 1.006-.166 2.585.886 3.146 1.418.756 1.603-1.545 1.572-2.367z" fill="#A5B1C7" data-color="1" data-darkreader-inline-fill="" style="--darkreader-inline-fill: #bab4ab;"></path>
        <path d="M83.388 86.255c-.039-.233-.315-.335-.518-.293a1.162 1.162 0 0 0-.843.674c-.013.012-.03.019-.042.034-.013-.13-.081-.27-.204-.328-.691-.326-1.237.268-1.178.954.061.706.469 1.525 1.088 1.909.328.204.612.204.845.086a.37.37 0 0 0 .36-.197 4.21 4.21 0 0 0 .492-2.839z" fill="#A5B1C7" data-color="1" data-darkreader-inline-fill="" style="--darkreader-inline-fill: #bab4ab;"></path>
        <path d="M83.388 86.255c-.039-.233-.315-.335-.518-.293a1.162 1.162 0 0 0-.843.674c-.013.012-.03.019-.042.034-.013-.13-.081-.27-.204-.328-.691-.326-1.237.268-1.178.954.061.706.469 1.525 1.088 1.909.328.204.612.204.845.086a.37.37 0 0 0 .36-.197 4.21 4.21 0 0 0 .492-2.839z" opacity=".2"></path>
        <path d="M72.441 98.706c-.057-.307-.502-.407-.704-.185a3.059 3.059 0 0 0-.582.919c-.027-.095-.049-.274-.071-.343a.995.995 0 0 0-.27-.422c-.25-.228-.634-.299-.907-.072-.328.273-.224.78-.176 1.149.054.42.166.836.434 1.173.428.538 1.277.779 1.846.314.687-.56.572-1.767.43-2.533z" fill="#A5B1C7" data-color="1" data-darkreader-inline-fill="" style="--darkreader-inline-fill: #bab4ab;"></path>
        <path d="M95.303 93.602c-.275.021-.477.193-.625.433a1.855 1.855 0 0 0-.649-.587c-.305-.166-.595.051-.634.362-.06.479.072.923.264 1.359.157.355.334.789.674 1.012.668.438 1.46-.101 1.648-.783.142-.519.163-1.859-.678-1.796z"></path>
        <path d="M111.32 97.445c-.085-.238-.378-.412-.619-.251a3.16 3.16 0 0 0-.864.865c.004-.485-.223-.911-.652-1.207-.199-.138-.452-.021-.576.15-.363.501-.347 1.13-.123 1.686.184.456.532 1.206 1.079 1.309.574.108 1.048-.452 1.358-.852.382-.493.617-1.086.397-1.7z" fill="#A5B1C7" data-color="1" data-darkreader-inline-fill="" style="--darkreader-inline-fill: #bab4ab;"></path>
        <path d="M133.254 72.296c-.169-.452-.686-.556-1.068-.303-.008.005-.012.011-.02.017-.133-.282-.341-.514-.683-.586-.483-.103-.884.225-.948.694-.073.533.196 1.085.464 1.528.247.408.543.935 1.078.968.475.03.765-.359.911-.759.154-.424.433-1.112.266-1.559z" fill="#A5B1C7" data-color="1" data-darkreader-inline-fill="" style="--darkreader-inline-fill: #bab4ab;"></path>
        <path d="m74.956 116.454 1.063 2.189s23.99 2.076 24.179 1.894c.189-.183 5.454-31.146 5.454-31.146l-2.475-.192-28.221 27.255z" fill="#E35F4B" data-color="7" data-darkreader-inline-fill="" style="--darkreader-inline-fill: #e56855;"></path>
        <path fill="#FFFFFF" d="m104.95 89.583-5.5 30.046-22.739-1.87-1.094-2.234 27.784-27.806 1.549 1.864z" data-color="5" data-darkreader-inline-fill="" style="--darkreader-inline-fill: #e8e6e3;"></path>
        <path fill="#E35F4B" d="m104.121 87.151-5.657 31.3-23.508-1.997 5.008-29.484 24.157.181z" data-color="7" data-darkreader-inline-fill="" style="--darkreader-inline-fill: #e56855;"></path>
        <path d="M123.41 84.773a2 2 0 0 0-.535.227.712.712 0 0 0-.164-.371c-.202-.242-.535-.369-.834-.233-.661.302-.483 1.627-.398 2.193.049.321.113.692.414.88.302.189.671.081.933-.118.623-.473.994-1.308 1.102-2.061.044-.309-.178-.605-.518-.517z" fill="#A5B1C7" data-color="1" data-darkreader-inline-fill="" style="--darkreader-inline-fill: #bab4ab;"></path>
        <path d="M131.488 94.781c-.435-.118-.759.259-.993.727a2.122 2.122 0 0 0-.847-.923c-.211-.125-.578-.021-.619.251-.121.803-.154 1.965.491 2.584.672.645 1.598.114 2.017-.535.304-.47.78-1.88-.049-2.104z" fill="#A5B1C7" data-color="1" data-darkreader-inline-fill="" style="--darkreader-inline-fill: #bab4ab;"></path>
        <path d="M100.681 111.028c-.061-.323-.491-.387-.704-.185a2.286 2.286 0 0 0-.529.753c-.182-.561-.643-1.11-1.299-.793-.945.457.038 1.677.386 2.2.377.565 1.119 1.112 1.733.497.591-.592.554-1.724.413-2.472z"></path>
        <path d="M100.457 25.788a.212.212 0 0 1-.193-.125c-.007-.015-.677-1.521-1.637-2.25a3.727 3.727 0 0 1-.931-.981c-.175-.253-.326-.472-.741-.739-.847-.546-3.003-.883-3.024-.886a.21.21 0 0 1-.176-.239.213.213 0 0 1 .24-.175c.092.014 2.267.354 3.189.948.486.313.668.576.86.854.177.256.36.522.838.885 1.048.795 1.739 2.349 1.768 2.415a.21.21 0 0 1-.193.293z" opacity=".2"></path>
        <path d="M107.522 31.63a.211.211 0 0 1-.211-.201c0-.007-.035-.686-.58-1.431-.537-.735-1.263-1.309-2.876-2.276-1.54-.923-2.487-1.961-2.526-2.005a.21.21 0 0 1 .314-.28c.009.01.947 1.037 2.43 1.926 1.446.867 2.353 1.504 2.999 2.388.625.854.659 1.629.661 1.662a.21.21 0 0 1-.202.217h-.009z" opacity=".2"></path>
        <path d="M105.23 26.734a.214.214 0 0 1-.162-.075c-.007-.008-.719-.847-1.854-1.417-1.172-.588-2.821-1.271-2.838-1.277a.21.21 0 0 1-.114-.274.211.211 0 0 1 .275-.113c.017.007 1.681.695 2.866 1.29a6.779 6.779 0 0 1 1.988 1.523.208.208 0 0 1-.161.343z" opacity=".2"></path>
        <path d="M82.562 26.967a.21.21 0 0 1-.18-.318c.041-.067 1.003-1.636 1.965-2.461.943-.808 1.302-.984 1.339-1.001a.212.212 0 0 1 .28.103.21.21 0 0 1-.103.278c-.002.001-.344.169-1.241.938-.911.781-1.87 2.345-1.879 2.361-.04.064-.11.1-.181.1z" opacity=".2"></path>
        <path d="M90.176 33.996a.21.21 0 0 1-.201-.271c.02-.065.497-1.6 1.441-2.459.838-.762 1.888-1.159 3.627-1.816l.687-.261c1.989-.759 2.922-3.24 2.932-3.265a.21.21 0 0 1 .396.144c-.04.109-1.006 2.685-3.177 3.513l-.689.261c-1.692.639-2.713 1.025-3.493 1.733-.86.782-1.318 2.257-1.322 2.271a.21.21 0 0 1-.201.15z" opacity=".2"></path>
        <path d="M94.518 28.257a.209.209 0 0 1-.124-.379c.01-.007 1.034-.758 2.056-2.013 1-1.228 1.184-2.125 1.186-2.135a.208.208 0 0 1 .246-.166.209.209 0 0 1 .167.244c-.007.04-.198 1.002-1.272 2.321-1.058 1.299-2.091 2.055-2.135 2.087a.207.207 0 0 1-.124.041z" opacity=".2"></path>
        <path d="M76.603 50.278a.21.21 0 0 1-.172-.332c.003-.004.341-.497.777-1.997.246-.849.228-1.571.204-2.485-.019-.718-.04-1.532.07-2.573.182-1.733.706-2.047 1.499-2.523a7.182 7.182 0 0 0 1.133-.798c1.417-1.242 2.771-5.011 2.784-5.049a.213.213 0 0 1 .269-.128.21.21 0 0 1 .128.268c-.057.159-1.405 3.909-2.903 5.223-.459.403-.867.647-1.194.843-.734.439-1.138.682-1.298 2.207-.107 1.013-.086 1.813-.067 2.518.023.913.044 1.701-.221 2.612-.461 1.589-.824 2.104-.839 2.125a.204.204 0 0 1-.17.089z" opacity=".2"></path>
        <path d="M83.519 36.478a.21.21 0 0 1-.18-.318c.137-.266 1.038-3.641 1.574-5.709a.21.21 0 0 1 .408.104c-.336 1.294-1.444 5.538-1.623 5.823a.209.209 0 0 1-.179.1z" opacity=".2"></path>
        <path d="M91.839 68.061a.21.21 0 0 1-.21-.197c-.002-.028-.179-2.81-.455-4.806-.194-1.399-.318-1.71-.688-2.633a49.499 49.499 0 0 1-.636-1.657c-.914-2.521-.925-4.294-.925-4.369a.21.21 0 0 1 .422-.001c0 .018.012 1.78.901 4.226.27.744.47 1.243.63 1.644.374.932.513 1.281.714 2.731.279 2.011.456 4.809.458 4.837a.21.21 0 0 1-.197.222.027.027 0 0 1-.014.003z" opacity=".2"></path>
        <path d="M88.539 58.454a.211.211 0 0 1-.192-.123c-.028-.061-.685-1.532-.791-3.92-.105-2.379.608-5.223.638-5.343a.209.209 0 0 1 .255-.152.21.21 0 0 1 .153.255c-.007.029-.728 2.905-.625 5.222.102 2.302.747 3.751.754 3.766a.21.21 0 0 1-.192.295z" opacity=".2"></path>
        <path d="M87.274 75.363a.207.207 0 0 1-.151-.064c-.064-.066-1.569-1.63-1.999-3.254-.404-1.526-2.168-3.6-2.186-3.62a.21.21 0 0 1 .024-.296.212.212 0 0 1 .297.024c.075.088 1.844 2.167 2.272 3.785.402 1.518 1.88 3.055 1.895 3.07a.208.208 0 0 1-.005.296.212.212 0 0 1-.147.059z" opacity=".2"></path>
        <path d="M80.956 65.616a.211.211 0 0 1-.211-.209c0-.013-.018-1.311-1.082-3.32-.294-.555-.646-1.075-.986-1.577-.942-1.391-1.917-2.829-1.864-5.24.071-3.228 1.14-5.218 1.185-5.301a.21.21 0 0 1 .37.2c-.011.019-1.065 1.991-1.134 5.11-.05 2.278.845 3.598 1.792 4.996.346.512.705 1.041 1.009 1.616 1.117 2.111 1.13 3.458 1.13 3.515a.207.207 0 0 1-.209.21z" opacity=".2"></path>
        <path d="M82.711 62.199a.21.21 0 0 1-.206-.168c-.002-.013-.279-1.337-.877-2.162a41.115 41.115 0 0 1-1.25-1.85.208.208 0 0 1 .066-.289.211.211 0 0 1 .29.066c.006.01.615.971 1.235 1.828.651.899.936 2.266.948 2.323a.21.21 0 0 1-.206.252z" opacity=".2"></path>
        <path d="M139.412 50.044c-.831-.992-1.443.224-1.908 1.035-.363.519-.66 1.098-1.027 1.607.46-1.451.908-2.905 1.329-4.368.167-.581.618-1.529.164-2.096-.131-.164-.463-.397-.645-.442.254-.715.509-1.288.058-1.753-.82-.846-1.69.198-2.069.899-.507.94-.961 1.911-1.452 2.86-.281.542-1.758 3.362-1.758 3.362.159-.811.337-1.62.528-2.424.145-.612.304-1.22.486-1.821.222-.735 1.216-2.437-.02-2.84-.846-.276-1.778 1.793-2.049 2.401a58.964 58.964 0 0 0-2.154 5.587c-.254.767-.464 1.961-.998 2.76-.79-1.293-.885-2.622-1.039-4.097-.052-.495-.167-1.095-.729-1.257-.398-.115-.748.052-.912.427-.161.368-.054.903-.038 1.27l.086 1.973c.055 1.27.072 2.55.183 3.816.194 2.214 1.059 3.627 2.666 5.006-.045.116-.013.27.138.324 1.359.487 5.329.428 5.329.428s.769-1.056 1.453-2.203c.87-1.46 2.114-4.4 2.897-6.333.428-1.058 1.948-3.563 1.481-4.121z" fill="#FFA18A" data-color="3" data-darkreader-inline-fill="" style="--darkreader-inline-fill: #ff947a;"></path>
        <path d="M131.187 60.236a.21.21 0 0 1-.21-.2c-.001-.014-.073-1.398-.639-2.424-.567-1.028-2.237-2.224-2.254-2.236a.21.21 0 0 1-.049-.293.211.211 0 0 1 .294-.049c.072.051 1.764 1.263 2.378 2.375.614 1.113.688 2.546.69 2.607a.209.209 0 0 1-.2.219l-.01.001z" opacity=".2"></path>
        <path d="M134.28 52.41a.209.209 0 0 1-.193-.292l2.562-5.939a.21.21 0 0 1 .276-.11.209.209 0 0 1 .11.275l-2.562 5.939a.21.21 0 0 1-.193.127z" opacity=".2"></path>
        <path d="M103.906 107.544c-.459-.951-1.83-.841-2.7-.925-.304-.03-.606-.069-.908-.106.225-.053.426-.133.562-.263 1.214-1.167-1.753-1.365-2.209-1.4-2.46-.19-1.503-.084-3.932-.48-.803-.131-1.815.068-2.584.381-.569.231-2.121 1.356-2.121 1.356l-2.613-.591c-.233 2.168-.37 4.345-.835 6.483-.054.247-.113.493-.171.739 2.001.209 3.323.34 3.323.34s4.585 1.737 7.032 2.015c1.406.16 5.12.813 5.621-.844.598-.03.974-.539.965-1.101-.011-.716-.589-1.066-.589-1.066s.76-.31.918-.926c.172-.671-.281-1.339-.789-1.743.636-.478 1.484-.927 1.03-1.869z" fill="#FFA18A" data-color="3" data-darkreader-inline-fill="" style="--darkreader-inline-fill: #ff947a;"></path>
        <path d="M102.179 109.509h-.006l-2.257-.067a.21.21 0 0 1-.204-.216c.004-.115.098-.2.217-.203l2.257.067a.21.21 0 0 1-.007.419z" opacity=".2"></path>
        <path d="M99.45 106.62h-.006l-3.699-.111a.21.21 0 0 1-.204-.216c.004-.116.107-.2.217-.203l3.699.111a.21.21 0 0 1 .204.216.21.21 0 0 1-.211.203z" opacity=".2"></path>
        <path d="M102.216 112.113h-.012l-2.332-.131a.21.21 0 0 1-.198-.221c.007-.115.095-.2.222-.197l2.332.131a.21.21 0 0 1-.012.418z" opacity=".2"></path>
        <path d="M101.749 114.186h-.014l-3.099-.206a.21.21 0 0 1-.196-.223.212.212 0 0 1 .224-.195l3.099.206a.21.21 0 0 1 .196.223.21.21 0 0 1-.21.195z" opacity=".2"></path>
        <path d="M76.768 98.785s3.016.79 4.866 2.327c1.85 1.537 1.884.908 3.552 1.328 1.668.419 3.493.699 3.353 1.607-.14.908-1.092 10.315-1.512 10.712-.42.396-.848-.32-2.986-.311-2.138.009-2.91.569-4.62.431-1.711-.138-5.802-.626-5.802-.626l3.149-15.468z" fill="#3B3348" data-color="2" data-darkreader-inline-fill="" style="--darkreader-inline-fill: #c1bcb4;"></path>
        <path d="M84.751 106.556c-.032-.37-.433-.543-.719-.296-.105.09-.199.19-.287.293-.112-.459-.374-.84-.905-.761-.883.132-.76 1.219-.532 1.825.217.575.789 1.634 1.554 1.238.738-.383.953-1.56.889-2.299z" fill="#A5B1C7" data-color="1" data-darkreader-inline-fill="" style="--darkreader-inline-fill: #bab4ab;"></path>
        <path d="M108.921 80.634a3.717 3.717 0 0 0-1.153 1.127l-.009-.018c.05-.451-.017-.919-.295-1.292-.152-.204-.373-.342-.634-.325a.462.462 0 0 0-.574.279c-.396 1.144-.083 2.78 1.045 3.438 1.25.729 2.037-1.952 2.239-2.735.088-.344-.3-.674-.619-.474z" opacity=".2"></path>
        <path d="M114.156 67.857c-.048-.372-.569-.621-.785-.212-.052.099-.099.2-.147.301-.19-.234-.482-.416-.786-.402-1.018.047-.678 1.218-.433 1.787.205.477.716 2.055 1.507 1.404.324-.266.474-.864.565-1.252.127-.535.149-1.08.079-1.626z" opacity=".2"></path>
        <path d="M96.65 76.108c-.316-.021-.53.235-.669.484a2.241 2.241 0 0 0-.142.315c-.134-.197-.296-.428-.526-.512a.476.476 0 0 0-.393.016.742.742 0 0 0-.512.358c-.17.306-.076.64.047.943.139.343.263.713.462 1.028.305.482.874.85 1.446.563.693-.349 1.327-3.126.287-3.195z" opacity=".2"></path>
        <path d="M76.404 73.085c-.012-.332-.345-.503-.634-.362a1.868 1.868 0 0 0-.48.338c-.048-.506-.341-.862-.826-1.048-.224-.086-.447.098-.518.293-.369 1.006-.166 2.585.885 3.146 1.419.757 1.603-1.544 1.573-2.367z" opacity=".2"></path>
        <path d="M118.482 111.529c-.012-.332-.345-.503-.634-.362a1.868 1.868 0 0 0-.48.338c-.048-.506-.341-.862-.826-1.048-.224-.086-.447.098-.518.293-.369 1.006-.166 2.585.886 3.146 1.418.756 1.603-1.545 1.572-2.367z" opacity=".2"></path>
        <path d="M72.441 98.706c-.057-.307-.502-.407-.704-.185a3.059 3.059 0 0 0-.582.919c-.027-.095-.049-.274-.071-.343a.995.995 0 0 0-.27-.422c-.25-.228-.634-.299-.907-.072-.328.273-.224.78-.176 1.149.054.42.166.836.434 1.173.428.538 1.277.779 1.846.314.687-.56.572-1.767.43-2.533z" opacity=".2"></path>
        <path d="M111.32 97.445c-.085-.238-.378-.412-.619-.251a3.16 3.16 0 0 0-.864.865c.004-.485-.223-.911-.652-1.207-.199-.138-.452-.021-.576.15-.363.501-.347 1.13-.123 1.686.184.456.532 1.206 1.079 1.309.574.108 1.048-.452 1.358-.852.382-.493.617-1.086.397-1.7z" opacity=".2"></path>
        <path d="M133.254 72.296c-.169-.452-.686-.556-1.068-.303-.008.005-.012.011-.02.017-.133-.282-.341-.514-.683-.586-.483-.103-.884.225-.948.694-.073.533.196 1.085.464 1.528.247.408.543.935 1.078.968.475.03.765-.359.911-.759.154-.424.433-1.112.266-1.559z" opacity=".2"></path>
        <path d="M123.41 84.773a2 2 0 0 0-.535.227.712.712 0 0 0-.164-.371c-.202-.242-.535-.369-.834-.233-.661.302-.483 1.627-.398 2.193.049.321.113.692.414.88.302.189.671.081.933-.118.623-.473.994-1.308 1.102-2.061.044-.309-.178-.605-.518-.517z" opacity=".2"></path>
        <path d="M131.488 94.781c-.435-.118-.759.259-.993.727a2.122 2.122 0 0 0-.847-.923c-.211-.125-.578-.021-.619.251-.121.803-.154 1.965.491 2.584.672.645 1.598.114 2.017-.535.304-.47.78-1.88-.049-2.104z" opacity=".2"></path>
        <path d="M84.751 106.556c-.032-.37-.433-.543-.719-.296-.105.09-.199.19-.287.293-.112-.459-.374-.84-.905-.761-.883.132-.76 1.219-.532 1.825.217.575.789 1.634 1.554 1.238.738-.383.953-1.56.889-2.299z" opacity=".2"></path>
        <path fill="#FFFFFF" d="m86.062 92.006-.709 5.339 9.439.261.844-5.482-9.574-.118z" data-color="5" data-darkreader-inline-fill="" style="--darkreader-inline-fill: #e8e6e3;"></path>
        <path d="M78.92 98.995a.21.21 0 0 1-.209-.243l1.826-11.299a.212.212 0 0 1 .242-.174.21.21 0 0 1 .175.24l-1.826 11.299a.211.211 0 0 1-.208.177z" opacity=".5"></path>
        <path d="M75.949 116.412a.21.21 0 0 1-.206-.255l.292-1.302a.212.212 0 0 1 .252-.159.21.21 0 0 1 .16.25l-.292 1.302a.212.212 0 0 1-.206.164z" opacity=".5"></path>
        <path d="M92.839 93.059h-.005l-4.493-.105a.212.212 0 0 1-.206-.215c.003-.116.105-.201.216-.205l4.494.105a.212.212 0 0 1 .206.215.213.213 0 0 1-.212.205z" fill="#F5EBE3" data-color="6" data-darkreader-inline-fill="" style="--darkreader-inline-fill: #ebd6c6;"></path>
        <path d="M94.587 95.105h-.005l-8.242-.174a.21.21 0 0 1 .005-.419h.005l8.242.174a.21.21 0 0 1-.005.419z" fill="#F5EBE3" data-color="6" data-darkreader-inline-fill="" style="--darkreader-inline-fill: #ebd6c6;"></path>
        <path d="M94.324 96.32h-.005l-8.154-.172a.21.21 0 0 1 .005-.419h.005l8.154.172a.21.21 0 0 1-.005.419z" fill="#F5EBE3" data-color="6" data-darkreader-inline-fill="" style="--darkreader-inline-fill: #ebd6c6;"></path>
        <path d="M70.187 121.271a.211.211 0 0 1-.211-.202l-.236-6.708a.21.21 0 0 1 .203-.217c.112-.017.214.086.218.202l.236 6.708a.21.21 0 0 1-.203.217h-.007z" opacity=".5"></path>
        <path d="M69.302 116.765c-.511 0-2.272-.026-3.869-.357a22.55 22.55 0 0 1-4.151-1.317.21.21 0 0 1 .173-.382c.019.008 1.867.833 4.064 1.288 1.808.375 3.901.347 3.92.348h.003a.21.21 0 0 1 .211.206.21.21 0 0 1-.207.213l-.144.001z" opacity=".5"></path>
        <path d="M121.677 102.3a.21.21 0 0 1-.21-.198c-.009-.155-.845-15.518-1.018-19.964-.173-4.442-.603-11.166-.608-11.233a.212.212 0 0 1 .197-.223.206.206 0 0 1 .224.196c.004.067.434 6.797.608 11.244.173 4.443 1.009 19.803 1.017 19.957a.21.21 0 0 1-.199.221h-.011z" opacity=".1"></path>
        <path d="M124.753 97.217a.21.21 0 0 1-.209-.244c.006-.035.576-3.502.573-4.227l.001-.491c.006-1.363.019-4.554-.201-7.653-.255-3.605.453-6.86.46-6.892a.212.212 0 0 1 .251-.16.209.209 0 0 1 .16.25c-.007.032-.702 3.23-.451 6.772.22 3.115.207 6.317.202 7.685-.001.216-.002.381-.001.487.004.76-.555 4.154-.578 4.298a.21.21 0 0 1-.207.175z" opacity=".1"></path>
        <path d="M76.768 98.995a.216.216 0 0 1-.066-.01l-5.445-1.778a.209.209 0 0 1-.134-.264.21.21 0 0 1 .266-.134l5.445 1.778a.209.209 0 0 1-.066.408z" opacity=".1"></path>
        <path d="M93.963 40.391a3.166 3.166 0 0 1-3.17-3.155 3.166 3.166 0 0 1 3.17-3.155 3.166 3.166 0 0 1 3.17 3.155 3.167 3.167 0 0 1-3.17 3.155zm0-5.681a2.534 2.534 0 0 0-2.538 2.526 2.535 2.535 0 0 0 2.538 2.526 2.535 2.535 0 0 0 2.538-2.526 2.536 2.536 0 0 0-2.538-2.526z" fill="#3B3348" data-color="2" data-darkreader-inline-fill="" style="--darkreader-inline-fill: #c1bcb4;"></path>
        <path d="M103.311 40.391a3.166 3.166 0 0 1-3.17-3.155 3.166 3.166 0 0 1 3.17-3.155 3.166 3.166 0 0 1 3.17 3.155 3.166 3.166 0 0 1-3.17 3.155zm0-5.681a2.535 2.535 0 0 0-2.538 2.526 2.535 2.535 0 0 0 2.538 2.526c1.4 0 2.538-1.133 2.538-2.526a2.534 2.534 0 0 0-2.538-2.526z" fill="#3B3348" data-color="2" data-darkreader-inline-fill="" style="--darkreader-inline-fill: #c1bcb4;"></path>
        <path d="M96.816 37.551a.316.316 0 0 1-.309-.249.313.313 0 0 1 .243-.373c.039-.008.959-.202 1.889-.206.937.003 1.849.198 1.887.206a.314.314 0 1 1-.138.613 9.21 9.21 0 0 0-1.723-.191h-.024c-.862.003-1.75.19-1.759.192a.298.298 0 0 1-.066.008z" fill="#3B3348" data-color="2" data-darkreader-inline-fill="" style="--darkreader-inline-fill: #c1bcb4;"></path>
    </g>
</svg>