<svg preserveAspectRatio="xMidYMid meet" data-bbox="69.999 20.001 60.002 160" viewBox="69.999 20.001 60.002 160" height="200" width="200" xmlns="http://www.w3.org/2000/svg" data-type="color" role="presentation" aria-hidden="true" aria-label="">
    <g>
        <path d="M125.901 180h-16.993a142.232 142.232 0 0 1-2.102-6.512c-.036-.119-.073-.239-.105-.358a126.688 126.688 0 0 1-.808-2.862 138.975 138.975 0 0 1-1.936-8.112c-.356-1.72-.639-3.455-.942-5.186-.004-.004-.004-.008-.004-.012a79.383 79.383 0 0 0-.457-2.412v-.008a62.128 62.128 0 0 0-.408-1.879 40.233 40.233 0 0 0-.505-1.938v-.004c-.04-.127-.077-.259-.117-.386-.368-1.222-.776-2.428-1.136-3.646a133.913 133.913 0 0 0-.594 3.972c-.02.139-.036.279-.057.418-.097.716-.186 1.437-.271 2.157-.02.135-.036.275-.049.414-.699 5.883-1.132 11.798-1.694 17.701-.012.115-.02.227-.032.342-.044.47-.093.939-.141 1.409a6.702 6.702 0 0 1-.04.398 194.539 194.539 0 0 1-.744 6.504H78.583c-.251-1.134-.558-3.71-.885-7.089l-.036-.402c-.089-.919-.178-1.899-.271-2.918a7.135 7.135 0 0 0-.036-.402 1178.65 1178.65 0 0 1-1.209-15.38c-.008-.131-.02-.263-.028-.394-.061-.852-.121-1.696-.182-2.528-.008-.135-.02-.271-.028-.406-.376-5.326-.691-10.042-.869-12.805-.141-2.173-.154-4.745-.097-7.344l.012-.45c.02-.677.04-1.349.069-2.018.004-.135.012-.271.016-.406.226-5.405.687-10.325.873-11.332a1.041 1.041 0 0 0-.109.02c-.255.052-.364-.33-.109-.382.101-.024.202-.04.299-.06.182-.919.408-1.831.679-2.734.073-.247.465-.143.388.103-.016.052.057.076.202.08.101.004.243-.004.412-.024.675-.072 1.863-.295 3.367-.613l.627-.135c.077-.016.154-.032.234-.052.061-.012.125-.028.186-.04 1.265-.271 2.688-.593 4.184-.931l.804-.179v-.004c1.872-.422 3.828-.872 5.691-1.286.133-.028.263-.06.392-.088.295-.068.594-.131.885-.195.267-.056.534-.115.792-.171 1.665-.358 3.201-.677 4.463-.904.287-.052.562-.1.821-.143a22.325 22.325 0 0 1 1.455-.203c.15-.016.283-.024.404-.032.174-.008.315-.008.424.004 1.374.135 3.517-.096 5.691-.378.133-.016.263-.036.396-.052.008 0 .012 0 .02-.004.259-.032.521-.068.78-.107 1.948-.267 3.812-.537 5.065-.589 1.629-.072.36 7.507 1.843 6.846.574-.255 1.205-.748 1.863-.872.137-.028.271-.036.404-.024.057.004.113.012.166.02 2.126.422 1.027 3.407 1.261 4.741.234 1.306 1.067 2.428 1.597 3.622.028.06.052.119.073.179.053.111.097.227.133.342.154.414.267.84.356 1.274.024.127.045.259.069.39.036.243.069.49.093.736.283 2.77 1.192 9.043 1.597 11.802.53 3.578.885 7.308 1.12 10.958l.024.394c.028.466.057.935.081 1.397l.024.394c.469 8.992.275 17.227.295 21.219v.398c.004.37.012.693.02.971.004.155.012.299.02.422.004.092.008.171.016.247.216 2.502.377 5.009.491 7.517z" fill="#AB5855" data-color="1" data-darkreader-inline-fill="" style="--darkreader-inline-fill: #b36966;"></path>
        <path d="M120.913 172.135a69.992 69.992 0 0 1 4.483.104 10.763 10.763 0 0 1-.02-.422 64.308 64.308 0 0 0-4.475-.147c-.008-.346-.008-.697-.016-1.043 1.492.06 2.983.131 4.471.219v-.398a237.601 237.601 0 0 0-4.475-.219c-.012-.732-.028-1.465-.032-2.197-.04-5.831.105-11.666.166-17.498l.012-1.286a71.277 71.277 0 0 1 4.034-.02l-.024-.394a83.595 83.595 0 0 0-4.006 0c.004-.478.004-.959.008-1.437a37.636 37.636 0 0 1 3.917.04l-.024-.394a38.316 38.316 0 0 0-3.893-.028c.02-4.657-.049-9.31-.335-13.955-.19-3.077-.509-6.134-.877-9.191a37.267 37.267 0 0 1 2.296-.322c-.024-.131-.044-.263-.069-.39-.76.084-1.516.195-2.272.322-.049-.394-.093-.788-.141-1.182a39.81 39.81 0 0 1 2.057-.414 2.746 2.746 0 0 0-.133-.342c-.663.111-1.318.243-1.973.386-.259-2.09-.534-4.175-.796-6.265-.113-.896-.222-1.787-.327-2.683-.639-5.513-1.083-11.046-.796-16.598.012-.259-.392-.255-.404 0-.287 5.573.158 11.101.796 16.622.348 3.005.756 6.006 1.132 9.012-1.645.378-3.278.84-4.907 1.329-1.378.414-2.753.832-4.135 1.218-.17-.904-.34-1.807-.501-2.707-.837-4.649-1.492-9.426-1.14-14.13a28.705 28.705 0 0 1 1.091-6.05c.073-.247-.315-.35-.392-.107a28.93 28.93 0 0 0-1.116 6.213c-.412 5.624.631 11.256 1.682 16.885-2.239.609-4.499 1.122-6.807 1.365a39.206 39.206 0 0 0-.509-1.835c-.635-2.07-1.293-4.14-1.31-6.321-.024-3.22 1.011-6.512.829-9.72-.065-1.115-.275-2.217-.728-3.304-.097-.231-.485-.131-.388.107.441 1.063.647 2.137.711 3.228.166 2.866-.655 5.803-.804 8.669-.166 3.224 1.015 6.17 1.795 9.215-.667.064-1.334.103-2.013.119-2.559.044-5.109-.072-7.664-.155.036-2.03.283-4.044.441-6.078.263-3.391.137-6.779-.17-10.154-.263-2.93-.663-5.843-1.063-8.749-.032-.251-.424-.143-.388.107.4 2.898.796 5.807 1.059 8.729.251 2.762.376 5.537.263 8.315-.109 2.611-.538 5.202-.566 7.813-2.223-.072-4.446-.115-6.674 0-.744.04-1.484.092-2.223.151a398.665 398.665 0 0 0-.623-4.386c-.461-3.141-.857-6.325-.857-9.493 0-2.639.271-5.266 1.006-7.849.069-.247-.319-.354-.392-.107-.76 2.671-1.039 5.354-1.035 8.048.004 4.597.833 9.219 1.496 13.824-1.94.171-3.868.426-5.78.772-.004-2.253.012-4.51.053-6.763.044-2.364.125-4.725.238-7.085.049-.935.101-1.871.158-2.806.186-2.949.311-6.098 2.191-8.546.158-.207-.194-.406-.348-.203-1.471 1.919-1.892 4.275-2.094 6.611a111.158 111.158 0 0 0-.319 4.967 210.966 210.966 0 0 0-.15 3.893 275.947 275.947 0 0 0-.117 10.007c-.655.123-1.306.259-1.956.406-.004.135-.012.271-.016.406a55.731 55.731 0 0 1 1.973-.414c.004.609.016 1.218.02 1.827-.687.199-1.374.398-2.062.605l-.012.45c.691-.207 1.387-.41 2.078-.613.02 1.847.048 3.698.097 5.545.125 5.107.34 10.222.647 15.324-.618-.04-1.237-.076-1.855-.107.008.135.02.271.028.406.214.012.432.02.647.032.404.02.804.052 1.205.084.049.764.089 1.532.142 2.301a57.13 57.13 0 0 0-1.811.111c.008.131.02.263.028.394a51.752 51.752 0 0 1 1.811-.111c.352 5.234.812 10.46 1.411 15.667a68.307 68.307 0 0 0-2.013-.175c.016.135.028.271.036.402.675.048 1.35.107 2.025.175.077.669.15 1.341.23 2.01l.085.657c-.691.016-1.378.036-2.07.076l.036.402a72.54 72.54 0 0 1 2.086-.076 171.3 171.3 0 0 0 1.063 7.165h.396c-.416-2.38-.768-4.772-1.079-7.173 2.268-.04 4.531.012 6.799.107.089 2.356.15 4.713.255 7.065h.404c-.105-2.348-.166-4.697-.259-7.045.42.02.837.036 1.257.06 2.3.115 4.6.263 6.904.386.028.482.049.963.049 1.449.004 1.731-.206 3.443-.477 5.151h.408c.17-1.095.315-2.189.4-3.292a24.06 24.06 0 0 0 .016-3.288c.53.028 1.059.052 1.589.076.016-.131.032-.267.04-.398-.554-.024-1.104-.052-1.653-.08-.032-.434-.081-.868-.129-1.298.643.008 1.281-.004 1.924-.032.012-.115.02-.227.032-.342-.667.028-1.334.032-2.001.016a34.513 34.513 0 0 0-.352-2.225c-.946-5.007-2.7-9.903-2.894-15.022 1.896.052 3.792.008 5.695-.263.416-.06.833-.131 1.245-.207a6.16 6.16 0 0 1 .049-.414 32.667 32.667 0 0 1-6.597.529c-.133-.004-.267-.012-.4-.016-.004-.143-.012-.283-.012-.422-.004-.45.008-.896.028-1.345 2.437-.139 4.851-.474 7.252-.904.02-.139.036-.279.057-.418-2.413.434-4.838.776-7.288.919.263-4.967 1.601-9.863 1.366-14.863-.129-2.826-.711-5.604-.93-8.422-.004-.064-.004-.123-.008-.187 3.121.135 6.245.024 9.35-.378.214-.028.424-.064.639-.096.089.47.166.939.218 1.413.497 4.438-.259 8.968-.457 13.406a174.09 174.09 0 0 0-.166 7.682c-.331.068-.663.135-.994.199.04.127.077.259.117.386.295-.056.586-.115.881-.175 0 .673 0 1.345.008 2.022l-.384.096c.032.127.061.255.089.382l.299-.072c.008.525.012 1.047.02 1.568v.008c.166.8.315 1.608.457 2.412a231.77 231.77 0 0 1-.073-4.084c2.53-.641 5.033-1.413 7.559-2.086a108.37 108.37 0 0 0-.412 3.976c-.42 5.242.259 10.237 1.475 15.281-1.892 0-3.792.044-5.667.223.04.151.081.303.125.454 1.876-.163 3.755-.223 5.647-.243.105.418.21.836.319 1.254.073.279.15.561.226.84-.869.131-1.738.255-2.615.342-.962.096-1.928.167-2.894.215.032.119.069.239.105.358a71.483 71.483 0 0 0 5.505-.537c.626 2.34 1.277 4.685 1.823 7.049h.441c-.534-2.38-1.184-4.745-1.811-7.113.437-.06.869-.123 1.302-.195a46.14 46.14 0 0 1 6.443-.549c.045 1.899.113 3.801.222 5.7.04.716.077 1.437.121 2.157h.42a159.19 159.19 0 0 1-.361-7.863zm-36.437-45.639c2.672-.183 5.328-.171 7.983-.103 0 .123-.004.243 0 .362.008.314.02.625.04.939-.182-.012-.36-.016-.542-.028-1.952-.123-3.905-.366-5.865-.267-.784.04-1.564.127-2.336.251a104.1 104.1 0 0 0-.137-1.087c.287-.019.57-.047.857-.067zm-7.094.884a61.007 61.007 0 0 1 5.837-.78c.053.37.101.74.15 1.111-.954.163-1.9.37-2.834.609-1.051.267-2.098.553-3.141.848l-.012-1.788zm.017 2.229c.582-.167 1.164-.338 1.746-.502 1.411-.398 2.834-.756 4.277-1.003.271 2.058.481 4.116.542 6.166.154 5.246-.36 10.492.024 15.73.028.402.073.804.117 1.206-1.863-.207-3.723-.438-5.598-.569-.109-.008-.222-.012-.331-.02a398.048 398.048 0 0 1-.777-21.008zm.804 21.422c1.985.163 3.965.418 5.95.633.065.537.137 1.071.222 1.604a75.808 75.808 0 0 0-6.031.016c-.052-.749-.097-1.501-.141-2.253zm1.552 18.373c-.497-4.386-.877-8.789-1.205-13.175-.065-.852-.121-1.704-.178-2.555a75.061 75.061 0 0 1 5.926-.02c.044.004.093.004.137.008.635 3.893 1.657 7.73 2.049 11.67.166 1.684.279 3.371.364 5.063-1.766-.279-3.529-.565-5.303-.788a69.94 69.94 0 0 0-1.79-.203zm12.337-15.674c-2.211-.088-4.414-.306-6.621-.422-.234-.012-.465-.016-.699-.024a30.456 30.456 0 0 1-.174-1.19c-.016-.127-.028-.255-.045-.382 1.758.183 3.521.334 5.287.342a42.14 42.14 0 0 0 2.251-.056c-.015.581-.019 1.158.001 1.732zm-11.977 18.695c-.113-.872-.21-1.747-.311-2.619.057.004.113.008.17.016 2.312.247 4.604.621 6.896.979.028.577.053 1.154.077 1.735-2.277-.099-4.556-.154-6.832-.111zm15.38.574c-2.716-.143-5.433-.322-8.145-.446-.024-.565-.053-1.126-.077-1.692 1.362.211 2.728.414 4.099.573 1.338.159 2.668.255 3.99.283.053.426.101.856.133 1.282zm-1.2-6.906c.412 1.735.788 3.487 1.023 5.254a44.842 44.842 0 0 1-2.405-.147c-1.896-.171-3.779-.45-5.659-.744a109.245 109.245 0 0 0-.182-3.021c-.182-2.44-.457-4.88-.901-7.288-.4-2.165-.95-4.299-1.33-6.468 2.429.107 4.847.342 7.264.426.197 4.063 1.24 7.995 2.19 11.988zm-.978-31.298c.57 5.501-.817 10.807-1.188 16.26-.012.183-.012.362-.02.545-.17.008-.336.02-.505.028-2.385.092-4.746-.119-7.102-.378-.497-4.808-.121-9.66-.105-14.485.008-2.938-.239-5.835-.59-8.725a24.51 24.51 0 0 1 1.326-.171c1.892-.183 3.767-.04 5.655.111.578.044 1.16.08 1.738.107.16 2.246.56 4.471.791 6.708zm-.405-7.081a23.94 23.94 0 0 1-.028-1.31c1.896.052 3.796.123 5.699.171a33.553 33.553 0 0 0 4.066-.159c.069.275.129.553.19.828a53.411 53.411 0 0 1-9.927.47zm19.075-3.26c2.401-.716 4.81-1.485 7.256-2.066.049.386.093.772.141 1.158-3.036.537-6.023 1.361-9.026 2.13l-.133-.72c.586-.16 1.176-.327 1.762-.502zm-8.755 2.735a19.653 19.653 0 0 0-.178-.812c2.296-.255 4.543-.72 6.795-1.317.044.235.085.474.129.712-2.001.506-4.01.979-6.043 1.314-.234.035-.468.067-.703.103zm-.202 16.645c.162-4.538.877-9.123.61-13.665a21.5 21.5 0 0 0-.331-2.595c2.276-.346 4.515-.856 6.742-1.413.655 3.55 1.261 7.097 1.451 10.643.21 3.889-.238 7.734-.711 11.579-2.215.442-4.422.935-6.617 1.401l-1.253.263c.004-2.073.036-4.143.109-6.213zm-.097 8.626c-.008-.669-.008-1.333-.012-2.002 2.611-.537 5.21-1.138 7.818-1.664l-.194 1.568c-2.543.669-5.061 1.449-7.612 2.098zm13.182 19.524c-1.152.155-2.3.342-3.448.521-.178-.677-.356-1.353-.526-2.03.57-.004 1.144-.004 1.718-.004 2.211.008 4.418.056 6.625.139.004.354.004.712.012 1.071-1.459.02-2.922.108-4.381.303zm4.325-4.347c.004.86.024 1.72.036 2.575a209.21 209.21 0 0 0-5.008-.127c-1.136-.012-2.284-.032-3.432-.036-1.027-4.132-1.827-8.303-1.702-12.61.069-2.265.307-4.514.582-6.759l.643-.171c3.02-.756 6.023-1.118 9.067-1.246-.057 6.126-.219 12.252-.186 18.374zm.186-18.791c-2.357.076-4.709.299-7.05.788-.873.183-1.742.398-2.603.621.061-.517.129-1.031.194-1.544.845-.171 1.694-.33 2.538-.482 2.296-.398 4.608-.697 6.928-.812.001.473-.003.951-.007 1.429zm.012-1.815c-3.157.159-6.298.657-9.418 1.266.368-2.922.72-5.847.748-8.797.044-4.526-.707-8.992-1.536-13.434.893-.223 1.783-.454 2.672-.685 2.094-.545 4.2-1.067 6.33-1.445.315 2.643.602 5.29.788 7.945.351 5.047.432 10.095.416 15.15z" opacity=".4"></path>
        <path d="M114.922 45.818c-.453-2.691-1.128-5.366-1.734-8.028-.631-2.766-1.249-5.553-2.013-8.287-.606-2.177-1.532-4.179-3.112-5.839-3.375-3.543-8.602-4.569-13.141-2.846-.837-.044-1.669.044-2.478.382-1.374.573-2.753 1.624-3.82 2.643-1.087 1.043-1.653 2.384-2.175 3.757-.691 1.819-1.249 3.686-1.787 5.553-.521 1.807-1.023 3.622-1.613 5.409-.55 1.672-1.241 3.328-1.439 5.087-.004.036-.008.072-.008.107a7.06 7.06 0 0 0 .008 1.58 5.72 5.72 0 0 0 .998 2.699c1.055 1.497 2.405 2.83 3.614 4.207.085.092.194.072.263.008 1.512 1.266 3.27 1.966 5.129 2.313 2.571.482 5.34.279 7.919-.044.307-.04.61-.076.918-.107.42-.048.841-.092 1.261-.135 1.326-.131 2.652-.247 3.969-.398a54.59 54.59 0 0 0 1.811-.227c2.163-.314 4.309-.995 5.885-2.555.631-.625 1.532-.541 1.532-.541s.133-1.047.178-1.465c.004-.052.012-.111.016-.175.045-.765-.072-2.461-.181-3.098z" fill="#3B3348" data-color="2" data-darkreader-inline-fill="" style="--darkreader-inline-fill: #c1bcb4;"></path>
        <path d="m121.547 139.555 1.283-1.59s-1.671-22.267-1.918-22.442c-.247-.175-35.716 1.283-35.716 1.283l.185 1.63 36.166 21.119z" fill="#A5B1C7" data-color="3" data-darkreader-inline-fill="" style="--darkreader-inline-fill: #bab4ab;"></path>
        <path fill="#FFFFFF" d="m85.518 117.167 34.806-1.011 1.694 21.21L120.35 139l-36.706-20.52 1.874-1.313z" data-color="4" data-darkreader-inline-fill="" style="--darkreader-inline-fill: #e8e6e3;"></path>
        <path fill="#A5B1C7" d="m82.85 117.787 36.937-1.126 1.76 22.894-34.729.294-3.968-22.062z" data-color="3" data-darkreader-inline-fill="" style="--darkreader-inline-fill: #bab4ab;"></path>
        <path d="M114.922 45.818c-.453-2.691-1.128-5.366-1.734-8.028-.631-2.766-1.249-5.553-2.013-8.287-.606-2.177-1.532-4.179-3.112-5.839-3.375-3.543-8.602-4.569-13.141-2.846-.837-.044-1.669.044-2.478.382-1.374.573-2.753 1.624-3.82 2.643-1.087 1.043-1.653 2.384-2.175 3.757-.691 1.819-1.249 3.686-1.787 5.553-.521 1.807-1.023 3.622-1.613 5.409-.55 1.672-1.241 3.328-1.439 5.087-.004.036-.008.072-.008.107.202.243.404.502.627.72.133.135.279.259.441.354.234.143.501.227.825.215.724-.024 1.475-.689 2.175-.318a.913.913 0 0 1 .142.088c.538.394.651 1.234.8 1.831.053.207.109.41.178.605.186.557.449 1.059.825 1.501.178.211.384.406.622.589a4.35 4.35 0 0 0 1.249.669 4.506 4.506 0 0 0 1.819.227c.881-.068 1.302.147 1.52.983.133.498.166 1.019.368 1.501.998 2.384 3.181-.533 4.653-.167 1.067.267 1.548 1.489 2.575 1.851.012.004.02.008.032.008.461.155.889.084 1.261-.135a2.18 2.18 0 0 0 .586-.506c.311-.374.525-.812.804-1.206.594-.836 1.346-.999 2.353-.943.534.028 1.027.04 1.488-.048a2.55 2.55 0 0 0 1.269-.613c.162-.139.307-.295.441-.458.546-.645.966-1.417 1.665-1.895.711-.49 1.342-.219 2.025.092.085.036.17.076.255.111.501.211 1.067.334 1.621.299.311-.016.598-.1.885-.195.042-.765-.075-2.461-.184-3.098z" fill="#3B3348" data-color="2" data-darkreader-inline-fill="" style="--darkreader-inline-fill: #c1bcb4;"></path>
        <path d="M121.058 64.351c-1.099-1.648-3.121-2.181-4.867-2.424-4.786-.653-8.198-3.097-10.356-7.272-.028-.06-.061-.115-.089-.175-.053-.107-.109-.215-.162-.326-.028-.064-.061-.127-.089-.195a19.018 19.018 0 0 1-.449-1.043c-1.281-3.228-.752-6.365-.162-9.688.024-.135-.113-.247-.243-.227a131.95 131.95 0 0 1-10.562 1.063c-.027-.614-.055-1.227-.079-1.844-.008-.263-.424-.199-.412.068l.073 1.803c-.141.008-.283.02-.424.028-.109-.127-.36-.115-.368.096-.057 2.217.073 4.442-.053 6.663-.061 1.087-.226 2.233-.574 3.316a4.53 4.53 0 0 1-.145.43c-.036.103-.077.203-.117.306-.024.06-.049.115-.077.171-.501 1.182-1.265 2.245-2.381 3.017-.889.617-6.043 3.168-6.043 3.168s5.716 4.964 6.702 5.127c2.918.478 5.885.784 8.828 1.087 2.652.275 5.316.076 7.983-.295a5.357 5.357 0 0 0 2.033 2.014c1.479.812 3.197 1.051 4.851 1.274 2.138.291 5.893.577 8.032.864.113.016.226-.028.259-.147.342-1.231.067-5.1-1.109-6.859z" fill="#FFA680" data-color="5" data-darkreader-inline-fill="" style="--darkreader-inline-fill: #ff9d73;"></path>
        <path d="M108.121 34.716c.052-.938.126-.927.112-1.867-.042-2.996.016-5.295-1.99-7.862-1.369-1.752-3.622-2.75-5.88-3.263-2.991-.679-6.362-.511-8.687 1.461-2.605 2.21-3.547 4.168-3.86 7.345-.349 3.548-.034 6.212.956 9.683.52 1.823 1.22 4.422 2.337 6.01 1.117 1.588 2.682 2.956 4.58 3.658 2.506.927 5.493.567 7.603-.916 1.967-1.383 3.054-4.408 3.63-6.589a38.389 38.389 0 0 0 1.199-7.66z" fill="#FFA680" data-color="5" data-darkreader-inline-fill="" style="--darkreader-inline-fill: #ff9d73;"></path>
        <path d="M93.035 35.26c-1.032-.237-.939 2.232-.176 2.277a.631.631 0 0 0 .488-.221c.426-.465.472-1.877-.312-2.056z" opacity=".8"></path>
        <path d="M103.165 35.031c-1.032-.237-.939 2.232-.176 2.277a.631.631 0 0 0 .488-.221c.426-.465.471-1.877-.312-2.056z" opacity=".8"></path>
        <path d="M107.457 34.479s1.744-.807 1.866 1.855c.122 2.661-.916 4.388-2.318 4.378-1.402-.011-1.587-2.087-1.587-2.087l2.039-4.146z"></path>
        <path d="M98.594 42.734c-.549 0-1.3-.064-1.581-.391-.396-.461-.058-3.811.054-4.827a.202.202 0 0 1 .223-.176.2.2 0 0 1 .179.219c-.219 1.969-.337 4.26-.146 4.529.207.242 1.187.278 1.815.227a.2.2 0 1 1 .034.397 7.833 7.833 0 0 1-.578.022z" opacity=".2"></path>
        <path d="M107.509 38.939a.203.203 0 0 1-.143-.058.196.196 0 0 1 0-.281c.001-.001.261-.275.373-.926.094-.549-.057-.861-.114-.979a.29.29 0 0 1-.04-.135.2.2 0 0 1 .202-.199c.092 0 .171.061.195.145.079.163.27.571.156 1.235-.135.788-.472 1.127-.486 1.141a.206.206 0 0 1-.143.057zm.48-2.379h.004-.004z"></path>
        <path d="M88.445 38.939a.2.2 0 0 1-.142-.058c-.014-.014-.351-.353-.486-1.141-.116-.673.083-1.082.148-1.217.008-.017.004-.006.002.016.01-.1.096-.179.201-.179a.2.2 0 0 1 .202.199c0 .052-.019.09-.04.135-.057.118-.208.43-.114.979.112.651.372.925.375.928a.198.198 0 0 1-.004.281.206.206 0 0 1-.142.057zm-.479-2.38zm0 0z"></path>
        <path d="M98.327 51.013c-2.277 0-5.138-2.275-5.263-2.375a.198.198 0 0 1-.029-.28.205.205 0 0 1 .284-.029c.031.025 3.066 2.443 5.213 2.278 2.174-.16 5.101-2.177 5.13-2.197a.203.203 0 0 1 .281.048.196.196 0 0 1-.049.277c-.123.086-3.047 2.101-5.333 2.269a2.955 2.955 0 0 1-.234.009z" opacity=".2"></path>
        <path d="M90.277 57.804s.322-1.526 3.387-.531 4.598 6.17 4.598 6.17-5.137-.663-5.271-.73c-.135-.066-2.714-4.909-2.714-4.909z" fill="#FFFFFF" data-color="4" data-darkreader-inline-fill="" style="--darkreader-inline-fill: #e8e6e3;"></path>
        <path d="M107.447 57.601s-.322-1.526-3.387-.531-4.598 6.17-4.598 6.17 5.137-.663 5.271-.73c.135-.066 2.714-4.909 2.714-4.909z" fill="#FFFFFF" data-color="4" data-darkreader-inline-fill="" style="--darkreader-inline-fill: #e8e6e3;"></path>
        <path d="M95.205 43.989h6.114s-.218 1.368-3.229 1.318c-3.011-.049-2.885-1.318-2.885-1.318z" opacity=".2"></path>
        <path d="M91.969 33.042a6.115 6.115 0 0 0-1.406.545l-.025.014c-.275.153-.561.387-.549.728a.204.204 0 0 0 .256.192c1.531-.411 2.874-.337 4.426-.248.443.026 1.02.011 1.02-.578-.001-.785-2.128-1.033-3.722-.653z" fill="#3B3348" data-color="2" data-darkreader-inline-fill="" style="--darkreader-inline-fill: #c1bcb4;"></path>
        <path d="M104.65 33.042a6.115 6.115 0 0 1 1.406.545l.026.014c.275.153.561.387.549.728a.204.204 0 0 1-.256.192c-1.531-.411-2.874-.337-4.426-.248-.443.026-1.02.011-1.02-.578 0-.785 2.127-1.033 3.721-.653z" fill="#3B3348" data-color="2" data-darkreader-inline-fill="" style="--darkreader-inline-fill: #c1bcb4;"></path>
        <path d="M109.105 29.423c-.222-.911-.477-1.839-.853-2.699-.34-.772-.841-1.282-1.399-1.895-.582-.645-1.002-1.421-1.665-1.99-.614-.533-1.358-.88-2.122-1.15-1.779-.629-3.731-1.031-5.623-.864-1.783.155-3.8.438-5.429 1.202-1.593.748-2.668 2.277-3.521 3.75-.465.796-.845 1.66-.974 2.575-.178 1.242.113 2.404-.344 3.622-.372 1.003-.829 1.923-.942 3.001-.109 1.083.061 2.141.441 3.16 0 .004.004.008.008.012-.412.943-.93 1.755-.817 2.87.089.856.38 1.66.162 2.524-.053.213-.128.419-.199.625.144.447.38.854.777 1.089.548.324 1.147.186 1.609-.163.136-.62.366-1.232.655-1.877.404-.904.683-1.847.78-2.83.105-1.111-.077-2.149-.267-3.232-.259-1.453.101-2.464.885-3.678.501-.776.938-1.517 1.059-2.44.125-.971-.065-1.982.218-2.934.728-2.428 4.305-1.716 6.132-2.707.008-.008.012-.016.02-.02.251.927.76 1.7 1.694 2.309.817.529 1.746.848 2.607 1.298.72.378 1.12.82 1.37 1.624.097.306.097.545.279.832.53.82 1.152 1.365 1.475 2.325.344 1.023.392 2.122.36 3.188-.036 1.13-.711 3.586.408 4.43.073.056.182.02.242-.032.578-.49.744-1.513.817-2.289a5.351 5.351 0 0 1-.113 1.528c-.356 1.481-.323 2.79-.097 4.291.016.1.158.175.251.139 1.524-.585 2.058-2.046 2.308-3.531.331-1.93.497-3.901.497-5.855.003-2.084-.2-4.178-.689-6.208z" fill="#3B3348" data-color="2" data-darkreader-inline-fill="" style="--darkreader-inline-fill: #c1bcb4;"></path>
        <path d="M75.98 110.872c.419-.047.836-.11 1.245-.161 1.108-.138 2.197-.139 3.313-.082 2.484.129 4.866.821 7.339.99 2.533.174 5.044-.143 7.571-.254 2.619-.116 5.245-.133 7.867-.118 2.186.012 4.393.62 6.575.432 2.401-.207 4.354-1.907 6.76-2.299a13.972 13.972 0 0 1 2.618-.162c3.765-9.98 5.726-20.5 6.102-31.287.116-3.345-1.182-13.363-1.182-13.363s-7.598-4.611-10.349-6.015c-1.232-.629-2.5-1.19-3.823-1.553-2.026-.555-3.11.783-4.557 2.032-1.718 1.484-4.001 2.283-6.139 2.713-2.042.41-4.06-.296-5.766-1.502-1.437-1.016-2.806-3.807-4.558-2.441-1.425 1.111-2.831 1.876-4.556 2.295-1.378.335-6.461 3.262-7.839 3.992-2.413 1.279-4.844 2.327-5.927 5.217-.962 2.568-.741 5.499-.287 8.163.639 3.75 1.634 7.413 2.204 11.18.588 3.883.909 7.806 1.394 11.705a85.452 85.452 0 0 0 1.995 10.518z" fill="#F5DED3" data-color="6" data-darkreader-inline-fill="" style="--darkreader-inline-fill: #efc9b7;"></path>
        <path d="M98.402 87.905c-.069 0-.128-.011-.177-.02-2.847-.524-7.973-27.352-8.549-30.409l.397-.073c2.239 11.899 6.276 29.732 8.226 30.09 2.147.405 7.485-17.503 10.357-28.875l.392.096c-.019.074-1.896 7.488-4.13 14.736-4.141 13.441-5.843 14.455-6.516 14.455z" fill="#A5B1C7" data-color="3" data-darkreader-inline-fill="" style="--darkreader-inline-fill: #bab4ab;"></path>
        <path d="M90.786 51.243c-.016-.004-.032 0-.053 0-.283-.39-.647-.74-1.035-1.059-.95-.239-2.138-.772-2.373-1.592a17.875 17.875 0 0 0-1.661-.832c-.845-.37-1.686-.744-2.615-.49a.171.171 0 0 0-.113.088c-.117-.84-1.338-2.197-1.33-2.05 0 .008 0 .02.004.028.125 2.376 1.1 3.69 1.718 5.994.129.482.299.967.461 1.457.242.736.465 1.477.497 2.225.048 1.114-.55 2.114-.525 3.216.02.756.4 1.29.926 1.803.946.923 1.661 1.907 1.552 3.296-.081 1.043-.687 1.855-.307 2.906.194.545.521 1.071.869 1.58-.012.414-.024.828-.02 1.246 0 .82.186 1.393.764 1.998.048.048.113.119.182.191-.42.533-1.035 1.031-1.277 1.513-.364.712-.441 1.477-.089 2.209.344.712.958 1.246 1.31 1.95.372.74.998 2.408 1.257 2.408.259 0 1.067-1.863 1.382-2.703.319-.848.319-1.751.23-2.639-.089-.876-.808-1.799-1.233-2.567.327-.263.582-.641.744-.971.323-.669.562-1.441.53-2.189a3.021 3.021 0 0 0-.028-.267c.327-1.421.566-2.985.02-4.386-.344-.868-.158-1.509-.016-2.36.057-.362.016-.681-.012-1.043-.065-.748-.129-1.258.109-1.958a8.482 8.482 0 0 0 .404-2.221c.012-.147.016-.295.02-.446.206-.322.396-.657.538-1.015.073-.175.133-.354.182-.541.27-1.023.294-2.516-1.012-2.779zm.101 1.529c-.097-.159-.392-.131-.372.088.016.147.032.295.045.438h-.04a12.19 12.19 0 0 0-.242-2.018c.359.441.597.938.609 1.492z" fill="#A18BBC" data-color="7" data-darkreader-inline-fill="" style="--darkreader-inline-fill: #a38dbd;"></path>
        <path d="M114.037 55.339c-.044.88.198 1.66.335 2.52.182 1.17-.376 2.129-1.015 3.073-1.039 1.536-1.217 2.141-.8 4.012.287 1.278.275 1.958-.457 3.065-.271.406-.509.76-.586 1.246-.069.43.036.868-.057 1.298-.081.398-.303.724-.578 1.023-.049.052-.109.119-.178.187.469.462.829.999.958 1.704.344 1.847-.804 3.196-1.997 4.474-.202.215-1.496 1.791-1.855 1.381-.093-.107.016-.494.024-.617.036-.45.105-.911.097-1.365-.008-.641-.214-1.027-.465-1.584-.291-.645-.295-1.206-.198-1.911.065-.482.154-.991.461-1.389.247-.318.59-.506.942-.681-.38-.175-.719-.418-.869-.832-.291-.8.59-1.441.093-2.233-.303-.486-.412-.876-.525-1.465-.109-.569.194-.999.505-1.449 1.322-1.907-.962-3.757-.885-5.911a7.146 7.146 0 0 1 .578-2.535 2.937 2.937 0 0 0-.089-.533c-.154-.577-.505-1.051-.825-1.552a9.186 9.186 0 0 0-.194-.291c-.247-.35-.542-.716-.776-1.095a3.245 3.245 0 0 1-.117-.199.148.148 0 0 1-.061-.103 2.237 2.237 0 0 1-.226-.633c-.048-.251.344-.354.388-.103.012.06.028.119.049.179.295-.581 1.289-.279 1.795-.673.408-.326.562-.963 1.035-1.218.125-.068.663-.446.788-.521 1.184-.669 1.831-.366 3.153-.72.053-.016 2.567-.486 2.567-.486s-.154 1.926-.356 2.762c-.113.462-.263 1.003-.392 1.552-.04.171-.077.346-.113.517 0 .016-.004.028-.008.044a6.606 6.606 0 0 0-.146 1.062z" fill="#A18BBC" data-color="7" data-darkreader-inline-fill="" style="--darkreader-inline-fill: #a38dbd;"></path>
        <path d="M91.024 50.992c-.016-.004-.032 0-.053 0-.283-.39-.62-.826-1.009-1.144-.95-.239-2.05-.735-2.284-1.555a22.092 22.092 0 0 0-1.849-.92c-.845-.37-1.328-3.277-2.258-3.023-.057.016-1.973.811-1.965.959 0 .008 0 .02.004.028.125 2.376 1.1 3.69 1.718 5.994.237.883.68 1.706.902 2.589.129.512.22 1.034.354 1.545.091.345.215.752.661.714.378-.032.423-.305.439-.622.016-.318-.071-.62.011-.938.117-.454.297-.579.462-.053.129.413.191.866.318 1.287.156.516.189 4.01 1.391 3.659.626-.183.527-1.431.563-1.875.037-.466.007-.943.033-1.408.3.551.764 1.171 1.406.743.381-.254 1.104-.979 1.189-.947.012-.147.662-.981.662-.981l.362-.372s-.333-.463-.284-.65c.271-1.023.533-2.767-.773-3.03z" fill="#3B3348" data-color="2" data-darkreader-inline-fill="" style="--darkreader-inline-fill: #c1bcb4;"></path>
        <path d="M112.427 49.329c-1.322.354-1.881.011-3.065.68-.125.076-.663.454-.788.521-.473.255-2.049.689-2.344 1.27-.02-.06-.594.308-.606.249-.044-.251-.393.643-.345.894.036.215.121.426.226.633a.14.14 0 0 0 .061.103c.036.068-.101.214-.101.214s.748.729.994 1.08c-.029-.042.57-.27.613-.286.439-.16.836-.329 1.048.209.162.408.228.847.338 1.27.123.47.359 1.05.777 1.339.109.076.263-.008.295-.119.073-.247.142-.501.181-.756.044-.289.006-.582.051-.871.048-.302.235-.622.542-.669.1-.016.214.005.278.083a.372.372 0 0 1 .066.204c.093.956-.37 1.866-.451 2.808a9.303 9.303 0 0 0 .015 1.766c.034.334.025 1.375.466 1.463.414.082.881-.859.997-1.156.227-.579.323-1.192.496-1.787.432-1.485.627-3.244 1.965-4.203a.2.2 0 0 0 .049.008c.004-.016.008-.028.008-.044.036-.171.073-.346.113-.517.129-.549.279-1.091.392-1.552.202-.836.356-2.762.356-2.762s-2.575-.088-2.627-.072z" fill="#3B3348" data-color="2" data-darkreader-inline-fill="" style="--darkreader-inline-fill: #c1bcb4;"></path>
        <path d="M88.931 71.558h-.893a.2.2 0 0 1-.202-.199.2.2 0 0 1 .202-.199h.893a.2.2 0 0 1 .202.199.2.2 0 0 1-.202.199z" opacity=".6"></path>
        <path d="M110.304 72.001h-1.28a.2.2 0 0 1-.202-.199.2.2 0 0 1 .202-.199h1.28a.2.2 0 0 1 .202.199.2.2 0 0 1-.202.199z" opacity=".6"></path>
        <path d="M88.931 65.533a.201.201 0 0 1-.202-.19c0-.009-.054-.95-.85-1.951-.803-1.01-1.326-1.286-1.331-1.289a.198.198 0 0 1-.086-.268.203.203 0 0 1 .271-.086c.024.012.597.306 1.465 1.398.881 1.107.934 2.136.936 2.179a.2.2 0 0 1-.193.207h-.01z" opacity=".6"></path>
        <path d="M88.039 62.249a.198.198 0 0 1-.197-.239c.011-.05.268-1.242.921-2.232.634-.961.975-1.107 1.064-1.129a.203.203 0 0 1 .245.145.198.198 0 0 1-.147.241c.004 0-.273.127-.823.96-.611.926-.862 2.085-.864 2.096a.203.203 0 0 1-.199.158z" opacity=".6"></path>
        <path d="M88.039 70.16a.2.2 0 0 1-.197-.245c.007-.029.178-.727.734-2.069.579-1.399 1.572-1.876 1.614-1.896a.203.203 0 0 1 .269.094.197.197 0 0 1-.095.265c-.009.004-.898.439-1.414 1.687-.542 1.309-.713 2.004-.715 2.011a.2.2 0 0 1-.196.153z" opacity=".6"></path>
        <path d="M110.869 65.16a.202.202 0 0 1-.19-.132c-.004-.012-.456-1.242-.973-2.187-.502-.918-1.575-1.665-1.586-1.673a.196.196 0 0 1-.049-.277.204.204 0 0 1 .281-.049c.047.033 1.163.81 1.71 1.81.531.972.979 2.19.998 2.241a.199.199 0 0 1-.191.267z" opacity=".6"></path>
        <path d="M109.176 68.07a.207.207 0 0 1-.077-.015.197.197 0 0 1-.109-.26c.02-.048.497-1.178 1.153-2.034.688-.897 1.804-1.112 1.851-1.12a.204.204 0 0 1 .236.159.198.198 0 0 1-.161.232c-.01.002-1.011.198-1.603.969-.624.815-1.098 1.935-1.103 1.946a.201.201 0 0 1-.187.123z" opacity=".6"></path>
        <path d="M109.984 71.304a.202.202 0 0 1-.201-.179c0-.007-.081-.746-.582-1.64a9.495 9.495 0 0 0-1.012-1.483.198.198 0 0 1 .02-.281.204.204 0 0 1 .285.02c.021.024.525.599 1.06 1.552.545.97.627 1.76.631 1.794a.2.2 0 0 1-.182.217h-.019z" opacity=".6"></path>
        <path d="M97.504 24.701a.2.2 0 0 1-.202-.205c-.011-.043-.118-.336-1.033-1.031-1.226-.931-1.487-2.232-1.498-2.287a.198.198 0 0 1 .161-.232c.11-.02.216.051.236.158.002.012.248 1.21 1.348 2.046 1.114.846 1.221 1.237 1.185 1.395a.2.2 0 0 1-.197.156z" opacity=".3"></path>
        <path d="m107.206 38.267-.017-.001a.2.2 0 0 1-.185-.214c.004-.045.359-4.542-.365-7.197-.713-2.618-2.127-3.593-2.142-3.602a.198.198 0 0 1-.053-.277.204.204 0 0 1 .281-.052c.063.042 1.553 1.068 2.305 3.828.741 2.722.392 7.145.377 7.332a.2.2 0 0 1-.201.183z" opacity=".3"></path>
        <path d="M107.971 50.042a.198.198 0 0 1-.193-.258c.253-.798-.04-1.577-.379-2.479l-.08-.212c-.257-.69-.004-1.369.38-2.398.217-.583.488-1.308.726-2.213.623-2.371.002-7.165-.005-7.213a.2.2 0 0 1 .174-.223.204.204 0 0 1 .227.172c.026.2.637 4.92-.005 7.364a22.33 22.33 0 0 1-.738 2.25c-.353.946-.586 1.571-.38 2.123l.079.211c.35.93.68 1.809.386 2.736a.2.2 0 0 1-.192.14z" opacity=".3"></path>
        <path d="M110.743 38.267a.201.201 0 0 1-.202-.191c-.001-.032-.137-3.191-.368-4.689-.228-1.478-.559-2.267-.562-2.275a.198.198 0 0 1 .108-.26.202.202 0 0 1 .264.107c.014.033.352.836.589 2.369.235 1.519.368 4.601.373 4.732a.2.2 0 0 1-.194.207h-.008z" opacity=".3"></path>
        <path d="M87.407 29.713a.208.208 0 0 1-.06-.009.197.197 0 0 1-.133-.249c.005-.016.502-1.592 1.339-3.407.853-1.849 2.176-2.854 2.232-2.895a.204.204 0 0 1 .283.038.197.197 0 0 1-.038.279c-.013.01-1.299.99-2.109 2.744a31.61 31.61 0 0 0-1.321 3.36.202.202 0 0 1-.193.139z" opacity=".3"></path>
        <path d="M85.83 52.995a.2.2 0 0 1-.187-.125c-.015-.036-.363-.906-.633-2.766-.267-1.84-.337-2.523-.338-2.529a.2.2 0 0 1 .181-.218c.112-.01.21.069.221.178.001.007.07.683.336 2.513.262 1.805.605 2.666.608 2.674a.198.198 0 0 1-.112.258.21.21 0 0 1-.076.015z" opacity=".3"></path>
        <path d="M87.062 44.533a.198.198 0 0 1-.194-.255c.003-.009.269-.893.439-1.771.176-.91.291-2.722.171-4.424-.122-1.722-.341-2.788-.343-2.799a.199.199 0 0 1 .157-.235.203.203 0 0 1 .238.155c.009.044.227 1.1.351 2.851.123 1.736.004 3.591-.177 4.526a21.138 21.138 0 0 1-.448 1.81.203.203 0 0 1-.194.142z" opacity=".3"></path>
        <path d="m118.026 143.172 2.288-1.63s-1.767-23.449-2.014-23.624c-.247-.175-36.72 1.322-36.72 1.322l.281 2.812 36.165 21.12z" fill="#FFD191" data-color="8" data-darkreader-inline-fill="" style="--darkreader-inline-fill: #ffc97f;"></path>
        <path fill="#FFFFFF" d="m81.941 119.988 35.471-1.05 1.75 22.006-2.333 1.673-36.706-20.519 1.818-2.11z" data-color="4" data-darkreader-inline-fill="" style="--darkreader-inline-fill: #e8e6e3;"></path>
        <path fill="#FFD191" d="m79.329 121.404 36.937-1.126 1.76 22.894-34.729.294-3.968-22.062z" data-color="8" data-darkreader-inline-fill="" style="--darkreader-inline-fill: #ffc97f;"></path>
        <path d="M92.912 140.483c-.174-.092-.319-.259-.449-.458.065.302.125.609.198.911.202.872.764 2.161-.024 2.918-.78.744-1.504.072-2.187-.39-.23.625-.74 1.282-1.459 1.333-.663.048-1.217-.585-1.217-.585s-.158.673-.861.915c-.55.195-1.176-.004-1.403-.573-1.803.056-2.385-3.749-2.688-5.163-.457-2.11-.376-6.094-.339-7.185.004-.179.008-.283.008-.283l-.032-.092-.133-.398-.546-1.624-.117-.346-.012-.032-4.297-12.741 9.782-1.803 1.9 12.236.028.175.057.37.295 1.899.004.02.053.35.044.032c.263.183 1.621 1.15 1.997 1.576.562.645 1.091 1.556 1.229 2.376.408 2.48.198 1.521.821 3.964.116.457.901 3.39-.652 2.598z" fill="#FFA680" data-color="5" data-darkreader-inline-fill="" style="--darkreader-inline-fill: #ff9d73;"></path>
        <path d="M92.288 139.369a.2.2 0 0 1-.193-.142l-1.11-3.616a.199.199 0 0 1 .135-.248.203.203 0 0 1 .252.133l1.11 3.616a.199.199 0 0 1-.135.248.177.177 0 0 1-.059.009z" opacity=".2"></path>
        <path d="M85.574 144.063a.2.2 0 0 1-.195-.148l-.819-3.067a.199.199 0 0 1 .144-.243.203.203 0 0 1 .247.142l.819 3.067a.199.199 0 0 1-.196.249z" opacity=".2"></path>
        <path d="M89.732 141.275a11.37 11.37 0 0 1-2.253.719c-.254.053-.087.638.167.585a11.907 11.907 0 0 0 2.349-.759c.238-.105-.027-.649-.263-.545z" opacity=".7"></path>
        <path d="M90.335 142.953a.2.2 0 0 1-.193-.141l-.678-2.206a.199.199 0 0 1 .135-.248.203.203 0 0 1 .252.133l.678 2.206a.199.199 0 0 1-.194.256z" opacity=".2"></path>
        <path d="M87.776 143.839a.202.202 0 0 1-.195-.146l-.64-2.299a.199.199 0 0 1 .142-.245.203.203 0 0 1 .248.139l.64 2.299a.199.199 0 0 1-.195.252z" opacity=".2"></path>
        <path d="M106.881 143.853c-.788-.755-.227-2.046-.023-2.915.071-.303.132-.609.195-.913-.127.2-.272.369-.445.458-1.553.795-.77-2.142-.654-2.595.624-2.443.413-1.482.824-3.962.136-.82.666-1.734 1.228-2.377.416-.475 2.039-1.61 2.039-1.61s2.695-13.894 2.852-15.429c2.218.482 9.77 1.608 9.77 1.608l-6.013 15.391s.575 5.424.042 7.883c-.306 1.413-.887 5.221-2.688 5.164-.227.569-.853.767-1.405.575-.703-.244-.858-.917-.858-.917s-.557.634-1.217.586c-.72-.052-1.23-.709-1.461-1.333-.683.459-1.406 1.133-2.186.386z" fill="#FFA680" data-color="5" data-darkreader-inline-fill="" style="--darkreader-inline-fill: #ff9d73;"></path>
        <path d="M109.183 142.953a.195.195 0 0 1-.058-.009.199.199 0 0 1-.135-.248l.678-2.206a.203.203 0 0 1 .252-.133.199.199 0 0 1 .135.248l-.678 2.206a.202.202 0 0 1-.194.142z" opacity=".2"></path>
        <path d="M107.231 139.369a.195.195 0 0 1-.058-.009.199.199 0 0 1-.135-.248l1.11-3.616a.203.203 0 0 1 .252-.133.199.199 0 0 1 .135.248l-1.11 3.616a.203.203 0 0 1-.194.142z" opacity=".2"></path>
        <path d="M111.743 143.839a.2.2 0 0 1-.195-.252l.64-2.299a.203.203 0 0 1 .248-.139.2.2 0 0 1 .142.245l-.64 2.299a.202.202 0 0 1-.195.146z" opacity=".2"></path>
        <path d="M113.945 144.063a.18.18 0 0 1-.051-.007.198.198 0 0 1-.144-.243l.819-3.067a.203.203 0 0 1 .247-.142.199.199 0 0 1 .144.243l-.819 3.067a.204.204 0 0 1-.196.149z" opacity=".2"></path>
        <path d="M87.702 116.349s.337 1.791.337 2.057c0 .265-9.566 2.488-9.937 2.189-.371-.299-1.078-2.256-1.078-2.256l10.678-1.99z" fill="#FFFFFF" data-color="4" data-darkreader-inline-fill="" style="--darkreader-inline-fill: #e8e6e3;"></path>
        <path d="M87.931 112.918c-.251-1.413-.504-2.826-.742-4.241-.949-5.644-.899-4.395-1.539-10.081a315.95 315.95 0 0 1-1.903-28.098c-.029-1.271.044-2.593-.218-3.845-.253-1.208-.367-3.544.139-3.625.256-.041.263-1.949.263-1.949s-10.134 3.734-12.366 7.099c-1.231 1.855-1.495 4.115-1.555 6.281-.075 2.741.242 5.478.696 8.178.46 2.735 1.262 5.496 1.027 8.29-.41 4.88-1.352 9.588-1.034 14.509.12 1.868.301 3.57.084 5.44-.207 1.786-.421 3.699.409 5.372.679 1.37 2.094 3.351 3.823 3.172 2.655-.276 5.321-.906 7.953-1.356 1.367-.234 2.735-.461 4.101-.702.706-.124 1.3-.225 1.352-1.033.071-1.098-.299-2.334-.49-3.411z" fill="#F5DED3" data-color="6" data-darkreader-inline-fill="" style="--darkreader-inline-fill: #efc9b7;"></path>
        <path d="M112.359 115.851s-.594 1.444-.328 1.824c.265.38 9.895 2.322 9.895 2.322l1.246-2.554-10.813-1.592z" fill="#FFFFFF" data-color="4" data-darkreader-inline-fill="" style="--darkreader-inline-fill: #e8e6e3;"></path>
        <path d="M128.74 100.828a2.062 2.062 0 0 1 .015-.293c.133-1.098.561-2.042.51-3.198a11.932 11.932 0 0 0-.217-1.706c-.076-.398-.497-1.327-.389-1.698.205-.7.399-1.401.491-2.123.203-1.595-.102-3.188-.426-4.746a48.125 48.125 0 0 1-.32-1.663c.201-1.068.43-2.133.609-3.193.454-2.7.771-5.437.696-8.178-.059-2.166-.324-4.426-1.555-6.281-2.233-3.366-12.773-7.236-12.773-7.236s.414 2.044.67 2.085c.506.08.392 2.417.139 3.625-.262 1.252-.188 2.575-.218 3.845a315.87 315.87 0 0 1-1.903 28.098c-.64 5.686.153 4.446-.796 10.09-.238 1.415-.491 2.828-.742 4.241-.191 1.076-.561 2.313-.491 3.41.052.808.646.909 1.352 1.033 1.366.241 2.734.468 4.101.702 2.631.45 5.297 1.08 7.954 1.356 2.423.251 3.595-1.665 4.012-3.773.334-1.689.388-3.441.452-5.156.089-2.402.287-4.584-.49-6.942-.236-.714-.668-1.496-.681-2.299z" fill="#F5DED3" data-color="6" data-darkreader-inline-fill="" style="--darkreader-inline-fill: #efc9b7;"></path>
        <path d="M87.395 110.436a.2.2 0 0 1-.201-.185c-.002-.028-.204-2.814-.767-4.766-.247-.857-.222-1.94-.196-3.086.036-1.594.077-3.4-.589-5.05-.814-2.017-.872-6.397-.933-11.035-.028-2.114-.057-4.3-.157-6.356-.315-6.469-3.103-12.79-3.131-12.853a.198.198 0 0 1 .104-.262.204.204 0 0 1 .266.102c.028.064 2.846 6.452 3.164 12.994.101 2.063.129 4.253.158 6.37.06 4.6.118 8.945.904 10.893.696 1.725.654 3.574.617 5.206-.025 1.115-.049 2.169.181 2.968.574 1.992.779 4.818.781 4.847a.199.199 0 0 1-.188.212l-.013.001z" opacity=".9"></path>
        <path d="M112.857 109.317h-.008a.2.2 0 0 1-.194-.206c.001-.028.108-2.805.008-5.043-.081-1.817.465-3.758.946-5.471.129-.457.252-.896.356-1.307.339-1.342.456-3.198.591-5.347.056-.897.115-1.825.194-2.778.125-1.503.534-3.006 1.008-4.746.563-2.066 1.201-4.407 1.609-7.544.758-5.817 3.443-10.822 3.47-10.872a.205.205 0 0 1 .274-.082.197.197 0 0 1 .083.269c-.027.049-2.678 4.993-3.426 10.735-.412 3.164-1.054 5.519-1.62 7.596-.469 1.721-.874 3.208-.996 4.675-.079.949-.137 1.875-.193 2.77-.137 2.169-.254 4.042-.602 5.419-.105.415-.229.856-.358 1.317-.473 1.684-1.009 3.593-.931 5.347.1 2.255-.007 5.048-.008 5.075a.203.203 0 0 1-.203.193z" opacity=".9"></path>
        <path d="M106.027 110.436a.202.202 0 0 1-.18-.109.198.198 0 0 1 .088-.268c.03-.015 3.004-1.566 3.387-6.1.397-4.713 3.344-8.622 3.374-8.661a.205.205 0 0 1 .283-.04.198.198 0 0 1 .04.279c-.029.038-2.907 3.859-3.295 8.455-.401 4.766-3.475 6.357-3.606 6.422a.197.197 0 0 1-.091.022z" opacity=".9"></path>
        <path d="M102.321 110.436a.204.204 0 0 1-.147-.062.196.196 0 0 1 .008-.281l4.581-4.271a.204.204 0 0 1 .286.008.196.196 0 0 1-.008.281l-4.581 4.271a.204.204 0 0 1-.139.054z" opacity=".9"></path>
        <path d="M98.454 64.009c-5.152 0-7.704-3.346-7.73-3.38a.197.197 0 0 1 .043-.278.205.205 0 0 1 .283.043c.024.033 2.553 3.305 7.623 3.215 5.09-.096 7.174-2.627 7.194-2.653a.206.206 0 0 1 .284-.034.196.196 0 0 1 .034.279c-.088.11-2.209 2.705-7.504 2.805a8.648 8.648 0 0 1-.227.003z" opacity=".9"></path>
        <path d="M83.96 77.099a.203.203 0 0 1-.19-.13c-.02-.053-1.995-5.298-3.809-7.702-1.798-2.381-3.912-3.378-3.933-3.388a.198.198 0 0 1-.097-.265.203.203 0 0 1 .268-.096c.09.041 2.223 1.045 4.086 3.511 1.849 2.45 3.782 7.584 3.864 7.802a.199.199 0 0 1-.189.268z" opacity=".9"></path>
        <path d="M83.48 116.548h-.003c-.094-.001-2.344-.061-6.228-2.384-3.892-2.329-4.852-4.513-4.891-4.604a.198.198 0 0 1 .108-.26.203.203 0 0 1 .264.106c.009.021.962 2.165 4.728 4.418 3.776 2.259 6.002 2.326 6.025 2.326a.2.2 0 0 1 .198.202.2.2 0 0 1-.201.196z" opacity=".9"></path>
        <path d="M121.589 94.755a.205.205 0 0 1-.166-.085.197.197 0 0 1 .049-.277c.02-.014 1.989-1.399 3.163-4.214 1.214-2.911 2.417-4.137 2.468-4.188a.205.205 0 0 1 .285-.003c.08.077.081.203.003.281-.012.012-1.203 1.23-2.383 4.06-1.221 2.928-3.22 4.33-3.305 4.389a.185.185 0 0 1-.114.037z" opacity=".9"></path>
        <path d="M105.084 142.53h-11.22a.2.2 0 0 1-.202-.199.2.2 0 0 1 .202-.199h11.219a.2.2 0 0 1 .202.199.2.2 0 0 1-.201.199z" opacity=".9"></path>
        <path d="M96.556 113.966c-4.013 0-8.039-.022-8.099-.022a.2.2 0 0 1-.201-.2.201.201 0 0 1 .202-.198h.001c.091.001 9.147.05 13.641 0 4.48-.049 9.42-.819 9.47-.827a.201.201 0 0 1 .232.165.2.2 0 0 1-.168.228c-.05.008-5.019.782-9.529.832a536.42 536.42 0 0 1-5.549.022z" opacity=".9"></path>
        <path d="M91.501 29.106c-.142-.116-.325-.171-.544-.266-.745-.325-1.565-.747-2.407-.665-.665.065-.889.477-.442.988.601.686 1.798 1.122 2.666 1.341.286.072.52.032.741-.192a.866.866 0 0 0 .207-.87.711.711 0 0 0-.221-.336zm-.695.993c-.271-.073-.54-.19-.801-.292-.323-.127-.652-.247-.957-.415-.146-.08-1.087-.688-.633-.794.156-.036.312-.043.469-.021.284.031.558.141.823.238.291.106.581.216.87.327.196.075.722.127.732.39.015.358-.081.681-.503.567z" fill="#AB5855" data-color="1" data-darkreader-inline-fill="" style="--darkreader-inline-fill: #b36966;"></path>
        <path d="M82.484 132.208c.004-.179.008-.283.008-.283l-.032-.092-.133-.398c1.419-1.083 2.918-2.05 4.446-2.969-.287.072-.57.147-.845.227a86.79 86.79 0 0 1-4.147 1.118l-.117-.346-.012-.032a76.465 76.465 0 0 0 3.472-.919c.881-.255 1.932-.454 2.89-.788.34-.199.679-.402 1.023-.601l.028.175.057.37a7.126 7.126 0 0 1-.8.338c-2.001 1.174-3.978 2.384-5.817 3.789 2.389-.454 4.879-.892 6.912-2.229l.004.02.053.35.044.032c-2.099 1.322-4.601 1.768-7.034 2.238z" opacity=".7"></path>
        <path fill="#FFFFFF" d="m99.34 127.021-5.475.216.575 8.904 5.249-.147-.349-8.973z" data-color="4" data-darkreader-inline-fill="" style="--darkreader-inline-fill: #e8e6e3;"></path>
        <path d="M96.923 135.09a.201.201 0 0 1-.202-.187l-.41-6.49a.2.2 0 0 1 .189-.211.196.196 0 0 1 .214.186l.41 6.49a.2.2 0 0 1-.189.211l-.012.001z" opacity=".2"></path>
        <path d="M97.862 133.896a.201.201 0 0 1-.202-.187l-.256-4.304a.203.203 0 0 1 .404-.023l.256 4.304a.2.2 0 0 1-.19.21h-.012z" opacity=".2"></path>
        <path d="M89.91 44.534a3.287 3.287 0 0 0-.189-.871c-.093-.249-.233-.507-.482-.619-.306-.134-.685.013-.901.272-.449.534-.479 1.519-.199 2.131.173.373.572.681.981.615.273-.046.502-.246.628-.485.13-.239.166-.517.17-.786-.002-.083-.002-.172-.008-.257zm-.516.589a.516.516 0 0 1-.352.272c-.233.036-.459-.134-.555-.347-.156-.344-.14-.9.113-1.202.12-.144.332-.229.509-.154.14.062.219.21.273.35.057.157.093.324.103.491.003.049.007.095.007.144a.993.993 0 0 1-.098.446z" fill="#F5DED3" data-color="6" data-darkreader-inline-fill="" style="--darkreader-inline-fill: #efc9b7;"></path>
        <path d="M90.229 48.711c-.001-.005 0-.011-.002-.017-.345-.902-.603-1.994-1.157-2.797-.098-.142-.307-.056-.312.075a23.553 23.553 0 0 0-.667 1.529c-.092.234-.395.825-.407 1.21h2.545z" fill="#FFD191" data-color="8" data-darkreader-inline-fill="" style="--darkreader-inline-fill: #ffc97f;"></path>
        <path d="M107.972 44.534a3.287 3.287 0 0 0-.189-.871c-.093-.249-.233-.507-.482-.619-.306-.134-.685.013-.901.272-.449.534-.479 1.519-.199 2.131.173.373.572.681.981.615.273-.046.502-.246.628-.485.13-.239.166-.517.17-.786-.002-.083-.002-.172-.008-.257zm-.516.589a.516.516 0 0 1-.352.272c-.233.036-.459-.134-.555-.347-.156-.344-.14-.9.113-1.202.12-.144.332-.229.509-.154.14.062.219.21.273.35.056.157.093.324.103.491.003.049.007.095.007.144a.98.98 0 0 1-.098.446z" fill="#F5DED3" data-color="6" data-darkreader-inline-fill="" style="--darkreader-inline-fill: #efc9b7;"></path>
        <path d="M108.291 48.711c-.001-.005 0-.011-.002-.017-.345-.902-.603-1.994-1.157-2.797-.098-.142-.307-.056-.312.075a23.553 23.553 0 0 0-.667 1.529c-.092.234-.395.825-.407 1.21h2.545z" fill="#FFD191" data-color="8" data-darkreader-inline-fill="" style="--darkreader-inline-fill: #ffc97f;"></path>
        <path d="M98.632 86.599c-.079-.108-.18-.254-.337-.167-.087.048-.135.141-.177.23-.336.701-.829 1.337-1.166 2.047-.339.715-.62 1.479-.689 2.271-.069.795.247 1.554.482 2.301l.926 2.945c.048.152.289.209.369.048l1.467-2.956c.331-.668.876-1.437.945-2.198.074-.815-.213-1.636-.556-2.365-.24-.512-.574-.973-.874-1.451-.054-.087-.214-.464-.39-.705zm1.358 4.771c-.194.772-.739 1.557-1.091 2.268l-.997 2.009c-.464-1.344-1.1-2.8-1.22-4.172-.131-1.49.879-3.194 1.706-4.484.803 1.159 1.949 3 1.602 4.379z" fill="#A5B1C7" data-color="3" data-darkreader-inline-fill="" style="--darkreader-inline-fill: #bab4ab;"></path>
        <path d="M97.744 84.858c-.19-.73-.886-.28-1.245.048-.542.494-.92 1.157-1.002 1.887-.087.774.745.978 1.275.545.62-.505 1.181-1.676.972-2.48zm-.493.971c-.122.405-.431 1.058-.828 1.275-.906.494-.274-.979-.168-1.191.114-.228.99-1.543 1.105-.715.024.175-.057.457-.109.631z" fill="#A5B1C7" data-color="3" data-darkreader-inline-fill="" style="--darkreader-inline-fill: #bab4ab;"></path>
        <path d="M100.336 84.611c-.439-.257-1.183-.081-1.235.491-.061.665.166 1.566.64 2.056.541.56 1.253.302 1.383-.432.123-.695-.133-1.732-.788-2.115zm.08 2.375c-.65.116-.902-1.144-.869-1.803.222-.346.461-.392.718-.13l.149.183c.108.158.178.342.232.524.059.198.095.405.096.612.001.305.01.554-.326.614z" fill="#A5B1C7" data-color="3" data-darkreader-inline-fill="" style="--darkreader-inline-fill: #bab4ab;"></path>
        <path d="M95.685 81.253c-.315.253-.615.522-.9.808-.182.183.103.465.286.281.285-.286.585-.555.9-.808.202-.161-.086-.441-.286-.281z" fill="#A5B1C7" data-color="3" data-darkreader-inline-fill="" style="--darkreader-inline-fill: #bab4ab;"></path>
        <path d="M95.395 80.424a4.71 4.71 0 0 0-.721.683c-.167.195.118.478.286.281a4.71 4.71 0 0 1 .721-.683c.205-.157-.083-.437-.286-.281z" fill="#A5B1C7" data-color="3" data-darkreader-inline-fill="" style="--darkreader-inline-fill: #bab4ab;"></path>
        <path d="M104.331 76.237a2.72 2.72 0 0 0-.701-.87c-.199-.163-.486.118-.286.281.271.221.48.48.638.789.117.23.466.029.349-.2z" fill="#A5B1C7" data-color="3" data-darkreader-inline-fill="" style="--darkreader-inline-fill: #bab4ab;"></path>
        <path d="m104.818 75.297-.725-.882c-.164-.199-.448.084-.286.281l.725.882c.164.199.448-.084.286-.281z" fill="#A5B1C7" data-color="3" data-darkreader-inline-fill="" style="--darkreader-inline-fill: #bab4ab;"></path>
    </g>
</svg>