<svg preserveAspectRatio="xMidYMid meet" data-bbox="59 19.999 81.999 160.001" viewBox="59 19.999 81.999 160.001" height="200" width="200" xmlns="http://www.w3.org/2000/svg" data-type="color" role="presentation" aria-hidden="true" aria-label="">
    <g>
        <path fill="#260E04" d="m120.614 21.765-1.135 2.951-.003 1.526 9.824 1.792.396-3.726-9.082-2.543z" data-color="1" data-darkreader-inline-fill="" style="--darkreader-inline-fill: #dbd8d3;"></path>
        <path d="M97.548 60.36s-5.789 6.675-4.904 9.603 7.424 2.18 7.424 2.18l-2.52-11.783z" fill="#FDEBE1" data-color="2" data-darkreader-inline-fill="" style="--darkreader-inline-fill: #fad1ba;"></path>
        <path fill="#8C3C06" d="m111.851 46.738-1.728 1.257-2.427 4.533 3.815 7.696.332-6.71 3.414 5.007 6.051-1.806 5.459.512-2.468-8.189-1.414-2.027-10.557-2.316-.477 2.043z" data-color="3" data-darkreader-inline-fill="" style="--darkreader-inline-fill: #f9a56c;"></path>
        <path d="M128.429 100.319c-.16.072.037-2.732.04-2.907.056-3.37-.722-2.092-.749-2.18-3.619-11.638-7.602.818-11.238 1.635-3.786.851-7.154.15-11.034 0-1.543-.06-3.306-.884-4.768-1.498-.395-.167-.964.414-1.226.136-.176-.186-.475 3.451-.604 3.229-.036.329-.064.658-.084.989a.24.24 0 0 0 .024.124 109.304 109.304 0 0 0-.212 6.498l-.001.522c.001 7.344.648 14.683 1.382 21.988.831 8.258 1.772 16.526 2.01 24.826a53.403 53.403 0 0 0 .015 7.957c.01.127.075.201.188.249.309.13.622.226.938.296.224.05.449.086.675.111.213.023.427.038.642.043.259.007.52.001.781-.012.858-.044 1.721-.181 2.57-.292.362-.048.722-.083 1.08-.106l1.836.034h.014c.078.009.156.016.234.026.347.047.692.095 1.036.122l.017.001c.167.013.333.02.5.019a3.98 3.98 0 0 0 .971-.117l.23.004c.134.002.262-.12.256-.258l-.033-.774a88.65 88.65 0 0 0-.022-.515l-.735-17.405c-.259-6.141-.646-12.306-.156-18.445a71.48 71.48 0 0 1 .531-4.693c.665 6.298 1.221 12.611 1.234 18.948.008 3.919-.329 7.816-.468 11.729-.061 1.724-.068 3.452.052 5.173-.05.041-.081.104-.072.193l.48 4.686c.014.139.024.283.032.43l.03.516c.026.387.068.774.183 1.118.119.353.354.494.642.555.148.032.31.043.479.052l.027.001 1.135.052.613.028 2.896.127h.014l.49.022 1.751.078.324.017c.172.01.344.021.516.029.473.022.947.023 1.41-.074.217-.046.225-.286.109-.417a47.534 47.534 0 0 1-.147-1.838l-.03-.513c-.388-7.695 1.009-15.363 1.683-23.014.75-8.511 1.006-17.069 1.414-25.602.058-1.211.131-2.429.191-3.649l.025-.528c.12-2.58.167-5.168-.121-7.726z" fill="#8C3C06" data-color="3" data-darkreader-inline-fill="" style="--darkreader-inline-fill: #f9a56c;"></path>
        <path d="M83.451 173.584c-1.141-1.294-1.76-2.881-2.148-4.542-.04-.171-.077-.342-.113-.514-.193-.944-.323-1.904-.44-2.842l-.049.014c-.148.039-.339-1.545-.489-1.507-.739.186-1.916-.758-2.656-.579-.828.2-.927 1.174-1.771 1.294-.015.002-.496.815-.511.817-.162.022-.127 1.246-.285 1.235.205.665.336 1.342.428 2.026.032.235.059.471.083.707.094.928.141 1.864.228 2.794a18.472 18.472 0 0 0 .259 1.868c.236 1.187.574 2.426 1.149 3.496.527.981 1.357 1.568 2.422 1.835 1.935.485 4.62.624 5.924-1.223a2.756 2.756 0 0 0 .483-1.267 2.364 2.364 0 0 0-.289-1.488c-.519-.881-1.555-1.365-2.225-2.124z" fill="#F7B090" data-color="4" data-darkreader-inline-fill="" style="--darkreader-inline-fill: #f6a682;"></path>
        <path d="M96.24 168.031a2.602 2.602 0 0 0-.13-.45c-.479-1.224-1.363-2.367-2.091-3.452a67.157 67.157 0 0 0-1.36-1.948 13.389 13.389 0 0 1-.363-.524 5.98 5.98 0 0 1-.305-.523 3.666 3.666 0 0 1-.343-.968c-.283-1.439-.341-2.963-.386-4.434a2.842 2.842 0 0 1-.499.234c-.314.113-.812-1.581-1.15-1.547-.905.092-2.036.66-2.997.341-.166-.055-.196 1.071-.348.996a3.554 3.554 0 0 1-.282.866 8.585 8.585 0 0 1-.229.461c-.282.535-.594 1.063-.727 1.648a9.922 9.922 0 0 0-.13.692 8.622 8.622 0 0 0-.079.73c-.045.719.011 1.452.26 2.064.234.575.596 1.088.926 1.609l1.202 1.899c.661 1.044 1.269 2.237 2.198 3.072.843.757 1.927 1.094 3.027 1.251.907.129 2.082.345 2.95-.052.594-.271.863-.806.897-1.385a2.321 2.321 0 0 0-.041-.58z" fill="#F7B090" data-color="4" data-darkreader-inline-fill="" style="--darkreader-inline-fill: #f6a682;"></path>
        <path d="M80.098 178.545c-1.41-.451-2.403-1.39-3.17-2.532a13.112 13.112 0 0 1-.95-1.709l.01.052c.236 1.187.574 2.426 1.149 3.496.527.981 1.357 1.568 2.422 1.835 1.935.485 4.62.624 5.924-1.223.131-.186.238-.39.32-.605a10.77 10.77 0 0 1-.784.351c-1.565.629-3.259.866-4.921.335z" fill="#FDEBE1" data-color="2" data-darkreader-inline-fill="" style="--darkreader-inline-fill: #fad1ba;"></path>
        <path d="M93.456 169.367c-1.414-.036-2.704-.699-3.74-1.64-2.031-1.845-2.908-4.518-4.356-6.791-.17-.267-.348-.528-.537-.782-.045.718.011 1.452.26 2.064.234.575.596 1.088.926 1.609l1.202 1.899c.661 1.044 1.269 2.237 2.198 3.071.843.758 1.927 1.095 3.027 1.251.907.129 2.082.344 2.95-.052.594-.271.863-.806.897-1.385a5.245 5.245 0 0 1-2.827.756z" fill="#FDEBE1" data-color="2" data-darkreader-inline-fill="" style="--darkreader-inline-fill: #fad1ba;"></path>
        <path d="M80.783 169.047a5.893 5.893 0 0 0-1.721.337c-.317.114-.598.269-.657.642-.033.205.03.427.02.635-.013.262-.087.547-.284.731-.551.513-1.167-.072-1.498-.516a6.67 6.67 0 0 0-1.14-1.184c.094.928.141 1.864.228 2.794a.27.27 0 0 1 .054.085c.213.525.437 1.062.687 1.588.833 1.755 1.954 3.376 3.925 3.937 1.718.489 3.437.129 5-.61.193-.091.384-.188.571-.29a2.364 2.364 0 0 0-.289-1.488c-.521-.881-1.557-1.365-2.227-2.124-1.141-1.294-1.76-2.881-2.148-4.541a6.463 6.463 0 0 0-.521.004z" fill="#FDEBE1" data-color="2" data-darkreader-inline-fill="" style="--darkreader-inline-fill: #fad1ba;"></path>
        <path d="M91.686 161.637a4.093 4.093 0 0 0-.592.066c-.481.092-.934.299-1.421.362-.731.094-1.301-.261-1.613-.919-.373-.788-.477-1.672-.876-2.457-.261-.513-.603-.976-1.034-1.329a3.185 3.185 0 0 0-.393-.276c-.282.535-.594 1.063-.727 1.648a9.922 9.922 0 0 0-.13.692c.168.206.326.418.479.635 1.484 2.11 2.31 4.653 4.02 6.611.948 1.085 2.208 1.994 3.668 2.158a4.725 4.725 0 0 0 2.709-.519 4.71 4.71 0 0 0 .463-.276 2.639 2.639 0 0 0-.13-.451c-.479-1.224-1.363-2.367-2.091-3.452a67.157 67.157 0 0 0-1.36-1.948 13.389 13.389 0 0 1-.363-.524 4.266 4.266 0 0 0-.609-.021z" fill="#FDEBE1" data-color="2" data-darkreader-inline-fill="" style="--darkreader-inline-fill: #fad1ba;"></path>
        <path d="M79.813 168.649c-.622.12-1.573.309-1.841.985-.147.373.088.873-.088 1.205-.35.659-.971-.467-1.197-.731a6.203 6.203 0 0 0-1.268-1.121c.032.235.059.471.083.707a6.67 6.67 0 0 1 1.14 1.184c.331.443.947 1.028 1.498.516.198-.184.272-.469.284-.731.01-.208-.052-.429-.02-.635.06-.373.341-.528.657-.642a5.899 5.899 0 0 1 1.721-.337c.173-.008.347-.01.521-.004-.04-.171-.077-.342-.113-.514a7.405 7.405 0 0 0-1.377.118z" fill="#260E04" data-color="1" data-darkreader-inline-fill="" style="--darkreader-inline-fill: #dbd8d3;"></path>
        <path d="M80.396 178.097c-1.97-.561-3.092-2.182-3.925-3.937a29.739 29.739 0 0 1-.687-1.588.302.302 0 0 0-.054-.085c.057.609.132 1.216.249 1.816.28.594.59 1.174.95 1.709.767 1.142 1.76 2.082 3.17 2.532 1.662.531 3.356.294 4.922-.335.265-.106.527-.224.784-.351a2.8 2.8 0 0 0 .163-.662c-.188.102-.379.199-.571.29-1.564.74-3.283 1.1-5.001.611z" fill="#260E04" data-color="1" data-darkreader-inline-fill="" style="--darkreader-inline-fill: #dbd8d3;"></path>
        <path d="M93.068 168.826c-1.461-.164-2.72-1.073-3.668-2.158-1.71-1.957-2.535-4.5-4.02-6.611a11.595 11.595 0 0 0-.479-.635 8.622 8.622 0 0 0-.079.73c.189.254.367.515.537.782 1.448 2.272 2.326 4.946 4.356 6.791 1.036.941 2.326 1.604 3.74 1.64a5.2 5.2 0 0 0 2.826-.755 2.323 2.323 0 0 0-.043-.58 4.71 4.71 0 0 1-.463.276 4.692 4.692 0 0 1-2.707.52z" fill="#260E04" data-color="1" data-darkreader-inline-fill="" style="--darkreader-inline-fill: #dbd8d3;"></path>
        <path d="M139.172 66.672c-.474-1.704-.906-3.457-1.668-5.06-.744-1.565-1.796-3-2.835-4.377a11.916 11.916 0 0 0-.414-.519 6.216 6.216 0 0 0-.881 2.344c-.051.327-.544.188-.493-.137a6.526 6.526 0 0 1 1.02-2.607c-.877-.939-1.898-1.661-3.195-2.021-1.084-.301-2.208-.37-3.332-.354l-8.94-.484 1.544-1.816-10.443 1.408-3.093 1.381.013-.099a7.055 7.055 0 0 1-.835.301c-1.411.417-2.932.475-4.302.981-.16.059-.318.124-.473.197a5.07 5.07 0 0 0-1.15.732c-1.793 1.53-2.486 3.817-3.334 5.963.087.291.151.587.185.885.062.54.029 1.09-.133 1.638a.26.26 0 0 1-.315.18l-.024-.008.019.456c.205-.197-.086.396-.043.833.081.824-.289 2.862-.284 2.895l.015.091a26.26 26.26 0 0 0 .291 1.556c.027 0 .055.003.086.013 1.811.593 1.377 1.525 2.59 3.005a10.17 10.17 0 0 1 1.922 3.665c.086.305.157.615.213.93.2 1.132.231 2.284.234 3.432.003 1.001.03 2.021-.162 3.008-.403 2.069-.854 2.703-2.18 4.223-.29.332-.311 1.509-.681 1.771.038.04-1.914 2.521-1.907 2.588.089.907.427 2.353.749 3.201.295.777.661 1.872.681 1.907.129.222 1.514.389 1.69.575.262.278.58.511.975.677 1.462.615 3.267.333 4.81.393 3.88.15 7.724.74 11.596.994 3.643.24 7.455.228 10.987-.822.088-.026.175-.054.262-.083.167-.056.332-.118.492-.19.425-.189.818-.44 1.126-.802a3.27 3.27 0 0 0 .591-1.073 5.166 5.166 0 0 0 .212-.83c.316-1.785.346-3.654.475-5.46a636.374 636.374 0 0 0 .726-12.155l.011-.215c.319.348.646.689.987 1.016 1.097 1.053 2.384 2.101 3.835 2.6 1.347.464 2.7.124 3.565-1.041.99-1.333 1.032-3.189 1.042-4.786.022-3.705-.84-7.35-1.827-10.9z" fill="#FDEBE1" data-color="2" data-darkreader-inline-fill="" style="--darkreader-inline-fill: #fad1ba;"></path>
        <path d="M123.925 47.253a.828.828 0 0 0-.589.004c-.115.197-.278.328-.523.254a.49.49 0 0 1-.091-.039c-.418-.232-.528-1.094-.611-1.479a7.773 7.773 0 0 1-.136-2.415c.027-.272.049-.562-.07-.728-.085-.119-.24-.175-.519-.115-.311.067-.619.146-.931.209-.049.01-.098.021-.147.029-1.429.257-2.905.294-4.331-.006a8.378 8.378 0 0 1-1.992-.688c-.268-.133-.646-.38-1.028-.529a1.562 1.562 0 0 0-.545-.123.717.717 0 0 0-.624.32.252.252 0 0 1-.061.061l-.005.004a16.053 16.053 0 0 0-.796 3.202.746.746 0 0 0-.436-.243c-.414-.067-.77.243-.887.629-.162.536.027 1.279.207 1.784.08.223.184.426.314.609a2.147 2.147 0 0 0 .594.57c.047.03.094.042.138.04a12.515 12.515 0 0 0 1.067 3.97l-.016.018a.242.242 0 0 0-.061.163 37.199 37.199 0 0 0 .062 2.705l.009.139c.007.119.013.238.022.357a2.201 2.201 0 0 0-.355-.066c-.048-.005-.098-.007-.147-.01a4.603 4.603 0 0 1 1.553 2.03l.363.429c.132.156.267.312.404.463.681.748 1.441 1.371 2.489 1.32 1.088-.052 1.963-.649 2.792-1.346.31-.261.614-.537.92-.803a7.826 7.826 0 0 0-.122.284 4.332 4.332 0 0 1 1.472-1.544c-.044.011-.087.021-.13.034a.494.494 0 0 0-.036.011c-.03.009-.061.017-.091.027-.015-.162-.033-.324-.051-.486l-.003-.028c-.02-.181-.042-.363-.065-.544a26.134 26.134 0 0 0-.519-1.944c.137-.145.271-.291.401-.435l.16-.178c.561-.873.992-1.818 1.353-2.794.014.001.027.002.042.001a2.284 2.284 0 0 0 1.624-.826 2.09 2.09 0 0 0 .307-.516c.09-.218.148-.456.162-.71.023-.435-.088-.905-.537-1.071z" fill="#F7B090" data-color="4" data-darkreader-inline-fill="" style="--darkreader-inline-fill: #f6a682;"></path>
        <path fill="#F7B090" d="m111.034 38.701.034 5.688 5.891 3.916 5.853-.793.523-.255.64-4.81-8.105-5.04-4.836 1.294z" data-color="4" data-darkreader-inline-fill="" style="--darkreader-inline-fill: #f6a682;"></path>
        <path d="M129.144 37.452c-.756-1.196-1.988-2.36-2.392-3.76a3.49 3.49 0 0 1-.103-.477l-.004-.031a3.162 3.162 0 0 1-.024-.535l-.074.041c.026-.023.05-.049.075-.073.264-.253.481-.557.675-.888.34-.582.674-1.181.974-1.797.706.385 1.645-.22 1.651-1.038a.93.93 0 0 0-.265-.659c.324-1.417.574-3.046.267-4.486-.276-1.294-1.415-2.171-2.421-2.915-.525-.388-1.099-.695-1.75-.792-.79-.118-1.576.039-2.363.111-.644.059-1.32.004-1.947.192-.604.182-1.023.596-1.33 1.138-.768 1.358-1.426 3.044-.966 4.606a.777.777 0 0 0-.781.387c-.442.769.311 1.436.889 1.809.076.049.149.05.211.025.022.527.074 1.055.177 1.568a6.897 6.897 0 0 0-3.034 1.177c-.78-.212-1.622-.233-2.326.173a2.335 2.335 0 0 0-.385.281 9.051 9.051 0 0 0-3.093 1.171c-.946.578-2.026 1.387-2.473 2.443-.429 1.014.033 2.11.664 2.925.379.49.842.897 1.363 1.21.066.555.23 1.109.436 1.642a8.65 8.65 0 0 0 .114 3.124c.028.129.09.22.17.281.156-.778.371-1.545.641-2.293l.005-.004a.252.252 0 0 0 .061-.061.721.721 0 0 1 .624-.32c.175.002.36.051.545.123.382.149.76.397 1.028.529a8.378 8.378 0 0 0 1.992.688c1.426.3 2.901.263 4.331.006l.147-.029c.312-.063.62-.142.931-.209.279-.06.435-.004.519.115.118.166.097.455.07.728a7.776 7.776 0 0 0 .136 2.415c.083.385.193 1.247.611 1.479a.49.49 0 0 0 .091.039c.245.074.408-.057.523-.254.075-.128.13-.284.175-.43.161.188.416.279.746.202l.046-.013a4.326 4.326 0 0 0 3.378-.399c1.464-.85 2.146-2.406 2.356-4.036.23-1.772.079-3.595-.891-5.129zm-3.33-3.88a7.282 7.282 0 0 1-1.146.331l-.961.349.961-.349a7.282 7.282 0 0 0 1.146-.331zm-3.369.41-.273-.562-.023-.047.023.047.273.562z" fill="#FDEBE1" data-color="2" data-darkreader-inline-fill="" style="--darkreader-inline-fill: #fad1ba;"></path>
        <path d="M129.925 23.75c-.276-1.294-1.415-2.171-2.421-2.915-.525-.388-1.099-.695-1.75-.792-.79-.118-1.576.039-2.363.111-.644.059-1.32.004-1.947.192-.604.182-1.023.596-1.33 1.138-.768 1.358-1.426 3.044-.966 4.606a.777.777 0 0 0-.781.387c-.442.769.311 1.436.889 1.809.076.049.149.05.211.025.022.527.074 1.055.177 1.568.034.17.074.338.12.504.14.5.338.981.619 1.429.259.413.583.773.955 1.063.247.193.514.353.799.475l.034.071a297.807 297.807 0 0 0 .574 1.181l1.923-.699a7.324 7.324 0 0 0 1.981-.688l-.004-.031a3.162 3.162 0 0 1-.024-.535l-.074.041c.026-.023.05-.049.075-.073.264-.253.481-.557.675-.888.34-.582.674-1.181.974-1.797.706.385 1.645-.22 1.651-1.038a.93.93 0 0 0-.265-.659c.326-1.416.575-3.046.268-4.485z" fill="#F7B090" data-color="4" data-darkreader-inline-fill="" style="--darkreader-inline-fill: #f6a682;"></path>
        <path d="M96.561 94.554a.289.289 0 0 0-.194-.125 3.197 3.197 0 0 1-.309.382c-.054.056-.11.109-.168.157-.193.158-.462.207-.666.102a.474.474 0 0 1-.253-.344c-.422.388-.862.593-1.084.049-.077-.189-.039-.394.047-.593-.3.285-.778.776-1.169.339-.332-.371-.038-.944.182-1.342l-.108.076c-.335.229-.958.364-.934-.265.011-.299.267-.591.423-.822a11.958 11.958 0 0 1 .913-1.178l-3.507-.476-.8-.108-.569-.077-.326-.044c-.433-.059-.901-.081-1.306-.259l-.018-.009a1.73 1.73 0 0 1-.587-.443c-.259-.294-.44-.663-.591-1.031a13.603 13.603 0 0 1-.788-2.699c-.338-1.823-.348-3.695-.139-5.534.108-.947.346-1.888.404-2.839.034-.554-.022-1.099-.263-1.604-.159-.335-.365-.646-.515-.986-.335-.755-.155-1.358.053-2.116.177-.646-.026-1.126-.392-1.527-.225-.246-.511-.463-.809-.67-.123-.086-.136-.225-.088-.334a.276.276 0 0 1 .038-.122 25.236 25.236 0 0 0-4.834-2.305l-.128.501a60.646 60.646 0 0 1-1.894 5.983c-.146.389-.255.872-.501 1.208-.363.497-.821-.251-1.061-.522a95.92 95.92 0 0 1-5.69-7.09l-.307-.422-.477.211c-.48.215-.957.44-1.427.677a25.08 25.08 0 0 0-.461.239c-1.037.552-2.031 1.178-2.94 1.933-.991.824-1.856 1.813-2.477 2.951-.713 1.306-1.106 2.762-1.361 4.223-.571 3.263-.515 6.589-.418 9.888.095 3.235.26 6.519 1.167 9.644.672 2.319 1.774 4.548 3.387 6.335.051.057.102.115.154.171a30.056 30.056 0 0 0 1.711 3.875c.845 1.595 1.812 3.39 3.22 4.556.311.258.644.465.992.634.172.083.348.157.527.221 1.029.368 2.162.436 3.269.358 1.927-.134 3.857-.531 5.714-1.057a32.347 32.347 0 0 0 5.876-2.32c-.02-.181-.042-.362-.066-.542-.045-.341-.094-.681-.14-1.016l-.619-4.586a.273.273 0 0 1 0-.07c-1.104-.112-2.228-.027-3.331.066-.029-.169-.054-.339-.079-.509a20.05 20.05 0 0 1-.134-4.482.17.17 0 0 0-.003-.045c.939.268 1.919.519 2.894.353.149-.025.297-.061.443-.106a2.78 2.78 0 0 0 .569-.244c.112-.064.22-.137.32-.219.306-.251.523-.587.79-.876.559-.604 1.299-.868 2.093-.995a15.824 15.824 0 0 1 2.749-.197c.625.01 1.351.117 1.624.77.252.603-.167 1.12-.748 1.256-.342.081-.686.002-1.031.013-.256.008-1.182.325-.396.691.222.104.53.03.766.043.272.015.565.116.773.289a.723.723 0 0 1 .266.44.74.74 0 0 1-.044.38.265.265 0 0 1-.315.18c-.581-.107-.645.443-.416.814.045.073.115.132.156.209a.58.58 0 0 1 .048.49c-.078.212-.249.294-.438.391-.35.18-.406.37-.443.755-.014.146-.027.291-.05.43l.233 1.166a.277.277 0 0 1-.001.115l.004.049c.026.274.043.548.055.822a.457.457 0 0 0 .095-.031 4.023 4.023 0 0 0 1.906-1.911c.108-.225.198-.462.268-.709l.019-.064c.243-.909.219-1.844.106-2.77a.742.742 0 0 1-.181-.167.52.52 0 0 1-.021-.632.479.479 0 0 1-.068-.067l.129-.082c.102-.066.204-.133.305-.201 1.608-1.084 3.035-2.465 3.429-4.458a.249.249 0 0 0-.034-.193zm-25.659 10.693c1.206-.193 2.4-.493 3.601-.681-1.201.188-2.396.488-3.601.681zm9.277-6.078a.227.227 0 0 1-.057-.101c.021.004.041.009.062.012l-.005.089z" fill="#391E15" data-color="5" data-darkreader-inline-fill="" style="--darkreader-inline-fill: #cfcbc5;"></path>
        <path d="M99.332 94.156c-.322-.849-.556-1.694-.646-2.602a.27.27 0 0 0-.071-.159 1.39 1.39 0 0 1-.435.211 1.026 1.026 0 0 1-.47.01 1.144 1.144 0 0 1-.199-.059c-.026-.01-.051-.022-.077-.033-.451-.193-.864-.514-1.276-.773l-1.04-.654c-.197-.11-.392-.224-.583-.343-.462.38-.896.791-1.293 1.238l-3.507-.476-.8-.108-.569-.077-.326-.044c-.433-.059-.901-.081-1.306-.259l-.018-.009a1.73 1.73 0 0 1-.587-.443l.001.015c.113.803.303 1.584.569 2.346a31.433 31.433 0 0 1 1.204-1.517c.123-.145.292-.086.376.037a.264.264 0 0 1-.014.328 29.23 29.23 0 0 0-1.512 1.944c-1.241 1.962-2.291 4.035-2.71 6.341a3.436 3.436 0 0 1-.443.106c-.975.166-1.955-.085-2.894-.353.003.015.004.031.003.045-.013.16-.022.321-.032.481a20.05 20.05 0 0 0 .245 4.51c1.103-.093 2.227-.178 3.331-.066a8.85 8.85 0 0 1 .877.134c.721.153 1.36.455 2.032.747.524.229 1.08.417 1.659.349.422-.05.839-.218 1.135-.531l.023-.023c.21-.231.292-.496.338-.779.022-.139.035-.283.05-.43.038-.385.093-.575.443-.755.188-.097.36-.178.438-.391a.58.58 0 0 0-.048-.49c-.041-.077-.111-.136-.156-.209-.229-.371-.165-.921.416-.814.146.027.262-.04.315-.18a.74.74 0 0 0 .044-.38l.334-.194c.194-.115.387-.233.58-.354.02.024.043.046.068.067a.522.522 0 0 0 .021.632.725.725 0 0 0 .181.167.8.8 0 0 0 .205.095c.159.048.331.08.509.1.465.053.977.023 1.44-.025.143-.015.282-.031.413-.048.676-.086 1.335-.272 1.932-.609.579-.328.99-.748 1.29-1.237.032-.052.061-.106.091-.159a4.32 4.32 0 0 0 .188-.387c.069-.162.128-.331.183-.503.017-.054.036-.107.052-.162a10.576 10.576 0 0 0 .218-.964c.142-.823.103-1.527-.192-2.304z" fill="#7F442D" data-color="6" data-darkreader-inline-fill="" style="--darkreader-inline-fill: #d29780;"></path>
        <path fill="#391E15" d="m82.155 69.759 3.746 1.431 14.981 7.455-1.291 10.73-1.393 2.399-15.975-.901-.068-21.114z" data-color="5" data-darkreader-inline-fill="" style="--darkreader-inline-fill: #cfcbc5;"></path>
        <path d="M92.878 103.187c-.07.247-.671-.416-.779-.191-.4.831-.695 1.45-1.548 1.856-.032.015.09.979.058.986.059 1.306-5.631 3.557-5.736 2.606-1.88.96-3.458 1.151-5.488 1.727-1.857.527-3.975 1.41-5.903 1.544-1.107.077-2.421-.267-3.451-.636-.179-.064-.167 1.804-.34 1.721l1.359 18.861c.493 6.847.974 13.695 1.482 20.541.273 3.678.586 7.354 1.071 11.01l.032.249-.108.387-.014.051a1.288 1.288 0 0 0-.154.666c.01.327.137.637.253.938.117.301.2.633.376.906.239.372.604.523 1.001.552.158.011.32.003.482-.019l.045-.007c.844-.12 1.685-.388 2.512-.589.741-.179 1.486-.346 2.225-.532.149-.037.298-.074.447-.114l.049-.014c.486-.138.964-.411.889-1.001-.077-.602-.685-1.252-1.115-1.643l-.054-.045a29.071 29.071 0 0 1-.116-1.036c-.46-4.755.111-9.552.689-14.278a573.882 573.882 0 0 1 2.732-19.528l.011.257.127 2.854.584 13.118.21 4.708c.063 1.407.055 2.845.173 4.253.015.174.031.348.05.521l.003.03c.102.927.628 1.509 1.336 1.86.151.075.312.139.477.194.961.32 2.124.323 3.029.231.338-.034.675-.102.989-.215.175-.063.343-.14.499-.234.361-.217.662-.522.854-.946.174-.385.239-.805.283-1.225l.042-.431.008-.084.233-2.364.945-9.589c.628-6.368 1.428-12.749 1.73-19.143.302-6.34-.116-12.825-2.479-18.763z" fill="#FDEBE1" data-color="2" data-darkreader-inline-fill="" style="--darkreader-inline-fill: #fad1ba;"></path>
        <path d="M96.561 94.554a.289.289 0 0 0-.194-.125 3.197 3.197 0 0 1-.309.382c-.054.056-.11.109-.168.157-.193.158-.462.207-.666.102a.474.474 0 0 1-.253-.344c-.422.388-.862.593-1.084.049-.077-.189-.039-.394.047-.593-.3.285-.778.776-1.169.339-.332-.371-.038-.944.182-1.342l-.108.076c-.335.229-.958.364-.934-.265.011-.299.267-.591.423-.822a11.958 11.958 0 0 1 .913-1.178l-3.507-.476-.8-.108-.569-.077-.326-.044c-.433-.059-.901-.081-1.306-.259l-.018-.009a1.73 1.73 0 0 1-.587-.443c-.259-.294-.44-.663-.591-1.031a13.603 13.603 0 0 1-.788-2.699c-.338-1.823-.348-3.695-.139-5.534.108-.947.346-1.888.404-2.839.034-.554-.022-1.099-.263-1.604-.159-.335-.365-.646-.515-.986-.335-.755-.155-1.358.053-2.116.177-.646-.026-1.126-.392-1.527-.225-.246-.511-.463-.809-.67-.123-.086-.136-.225-.088-.334a.276.276 0 0 1 .038-.122 25.236 25.236 0 0 0-4.834-2.305l-.128.501a60.646 60.646 0 0 1-1.894 5.983c-.146.389-.255.872-.501 1.208-.363.497-.821-.251-1.061-.522a95.92 95.92 0 0 1-5.69-7.09l-.307-.422-.477.211c-.48.215-.957.44-1.427.677a25.08 25.08 0 0 0-.461.239c-1.037.552-2.031 1.178-2.94 1.933-.991.824-1.856 1.813-2.477 2.951-.713 1.306-1.106 2.762-1.361 4.223-.571 3.263-.515 6.589-.418 9.888.095 3.235.26 6.519 1.167 9.644.672 2.319 1.774 4.548 3.387 6.335.051.057.102.115.154.171a30.056 30.056 0 0 0 1.711 3.875c.845 1.595 1.812 3.39 3.22 4.556.311.258.644.465.992.634.172.083.348.157.527.221 1.029.368 2.162.436 3.269.358 1.927-.134 3.857-.531 5.714-1.057a32.347 32.347 0 0 0 5.876-2.32c-.02-.181-.042-.362-.066-.542-.045-.341-.094-.681-.14-1.016l-.619-4.586a.273.273 0 0 1 0-.07c-1.104-.112-2.228-.027-3.331.066-.029-.169-.054-.339-.079-.509a20.05 20.05 0 0 1-.134-4.482.17.17 0 0 0-.003-.045c.939.268 1.919.519 2.894.353.149-.025.297-.061.443-.106a2.78 2.78 0 0 0 .569-.244c.112-.064.22-.137.32-.219.306-.251.523-.587.79-.876.559-.604 1.299-.868 2.093-.995a15.824 15.824 0 0 1 2.749-.197c.625.01 1.351.117 1.624.77.252.603-.167 1.12-.748 1.256-.342.081-.686.002-1.031.013-.256.008-1.182.325-.396.691.222.104.53.03.766.043.272.015.565.116.773.289a.723.723 0 0 1 .266.44.74.74 0 0 1-.044.38.265.265 0 0 1-.315.18c-.581-.107-.645.443-.416.814.045.073.115.132.156.209a.58.58 0 0 1 .048.49c-.078.212-.249.294-.438.391-.35.18-.406.37-.443.755-.014.146-.027.291-.05.43l.233 1.166a.277.277 0 0 1-.001.115l.004.049c.026.274.043.548.055.822a.457.457 0 0 0 .095-.031 4.023 4.023 0 0 0 1.906-1.911c.108-.225.198-.462.268-.709l.019-.064c.243-.909.219-1.844.106-2.77a.742.742 0 0 1-.181-.167.52.52 0 0 1-.021-.632.479.479 0 0 1-.068-.067l.129-.082c.102-.066.204-.133.305-.201 1.608-1.084 3.035-2.465 3.429-4.458a.249.249 0 0 0-.034-.193zm-25.659 10.693c1.206-.193 2.4-.493 3.601-.681-1.201.188-2.396.488-3.601.681zm9.277-6.078a.227.227 0 0 1-.057-.101c.021.004.041.009.062.012l-.005.089z" fill="#391E15" data-color="5" data-darkreader-inline-fill="" style="--darkreader-inline-fill: #cfcbc5;"></path>
        <path d="M81.342 53.924c-.577-2.219-1.882-4.382-3.952-5.466-2.142-1.123-4.767-.957-6.899.103-2.127 1.057-3.728 3.008-4.711 5.149-1.308 2.851-1.558 6.04-1.469 9.14a.285.285 0 0 0 .095.199.257.257 0 0 0 .213.144l5.467.479.326.029-.032.26a52.695 52.695 0 0 0-.237 3.25c.165.085.333.162.502.233 2.029.846 4.712.889 6.607-.272.191-.117.047-1.05.229-1.188l.237-1.862.054-.421a.254.254 0 0 0 .07-.009l.451-.12 2.816-.753c.077-.021.167-.095.179-.18.385-2.873.796-5.863.054-8.715z" fill="#F7B090" data-color="4" data-darkreader-inline-fill="" style="--darkreader-inline-fill: #f6a682;"></path>
        <path d="M73.846 75.617c.24.271 1.203 2.336 1.567 1.839.246-.336 1.693-2.131 1.839-2.52.344-.916 1.132-2.201 1.43-3.133.34-1.061.673-1.238.954-2.316.043-.167-.989-1.337-.947-1.504-.304-.107-1.093-.386-1.4-.481l.106-.833.087-.685a6.876 6.876 0 0 1-7.308.622l-.01.207-.395.165c-.381.159-.763.321-1.144.487.102.141-1.214.724-1.112.865 1.784 2.451 4.324 5.016 6.333 7.287z" fill="#FDEBE1" data-color="2" data-darkreader-inline-fill="" style="--darkreader-inline-fill: #fad1ba;"></path>
        <path d="M103.166 82.253c-.003-1.147-.034-2.3-.234-3.432a9.715 9.715 0 0 0-.416-1.566 10.173 10.173 0 0 0-1.719-3.029 10.064 10.064 0 0 0-4.64-3.182c-.016-.005-.029-.004-.044-.006l-1.768-.893-5.335-1.249-.946.221-.011-.029a9.26 9.26 0 0 0-.472-.017c-.769-.01-1.546.068-2.303.169-.781.104-1.539.303-2.172.794a.275.275 0 0 0-.106.2.264.264 0 0 0 .088.334c.298.207.584.424.809.67.366.401.569.881.392 1.527-.208.758-.388 1.361-.053 2.116.151.34.356.651.515.986.24.505.297 1.049.263 1.604-.058.951-.296 1.892-.404 2.839-.209 1.839-.199 3.711.139 5.534.171.924.43 1.831.788 2.699.151.368.332.737.591 1.031.161.183.353.337.587.443l.018.009c.405.178.873.2 1.306.259l.326.044.569.077.8.108 3.507.476a11.46 11.46 0 0 1 1.293-1.238c.192.119.387.233.583.343l1.04.654c.412.259.826.58 1.276.773.026.011.051.023.077.033a1.144 1.144 0 0 0 .429.082 1 1 0 0 0 .32-.057 1.39 1.39 0 0 0 .355-.187c.37-.262.679-.687.969-1.018 1.326-1.519 3.017-3.048 3.42-5.117.192-.985.165-2.004.163-3.005zm-5.526 1.896c-.241.399-.635.385-.992.611-.524.331-.599 1.064-.754 1.608-.144.508-.408.857-.673 1.299-.35.583-.22 1.222-.066 1.846l.005.019a16.694 16.694 0 0 1-.61-.378c-.062-.326-.096-.657-.049-.985.069-.486.33-.803.586-1.203.507-.793.378-1.918 1.163-2.549.405-.325 1.198-.318 1.018-1.054-.154-.629-.922-.886-1.439-1.111-.791-.344-1.56-.819-1.909-1.648-.127-.302.314-.564.442-.26.471 1.118 1.614 1.283 2.541 1.851.644.395 1.188 1.204.737 1.954z" fill="#BFCABF" data-color="7" data-darkreader-inline-fill="" style="--darkreader-inline-fill: #c3beb6;"></path>
        <path d="M96.787 65.607c.108-.697.111-2.008.057-2.477-.034-.299-.23-1.117-.318-1.407-.247-.822-.849-.819-1.346-1.511-.376-.524-.869-1-1.558-.92-.194.023-.375.098-.567.13-.342.057-.673.007-1.01-.049-.413-.068-.822-.157-1.241-.178-1.591-.08-2.978 1.239-3.852 2.462-.44.615-.731 1.354-.677 2.122.059.837.475 1.585.883 2.297a.238.238 0 0 0 .181.123l.063.268c-.491-.086-1.031.285-1.116.844-.139.911.789 1.467 1.585 1.374a.268.268 0 0 0 .059-.013c.038.141.078.282.124.421.059.181.126.357.205.529.094.204.204.401.339.586.258.352.601.692.994.988a.244.244 0 0 0-.089.261l.109.448.079.325c.044-.005.09 0 .138.021.159.07.312.167.462.28.884.665 1.658 1.878 2.822 1.269.978-.512 1.841-1.438 2.535-2.326.075-.095.148-.191.218-.285.034-.085.106-.151.206-.153a25.04 25.04 0 0 1-.291-1.556l-.015-.091a.252.252 0 0 0-.029-.084c.163-.492.26-.999.314-1.512.854.366 1.361-.163 1.316-1.752-.007-.228-.283-.372-.58-.434zm-1.413 4.54.001-.002c.001.001 0 .002-.001.002zm.719-4.49c0 .001 0 .001 0 0zm-.019-.456c.004.001.007.112.009.224l-.009-.224z" fill="#F7B090" data-color="4" data-darkreader-inline-fill="" style="--darkreader-inline-fill: #f6a682;"></path>
        <path d="M112.999 163.374c-.126-.433-.385-1.307-.501-1.735-.166.001-.545-.238-.521.47-.344-.027-5.912-.829-6.77-.784a9.696 9.696 0 0 1-.781.012c-.215-.005-.429.98-.642.957l-.303.354a138.321 138.321 0 0 0-4.027 4.98c-.758.976-1.769 2.606-1.513 3.944.037.192.099.378.192.555.137.258.338.498.619.709.828.624 1.932.512 2.849.175 1.07-.394 2.097-.969 3.063-1.573a21.905 21.905 0 0 0 2.722-2.012c.876-.759 1.631-1.642 2.497-2.41.911-.808 2.35-1.161 2.964-2.276.116-.211.187-.433.213-.66.021-.188.01-.379-.031-.571a1.09 1.09 0 0 0-.03-.135z" fill="#F7B090" data-color="4" data-darkreader-inline-fill="" style="--darkreader-inline-fill: #f6a682;"></path>
        <path d="M126.085 170.85a5.594 5.594 0 0 0-.185-.877c-.345-1.177-.945-2.26-1.333-3.422a16.1 16.1 0 0 1-.672-2.87c-.028-.001.314-.828-.057-.885-1.887-.288-7.925-.359-8.241-.375-.009 0 .202.885.054.853-.143.964-.26 1.941-.164 2.913a.15.15 0 0 1 .002.021c.102.983.457 1.877.881 2.76l.054.111a63.07 63.07 0 0 0 1.576 3.046c.416.755.854 1.525 1.466 2.139 1.38 1.383 3.364 1.26 4.962.306 1.154-.689 1.664-1.788 1.694-2.988a4.646 4.646 0 0 0-.037-.732z" fill="#F7B090" data-color="4" data-darkreader-inline-fill="" style="--darkreader-inline-fill: #f6a682;"></path>
        <path d="M109.257 166.325c-1.411.916-2.679 1.98-3.984 3.037-1.225.992-2.508 1.731-4.024 2.173-.794.231-1.626.463-2.446.576l-.009.001c-.222.03-.444.038-.659.015.137.258.338.498.619.709.828.623 1.933.512 2.849.174 1.07-.394 2.097-.969 3.063-1.573a21.905 21.905 0 0 0 2.722-2.012c.876-.759 1.631-1.642 2.497-2.41.911-.808 2.35-1.161 2.964-2.276.116-.211.187-.433.213-.66l-.623.348a58.273 58.273 0 0 0-3.182 1.898z" fill="#260E04" data-color="1" data-darkreader-inline-fill="" style="--darkreader-inline-fill: #dbd8d3;"></path>
        <path d="M125.063 172.48c-1.248.84-3.032 1.562-4.552 1.255-.562-.114-1.035-.414-1.448-.809-.771-.738-1.333-1.809-1.869-2.628-.263-.402-.52-.807-.768-1.218a63.539 63.539 0 0 0 1.576 3.046c.416.755.854 1.525 1.466 2.139 1.38 1.383 3.364 1.261 4.962.306 1.154-.689 1.664-1.788 1.694-2.988a6.415 6.415 0 0 1-1.061.897z" fill="#260E04" data-color="1" data-darkreader-inline-fill="" style="--darkreader-inline-fill: #dbd8d3;"></path>
        <path d="m123.055 163.635-1.751-.078c-.313 1.021-.456 2.183-1.673 2.389-1.529.259-1.655-1.605-2.339-2.566-.378-.017-.757-.033-1.135-.052l-.027-.001a2.99 2.99 0 0 1-.479-.052c-.143.964-.26 1.941-.164 2.913a.15.15 0 0 1 .002.021c.389.888.851 1.741 1.352 2.571.145.241.293.481.444.718.411.645.838 1.279 1.268 1.911.431.634.87 1.337 1.59 1.666 1.354.621 3.192-.144 4.372-.857a6.131 6.131 0 0 0 1.125-.871c.159-.157.307-.323.444-.497a5.618 5.618 0 0 0-.185-.877c-.345-1.176-.945-2.26-1.333-3.422a16.08 16.08 0 0 1-.672-2.87c-.172-.008-.345-.019-.516-.029a33.175 33.175 0 0 0-.323-.017z" fill="#260E04" data-color="1" data-darkreader-inline-fill="" style="--darkreader-inline-fill: #dbd8d3;"></path>
        <path d="M111.979 162.114c-.676.166-1.338.387-1.978.669-.472.208-.931.449-1.372.716-.38.23-.75.506-1.18.638-.808.248-1.339-.118-1.786-.762-.376-.54-.905-.735-1.476-.763a3.984 3.984 0 0 0-.704.035 138.321 138.321 0 0 0-4.027 4.98c-.757.976-1.769 2.606-1.513 3.943.19.057.395.07.604.057.442-.028.906-.172 1.301-.265.725-.171 1.45-.355 2.149-.615 1.476-.548 2.661-1.533 3.854-2.535 2.073-1.74 4.364-3.124 6.709-4.442l.47-.263c-.01-.045-.019-.09-.033-.135-.126-.433-.388-.817-.504-1.244a5.984 5.984 0 0 1-.5-.019c-.004.003-.009.004-.014.005z" fill="#260E04" data-color="1" data-darkreader-inline-fill="" style="--darkreader-inline-fill: #dbd8d3;"></path>
        <path d="M124.516 172.219c-1.18.713-3.018 1.478-4.372.857-.72-.33-1.159-1.032-1.59-1.666a79.029 79.029 0 0 1-1.268-1.911 32.963 32.963 0 0 1-.444-.718 22.324 22.324 0 0 1-1.352-2.571c.101.983.457 1.877.881 2.76l.054.111c.248.411.505.816.768 1.218.537.819 1.098 1.89 1.869 2.628.413.395.886.695 1.448.809 1.52.307 3.304-.415 4.552-1.255a6.498 6.498 0 0 0 1.061-.897 4.91 4.91 0 0 0-.039-.733 5.507 5.507 0 0 1-.444.497 6.091 6.091 0 0 1-1.124.871z" fill="#FDEBE1" data-color="2" data-darkreader-inline-fill="" style="--darkreader-inline-fill: #fad1ba;"></path>
        <path d="M105.851 168.214c-1.194 1.002-2.378 1.987-3.854 2.535-.7.26-1.424.444-2.149.615-.395.093-.859.238-1.301.265a1.73 1.73 0 0 1-.604-.057c.037.192.099.378.192.555.215.023.437.015.659-.015l.009-.001c.82-.113 1.652-.345 2.446-.576 1.516-.442 2.799-1.181 4.024-2.173 1.305-1.057 2.572-2.121 3.984-3.037a58 58 0 0 1 3.182-1.897c.208-.117.415-.233.623-.348.021-.188.01-.379-.031-.571l-.47.263c-2.345 1.318-4.636 2.702-6.71 4.442z" fill="#FDEBE1" data-color="2" data-darkreader-inline-fill="" style="--darkreader-inline-fill: #fad1ba;"></path>
        <path d="M122.368 50.38a.287.287 0 0 1-.042-.001c-.361.976-.792 1.921-1.353 2.794l-.16.178c-.13.144-.264.29-.401.435a26.386 26.386 0 0 1 .519 1.943c.023.181.045.362.065.544l.003.028c.018.162.036.324.051.486.03-.01.061-.018.091-.027l.036-.011c.043-.013.087-.023.13-.034a3.97 3.97 0 0 1 1.508-.095c.409.054.801.165 1.176.338.432.199.795.593 1.245.738.743.24.6-.654.776-1.087a.993.993 0 0 1 .099-.184.67.67 0 0 1 .341-.274.684.684 0 0 1 .132-.029 20.774 20.774 0 0 0-.402-2.138 21.035 21.035 0 0 0-1.885-4.947 2.11 2.11 0 0 1-.307.516 2.263 2.263 0 0 1-1.622.827z" fill="#8C3C06" data-color="3" data-darkreader-inline-fill="" style="--darkreader-inline-fill: #f9a56c;"></path>
        <path d="M70.044 72.609c1.082 1.349 2.16 2.71 3.311 4 .535.6 1.098 1.18 1.719 1.691.155.127.483.467.699.475.331.012.494-.25.633-.497a38.798 38.798 0 0 0 3.818-9.658 25.505 25.505 0 0 0-2.021-.814l-.128.501a60.646 60.646 0 0 1-1.894 5.983c-.146.389-.255.872-.501 1.208-.363.497-.821-.251-1.061-.522a95.712 95.712 0 0 1-5.69-7.09l-.307-.422c-.159.069-.318.14-.477.211-.48.215-.957.44-1.427.677l.312.411a219.702 219.702 0 0 0 3.014 3.846z" fill="#391E15" data-color="5" data-darkreader-inline-fill="" style="--darkreader-inline-fill: #cfcbc5;"></path>
        <path fill="#8C3C06" d="m95.376 70.145-.002.002.002-.002z" data-color="3" data-darkreader-inline-fill="" style="--darkreader-inline-fill: #f9a56c;"></path>
        <path d="M70.914 63.745c.129.108.262.209.4.304a5.68 5.68 0 0 1-.398-.32l-.002.016z" fill="#8C3C06" data-color="3" data-darkreader-inline-fill="" style="--darkreader-inline-fill: #f9a56c;"></path>
        <path d="M117.515 31.39c1.008.476 1.84 1.327 2.178 2.409.143.458.27 1.121.087 1.584-.075.19-.216.296-.371.312a.487.487 0 0 1-.318.221.517.517 0 0 1-.362-.05.524.524 0 0 1-.458.176l-.026-.005.322.137a14.071 14.071 0 0 1 3.728 2.402c.991.885 1.974 1.981 2.271 3.321.249-.062.5-.11.752-.143a3.108 3.108 0 0 1 .246-1.685c.133-.303.574-.04.442.26a2.486 2.486 0 0 0-.182 1.377 6.847 6.847 0 0 1 2.005.188c.32.078.184.575-.136.497a6.234 6.234 0 0 0-3.053.019c.018.246.011.493-.014.739.461.835 1.044 2.633.324 3.477a1.235 1.235 0 0 1-.645.388 4.326 4.326 0 0 0 3.378-.399c1.464-.85 2.146-2.406 2.356-4.036.228-1.77.077-3.594-.893-5.128-.756-1.196-1.988-2.36-2.392-3.759a3.49 3.49 0 0 1-.103-.477 7.265 7.265 0 0 1-1.981.687l-1.923.699-.301-.619-.273-.562-.034-.071a3.697 3.697 0 0 1-.799-.475 4.16 4.16 0 0 1-.955-1.063 5.416 5.416 0 0 1-.619-1.429 7.103 7.103 0 0 1-.12-.504 6.897 6.897 0 0 0-3.034 1.177 5.2 5.2 0 0 1 .613.209c.098.04.196.082.29.126z" fill="#FDEBE1" data-color="2" data-darkreader-inline-fill="" style="--darkreader-inline-fill: #fad1ba;"></path>
        <path d="M131.087 79.245c-.103-.118-.205-.238-.307-.358.098.153.199.304.302.454l.005-.096z" fill="#8C3C06" data-color="3" data-darkreader-inline-fill="" style="--darkreader-inline-fill: #f9a56c;"></path>
        <path d="M80.184 99.08c-.021-.004-.041-.009-.062-.012.01.037.029.072.057.101l.005-.089z" fill="#F7B090" data-color="4" data-darkreader-inline-fill="" style="--darkreader-inline-fill: #f6a682;"></path>
        <path d="M70.464 63.281c-.029-.032-.056-.066-.085-.099a6.323 6.323 0 0 1-.693-.948 9.191 9.191 0 0 1-.741-1.529c-.914.51-1.928-.617-1.931-1.519-.001-.422.235-.879.644-1.03a.867.867 0 0 1 .588-.005 35.196 35.196 0 0 1-.329-2.077.253.253 0 0 0 .101-.032 23.054 23.054 0 0 1 6.389-2.351.254.254 0 0 0 .179-.18l.154-.628.181.803c.025.112.138.186.247.189l2.811.086.52.016c.152.92.273 1.86.341 2.804.587-.391 1.416.247 1.542.949.166.923-.608 1.714-1.51 1.639-.019.354-.048.707-.09 1.056-.114.94-.38 1.903-.872 2.714-.044.073-.09.145-.138.215l.006.013a.23.23 0 0 1 .019.129l-.026.202a.254.254 0 0 0 .07-.009l.451-.12 2.816-.753c.077-.021.167-.095.179-.18.387-2.872.798-5.862.056-8.714-.577-2.219-1.882-4.382-3.952-5.466-2.142-1.123-4.767-.957-6.899.103-2.127 1.057-3.728 3.008-4.711 5.149-1.308 2.851-1.558 6.04-1.469 9.141a.285.285 0 0 0 .095.199.256.256 0 0 0 .213.144l5.467.479.326.029c.016-.128.03-.256.047-.383l.004-.036z" fill="#260E04" data-color="1" data-darkreader-inline-fill="" style="--darkreader-inline-fill: #dbd8d3;"></path>
        <path d="M73.986 65.455c1.129.034 2.232-.306 3.166-.915.196-.128.385-.268.565-.419l.054-.421.026-.202a.22.22 0 0 0-.019-.129c-.07.071-.141.141-.214.208-.967.883-2.251 1.402-3.577 1.363a4.995 4.995 0 0 1-2.672-.891 5.133 5.133 0 0 1-.4-.304l-.08-.068a5.553 5.553 0 0 1-.376-.36c-.017.128-.031.256-.047.383l-.032.26c.149.136.305.265.467.385a5.585 5.585 0 0 0 3.139 1.11z" fill="#260E04" data-color="1" data-darkreader-inline-fill="" style="--darkreader-inline-fill: #dbd8d3;"></path>
        <path d="M71.787 56.897a.405.405 0 0 0-.505.027c-.253.238-.193.68-.059.984.059.166.162.303.33.354.503.155.549-.54.492-.881-.031-.184-.101-.378-.258-.484z" fill="#260E04" data-color="1" data-darkreader-inline-fill="" style="--darkreader-inline-fill: #dbd8d3;"></path>
        <path d="M76.708 56.485a.405.405 0 0 0-.505-.029c-.277.208-.266.654-.166.972.04.172.128.319.289.389.483.209.604-.476.585-.821-.011-.188-.059-.389-.203-.511z" fill="#260E04" data-color="1" data-darkreader-inline-fill="" style="--darkreader-inline-fill: #dbd8d3;"></path>
        <path d="M76.564 54.908c-.295.018-.922.153-.805.58.051.187.226.266.404.269l.055-.001c.338.047.874.039 1.037-.292.223-.45-.387-.574-.691-.556z" fill="#260E04" data-color="1" data-darkreader-inline-fill="" style="--darkreader-inline-fill: #dbd8d3;"></path>
        <path d="M71.844 55.948c.054-.18-.044-.358-.201-.443a.65.65 0 0 0-.34-.073.26.26 0 0 0-.118-.002c-.301.061-.919.304-.818.715.055.223.27.258.462.238.222-.024.45-.058.662-.13.152-.052.303-.14.353-.305z" fill="#260E04" data-color="1" data-darkreader-inline-fill="" style="--darkreader-inline-fill: #dbd8d3;"></path>
        <path d="M75.712 60.549c-.783.61-1.78.803-2.735.559-.319-.082-.455.415-.136.497 1.147.293 2.3.035 3.233-.692.259-.203-.105-.565-.362-.364z" fill="#260E04" data-color="1" data-darkreader-inline-fill="" style="--darkreader-inline-fill: #dbd8d3;"></path>
        <path d="M73.113 77.107c.594.656 1.225 1.285 1.93 1.821.56.426 1.166.546 1.618-.08.515-.714.888-1.592 1.271-2.382a39.186 39.186 0 0 0 2.637-7.119c.045-.169.086-.339.129-.509a22.288 22.288 0 0 0-.472-.219 38.742 38.742 0 0 1-3.818 9.658c-.14.246-.302.509-.633.497-.216-.008-.545-.348-.699-.475-.621-.511-1.184-1.091-1.719-1.691-1.151-1.29-2.229-2.652-3.311-4a210.446 210.446 0 0 1-3.012-3.846l-.312-.411a25.08 25.08 0 0 0-.461.239l.309.41c2.09 2.768 4.222 5.541 6.543 8.107z" fill="#260E04" data-color="1" data-darkreader-inline-fill="" style="--darkreader-inline-fill: #dbd8d3;"></path>
        <path d="M64.657 104.594c.267.105.538.202.811.29a10.94 10.94 0 0 0 3.249.548c1.959.022 3.865-.565 5.786-.866a33.072 33.072 0 0 1 6.176-.371c.18.006.274-.168.247-.326l-.002-.015c-.029-.169-.054-.339-.079-.509a20.05 20.05 0 0 1-.134-4.482.173.173 0 0 0-.003-.045c-.016-.091-.096-.19-.185-.203-3.53-.515-6.345-3.443-9.6-4.714l-4.261-18.563c-.074-.323-.567-.186-.493.137l4.183 18.222c-1.154-.371-2.37-.512-3.696-.249-.323.064-.186.561.136.497 2.592-.513 5.017.798 7.141 2.14 1.943 1.228 3.895 2.57 6.191 2.981.021.004.041.009.062.012l-.005.088a20.582 20.582 0 0 0 .201 4.505 33.676 33.676 0 0 0-5.432.309c-1.89.264-3.753.834-5.664.923-1.528.071-2.983-.231-4.364-.763a14.968 14.968 0 0 1-1.305-.578c.051.057.101.115.154.171.069.192.141.383.214.573.218.099.438.192.66.28a.016.016 0 0 0 .012.008z" fill="#260E04" data-color="1" data-darkreader-inline-fill="" style="--darkreader-inline-fill: #dbd8d3;"></path>
        <path d="m87.625 66.011.117-.331.136-.383c1.141.06 2.244-.683 3.263-1.212.643-.334 1.416-.53 1.889-1.119a1.96 1.96 0 0 0 .208-.322c.664.926 1.297 1.876 2.315 2.362.163.078.335.144.52.196.008.002.01.454.019.456.135.037.598.354.638.22.162-.549.176-2.208.114-2.747-.034-.299-.23-1.117-.318-1.408-.247-.822-.849-.819-1.346-1.511-.376-.524-.869-1.001-1.558-.92-.194.023-.375.098-.567.13-.342.057-.673.007-1.01-.049-.413-.068-.822-.157-1.241-.179-1.591-.08-2.978 1.239-3.852 2.462-.44.615-.731 1.353-.677 2.122.059.837.475 1.585.883 2.297a.235.235 0 0 0 .181.123.28.28 0 0 0 .286-.187z" fill="#7F442D" data-color="6" data-darkreader-inline-fill="" style="--darkreader-inline-fill: #d29780;"></path>
        <path d="M91.707 68.309c.307.119.441-.379.136-.497-.025-.01-.224-.126-.257-.101.014-.054.085-.169.096-.196.077-.189.129-.383.163-.584.054-.324-.439-.464-.493-.137a2.549 2.549 0 0 1-.131.503c-.059.153-.162.294-.153.463.017.311.395.454.639.549z" fill="#260E04" data-color="1" data-darkreader-inline-fill="" style="--darkreader-inline-fill: #dbd8d3;"></path>
        <path d="M93.164 66.816c.42.116.49-.465.446-.746-.023-.149-.075-.326-.207-.414-.156-.103-.351-.06-.468.081-.151.183-.138.464-.065.699.037.177.123.333.294.38z" fill="#260E04" data-color="1" data-darkreader-inline-fill="" style="--darkreader-inline-fill: #dbd8d3;"></path>
        <path d="M89.572 66.117c-.216.148-.209.445-.132.698a.548.548 0 0 0 .229.392.35.35 0 0 0 .49-.117c.09-.145.075-.343.051-.505-.023-.15-.068-.324-.179-.433a.355.355 0 0 0-.459-.035z" fill="#260E04" data-color="1" data-darkreader-inline-fill="" style="--darkreader-inline-fill: #dbd8d3;"></path>
        <path d="M93.236 64.928a.328.328 0 0 0 .133.097c.204.081.513.095.679-.074a.33.33 0 0 0 .028-.411.491.491 0 0 0-.327-.198c-.231-.042-.633.012-.642.32a.325.325 0 0 0 .129.266z" fill="#260E04" data-color="1" data-darkreader-inline-fill="" style="--darkreader-inline-fill: #dbd8d3;"></path>
        <path d="M93.141 69.198c.173-.283-.269-.542-.442-.26-.292.477-.895.587-1.322.217-.248-.215-.612.148-.362.364.679.588 1.653.452 2.126-.321z" fill="#260E04" data-color="1" data-darkreader-inline-fill="" style="--darkreader-inline-fill: #dbd8d3;"></path>
        <path d="M92.976 72.353a4.836 4.836 0 0 0 2.526-1.55c.15-.171.287-.353.413-.543a26.26 26.26 0 0 1-.135-.785 4.637 4.637 0 0 1-.404.67l-.002.002a4.41 4.41 0 0 1-2.534 1.709 4.253 4.253 0 0 1-2.79-.314 4.503 4.503 0 0 1-.519-.284.244.244 0 0 0-.029.195l.109.449c.191.1.389.188.591.263a4.821 4.821 0 0 0 2.774.188z" fill="#260E04" data-color="1" data-darkreader-inline-fill="" style="--darkreader-inline-fill: #dbd8d3;"></path>
        <path d="M89.958 104.488c-.297.313-.714.481-1.135.531-.579.068-1.134-.12-1.659-.349-.672-.293-1.311-.594-2.032-.747a8.055 8.055 0 0 0-.877-.134.327.327 0 0 0 0 .07l.619 4.586c.045.335.095.674.14 1.016.024.18.046.361.066.542.105.951.142 1.912-.078 2.841-.313 1.323-1.183 2.385-2.076 3.365-.721.791-1.818 1.662-2.03 2.771-.192 1.003.654 1.736 1.591 1.776.586.025 1.147-.193 1.679-.415.617-.258 1.234-.52 1.837-.811 1.139-.55 2.249-1.231 3.1-2.187.719-.808 1.374-1.897 1.281-3.024-.065-.785-.563-1.405-.531-2.22.032-.802.311-1.577.467-2.359.257-1.285.348-2.594.29-3.9-.012-.274-.03-.549-.055-.822l-.004-.049a.277.277 0 0 0 .001-.115l-.233-1.166c-.045.283-.128.548-.338.779a.15.15 0 0 0-.023.021z" fill="#7F442D" data-color="6" data-darkreader-inline-fill="" style="--darkreader-inline-fill: #d29780;"></path>
        <path d="M91.553 99.596a1.361 1.361 0 0 0-.773-.289c-.236-.013-.543.061-.766-.043-.786-.365.14-.683.396-.691.345-.011.689.068 1.031-.013.581-.137.999-.654.748-1.256-.273-.653-.999-.759-1.624-.77a15.81 15.81 0 0 0-2.749.197c-.794.127-1.535.392-2.093.995-.267.289-.485.624-.79.876-.1.083-.208.155-.32.219a2.78 2.78 0 0 1-.569.244 3.436 3.436 0 0 1-.443.106c-.975.166-1.955-.085-2.894-.353.003.015.004.031.003.045-.013.16-.022.321-.032.481a20.05 20.05 0 0 0 .245 4.51c1.103-.093 2.227-.178 3.331-.066a8.85 8.85 0 0 1 .877.134c.721.153 1.361.455 2.032.747.524.228 1.08.417 1.659.349.422-.05.839-.218 1.135-.531l.023-.023c.21-.231.292-.496.338-.779.022-.14.035-.284.05-.43.038-.385.093-.575.443-.755.188-.097.36-.178.438-.391a.58.58 0 0 0-.048-.49c-.041-.077-.111-.136-.156-.209-.229-.371-.165-.921.416-.814.146.027.262-.04.315-.18a.74.74 0 0 0 .044-.38.729.729 0 0 0-.267-.44z" fill="#F7B090" data-color="4" data-darkreader-inline-fill="" style="--darkreader-inline-fill: #f6a682;"></path>
        <path d="M92.328 92.168c-.156.231-.411.523-.423.822-.024.629.599.494.934.266l.108-.076c-.22.398-.514.971-.182 1.342.391.437.869-.054 1.169-.339-.086.199-.124.403-.047.593.222.544.662.339 1.084-.049a.474.474 0 0 0 .253.344c.203.104.473.056.666-.102.058-.048.114-.1.168-.157.11-.114.212-.244.309-.382.226-.321.421-.682.606-.978a15.35 15.35 0 0 0 .967-1.812 1.026 1.026 0 0 1-.23-.023 1.238 1.238 0 0 1-.199-.059c-.026-.01-.051-.022-.077-.033-.451-.193-.864-.514-1.276-.774l-1.04-.654c-.197-.11-.392-.224-.583-.343a11.46 11.46 0 0 0-1.644 1.653 11.32 11.32 0 0 0-.563.761z" fill="#F7B090" data-color="4" data-darkreader-inline-fill="" style="--darkreader-inline-fill: #f6a682;"></path>
        <path d="M95.829 82.251c.518.225 1.285.482 1.439 1.111.18.736-.613.729-1.018 1.054-.786.631-.656 1.756-1.163 2.549-.255.399-.516.717-.586 1.203-.047.328-.013.659.049.985.201.131.404.258.61.378l-.005-.019c-.154-.624-.284-1.263.066-1.846.265-.442.529-.791.673-1.299.154-.544.229-1.277.754-1.608.357-.226.751-.212.992-.611.451-.749-.093-1.558-.738-1.954-.927-.569-2.07-.733-2.541-1.851-.128-.304-.569-.042-.442.26.349.829 1.119 1.305 1.91 1.648z" fill="#260E04" data-color="1" data-darkreader-inline-fill="" style="--darkreader-inline-fill: #dbd8d3;"></path>
        <path d="M88.279 90.454c-.084-.123-.253-.181-.376-.037-.285.336-.56.678-.829 1.026-.127.163-.252.327-.375.492.063.181.129.361.201.539l.005.01-.153.241c.477-.669.98-1.317 1.512-1.943a.262.262 0 0 0 .015-.328z" fill="#260E04" data-color="1" data-darkreader-inline-fill="" style="--darkreader-inline-fill: #dbd8d3;"></path>
        <path d="M97.941 91.639c-.282.626-.604 1.23-.967 1.812-.185.296-.38.658-.606.978.077.013.15.057.194.125a7.507 7.507 0 0 0 1.637-2.78c.021-.064.043-.127.062-.191a1.056 1.056 0 0 1-.32.056z" fill="#260E04" data-color="1" data-darkreader-inline-fill="" style="--darkreader-inline-fill: #dbd8d3;"></path>
        <path d="M96.367 94.429a3.197 3.197 0 0 1-.309.382c-.054.056-.11.109-.168.157-.193.158-.462.207-.666.102a.474.474 0 0 1-.253-.344c-.422.388-.862.593-1.084.049-.077-.19-.039-.394.047-.593-.3.285-.778.776-1.169.339-.332-.371-.038-.944.182-1.342l-.108.076c-.335.229-.958.364-.934-.266.011-.299.267-.591.423-.822a11.958 11.958 0 0 1 .913-1.177l-3.507-.476-.8-.109-.569-.077-.326-.044c-.433-.059-.9-.081-1.306-.259l-.018-.009a1.73 1.73 0 0 1-.587-.443l.001.015c.113.804.303 1.584.569 2.346a32.58 32.58 0 0 1 1.204-1.518c.123-.144.292-.086.376.037a.264.264 0 0 1-.014.328 29.472 29.472 0 0 0-1.512 1.943c-1.241 1.962-2.291 4.035-2.71 6.341a2.78 2.78 0 0 0 .569-.244c.112-.064.22-.137.32-.219.306-.252.523-.587.79-.876.559-.604 1.299-.868 2.093-.995a15.824 15.824 0 0 1 2.749-.197c.625.011 1.351.117 1.624.77.252.603-.167 1.12-.748 1.256-.342.081-.686.002-1.031.013-.256.008-1.182.325-.396.691.223.103.53.03.766.043.272.015.565.116.773.289a.723.723 0 0 1 .266.44l.334-.194c.194-.115.387-.233.58-.354l.129-.082c.102-.066.204-.133.305-.201 1.608-1.084 3.035-2.465 3.429-4.458a.253.253 0 0 0-.035-.193.28.28 0 0 0-.192-.125z" fill="#7F442D" data-color="6" data-darkreader-inline-fill="" style="--darkreader-inline-fill: #d29780;"></path>
        <path d="M74.082 162.957c-.161.081-.32.166-.478.255l.032.249-.108.387a9.96 9.96 0 0 1 6.882-1.357c-.02-.177-.038-.353-.055-.53a10.475 10.475 0 0 0-6.273.996z" fill="#260E04" data-color="1" data-darkreader-inline-fill="" style="--darkreader-inline-fill: #dbd8d3;"></path>
        <path d="M85.381 153.22c-.167.04-.334.082-.5.126.015.174.031.348.05.521a16.678 16.678 0 0 1 7.47-.305l.042-.431.008-.084a17.164 17.164 0 0 0-7.07.173z" fill="#260E04" data-color="1" data-darkreader-inline-fill="" style="--darkreader-inline-fill: #dbd8d3;"></path>
        <path d="M85.614 121.68c.077-.322-.416-.46-.493-.137a83.523 83.523 0 0 0-1.334 6.869l.127 2.854a83.245 83.245 0 0 1 1.7-9.586z" fill="#260E04" data-color="1" data-darkreader-inline-fill="" style="--darkreader-inline-fill: #dbd8d3;"></path>
        <path d="m92.822 100.187.156-.028a8.881 8.881 0 0 0 2.345-.79c.274-.137.069-.531-.198-.467a.29.29 0 0 0-.06.022c-.69.345-1.41.584-2.163.727l-.167.03a.522.522 0 0 0 .087.506z" fill="#260E04" data-color="1" data-darkreader-inline-fill="" style="--darkreader-inline-fill: #dbd8d3;"></path>
        <path d="M96.112 99.854c.036-.199-.16-.424-.367-.279a6.04 6.04 0 0 1-1.914.907.235.235 0 0 0-.114.067c.465.053.977.024 1.44-.025.293-.146.576-.313.847-.504a.257.257 0 0 0 .108-.166z" fill="#260E04" data-color="1" data-darkreader-inline-fill="" style="--darkreader-inline-fill: #dbd8d3;"></path>
        <path d="m73.899 58.494.399.315c.075.059.205.132.29.214-.07.129-.202.274-.267.37-.186.275.257.533.442.26.149-.221.481-.54.323-.827-.076-.138-.233-.228-.354-.323l-.471-.372c-.256-.204-.621.159-.362.363z" fill="#260E04" data-color="1" data-darkreader-inline-fill="" style="--darkreader-inline-fill: #dbd8d3;"></path>
        <path d="M132.417 66.955c-.141.224-.292.44-.452.649.21-.183.384-.394.452-.649z" fill="#F7B090" data-color="4" data-darkreader-inline-fill="" style="--darkreader-inline-fill: #f6a682;"></path>
        <path d="M90.249 161.397c-.579.171-1.215.332-1.611-.26-.236-.352-.32-.791-.436-1.193-.337-1.159-.882-2.32-1.811-3.048a3.404 3.404 0 0 0-.404-.273 8.585 8.585 0 0 1-.229.461c.139.082.269.175.393.276.431.353.773.816 1.034 1.329.399.785.503 1.668.876 2.457.312.659.882 1.013 1.613.919.487-.062.94-.27 1.421-.362a4.109 4.109 0 0 1 1.202-.046 5.728 5.728 0 0 1-.304-.523 4.997 4.997 0 0 0-.534.022c-.402.037-.802.12-1.21.241z" fill="#260E04" data-color="1" data-darkreader-inline-fill="" style="--darkreader-inline-fill: #dbd8d3;"></path>
        <path d="M114.469 51.543c-.272-.189-.528.258-.258.445 1 .694 2.262.766 3.348.234.296-.145.037-.59-.258-.445-.927.454-1.989.351-2.832-.234z" fill="#260E04" data-color="1" data-darkreader-inline-fill="" style="--darkreader-inline-fill: #dbd8d3;"></path>
        <path d="M116.065 50.028c.274.186.53-.26.258-.445a1.452 1.452 0 0 1-.276-.245c.449-.363.707-.896.711-1.493.002-.332-.509-.332-.512 0-.004.514-.253.95-.692 1.212-.115.069-.167.234-.092.352.162.254.355.45.603.619z" fill="#260E04" data-color="1" data-darkreader-inline-fill="" style="--darkreader-inline-fill: #dbd8d3;"></path>
        <path d="M113.277 44.439c.434.169 1.216.399 1.647.111.181-.121.281-.362.196-.57-.094-.233-.35-.297-.574-.336-.375-.065-1.264-.109-1.435.35-.055.147-.034.255.032.333a.264.264 0 0 0 .134.112z" fill="#260E04" data-color="1" data-darkreader-inline-fill="" style="--darkreader-inline-fill: #dbd8d3;"></path>
        <path d="M119.236 45.202c.376.31.924.564 1.424.468.229-.044.368-.245.278-.476-.08-.205-.369-.372-.553-.468-.316-.166-1.052-.446-1.204.07a.41.41 0 0 0-.016.16c-.03.08-.018.172.071.246z" fill="#260E04" data-color="1" data-darkreader-inline-fill="" style="--darkreader-inline-fill: #dbd8d3;"></path>
        <path d="M115.655 56.598c1.82.278 3.335-.719 4.605-1.937.108-.104.214-.209.318-.315a21.279 21.279 0 0 0-.166-.561c-1.275 1.348-2.858 2.651-4.777 2.29-1.813-.34-2.896-1.921-3.729-3.481a.242.242 0 0 0-.061.163c-.004.253-.004.505-.003.757.165.276.34.547.527.808.812 1.131 1.847 2.057 3.286 2.276z" fill="#260E04" data-color="1" data-darkreader-inline-fill="" style="--darkreader-inline-fill: #dbd8d3;"></path>
        <path d="M119.476 26.242c.011-.266.03-.531.061-.793.097-.825.201-1.183.726-1.851a.255.255 0 0 0 .1.113c.106.066.212.125.32.18 1.454.737 3.114.516 4.658.125.298-.076.685-.272.983-.111.204.11.252.009.358.204.184.343.362.759.596 1.073.408.549 1.036.906 1.607 1.273.067.043.135.086.205.127a.231.231 0 0 0 .258-.005.29.29 0 0 1 .003.098 9.171 9.171 0 0 1-.311 1.35c.047-.007.094-.01.143-.007a.75.75 0 0 1 .475.219c.324-1.417.574-3.046.267-4.486-.276-1.294-1.415-2.171-2.421-2.915-.525-.388-1.099-.695-1.75-.792-.79-.118-1.576.039-2.363.111-.644.059-1.32.004-1.946.192-.604.182-1.023.596-1.33 1.138-.768 1.358-1.426 3.044-.966 4.606.014.002.027.002.041.005a.629.629 0 0 1 .286.146z" fill="#260E04" data-color="1" data-darkreader-inline-fill="" style="--darkreader-inline-fill: #dbd8d3;"></path>
        <path d="M123.267 29.043c.107.088.257.106.362 0 .09-.09.108-.276 0-.364l-.059-.057c.043-.051.099-.176.117-.221.052-.129-.056-.283-.179-.317-.146-.04-.263.05-.315.18.013-.032-.028.03-.01.009a.805.805 0 0 0-.075.099.469.469 0 0 0-.078.248c0 .176.107.317.237.423z" fill="#260E04" data-color="1" data-darkreader-inline-fill="" style="--darkreader-inline-fill: #dbd8d3;"></path>
        <path d="m125.46 28.609.037.004.013.004c.456.108.563-.541.542-.856-.012-.188-.076-.375-.276-.431-.2-.055-.375.085-.47.249-.155.271-.294.953.154 1.03z" fill="#260E04" data-color="1" data-darkreader-inline-fill="" style="--darkreader-inline-fill: #dbd8d3;"></path>
        <path d="M122.409 27.955c.122-.108.177-.274.203-.432.047-.285.023-.842-.41-.755a.413.413 0 0 0-.272.193c-.007.01-.014.019-.019.03l-.002.005a.684.684 0 0 0-.061.164c-.083.265-.111.596.092.791a.35.35 0 0 0 .469.004z" fill="#260E04" data-color="1" data-darkreader-inline-fill="" style="--darkreader-inline-fill: #dbd8d3;"></path>
        <path d="M122.191 29.657c-.206-.259-.566.108-.362.364.673.847 1.782 1.044 2.722.537.29-.157.032-.602-.258-.445-.754.407-1.576.206-2.102-.456z" fill="#260E04" data-color="1" data-darkreader-inline-fill="" style="--darkreader-inline-fill: #dbd8d3;"></path>
        <path d="M121.948 25.797c.203-.045.423-.073.619-.141.216-.074.351-.315.193-.518-.132-.17-.379-.14-.562-.093a1.22 1.22 0 0 0-.512.286c-.109.099-.098.225-.031.316.047.104.152.182.293.15z" fill="#260E04" data-color="1" data-darkreader-inline-fill="" style="--darkreader-inline-fill: #dbd8d3;"></path>
        <path d="M126.175 26.423c.19.171.539.4.762.175.256-.259-.024-.558-.239-.713-.108-.079-.242-.157-.379-.159a.36.36 0 0 0-.352.266c-.049.194.062.327.208.431z" fill="#260E04" data-color="1" data-darkreader-inline-fill="" style="--darkreader-inline-fill: #dbd8d3;"></path>
        <path d="M118.618 34.421c.199-.259-.16-.626-.362-.364-.118.153-.25.284-.392.394-.562.434-1.288.517-1.969.175l.198.151c.461.344.968.43 1.433.184.024.076.044.155.064.235a2.399 2.399 0 0 0 1.028-.775z" fill="#260E04" data-color="1" data-darkreader-inline-fill="" style="--darkreader-inline-fill: #dbd8d3;"></path>
        <path d="M109.574 61.095c-.316.09-.182.587.136.497a8.052 8.052 0 0 1 2.189-.312l.073.001a8.782 8.782 0 0 1 .443.016.791.791 0 0 0-.013-.109.694.694 0 0 0 .242-.385 8.711 8.711 0 0 0-.822-.031 8.383 8.383 0 0 0-2.248.323z" fill="#260E04" data-color="1" data-darkreader-inline-fill="" style="--darkreader-inline-fill: #dbd8d3;"></path>
        <path d="M109.945 59.672c-.323.06-.186.556.136.497a8.023 8.023 0 0 1 2.547-.06.503.503 0 0 1 .113-.32c.045-.059.103-.108.162-.157a8.725 8.725 0 0 0-2.958.04z" fill="#260E04" data-color="1" data-darkreader-inline-fill="" style="--darkreader-inline-fill: #dbd8d3;"></path>
        <path d="M119.713 59.653a3.006 3.006 0 0 1 1.57-1.237c.311-.104.178-.602-.136-.497a3.569 3.569 0 0 0-1.522 1.004 2.55 2.55 0 0 0-.057.408c-.008.147.027.278.062.406a.266.266 0 0 0 .083-.084z" fill="#260E04" data-color="1" data-darkreader-inline-fill="" style="--darkreader-inline-fill: #dbd8d3;"></path>
        <path d="M120.259 60.141c.266-.213.554-.399.863-.553.295-.148.036-.592-.258-.445a5.101 5.101 0 0 0-1.179.82.627.627 0 0 1-.04.36c-.084.193-.218.347-.162.572a.242.242 0 0 0 .01.032c.223-.294.48-.557.766-.786z" fill="#260E04" data-color="1" data-darkreader-inline-fill="" style="--darkreader-inline-fill: #dbd8d3;"></path>
        <path d="M119.875 61.695a2.946 2.946 0 0 1 1.766-.997c.324-.055.187-.551-.136-.497a3.326 3.326 0 0 0-1.822.947c.062.036.127.071.185.131.088-.006.122.025.103.094a1.814 1.814 0 0 0-.183.199.88.88 0 0 0-.109.204.213.213 0 0 0 .196-.081z" fill="#260E04" data-color="1" data-darkreader-inline-fill="" style="--darkreader-inline-fill: #dbd8d3;"></path>
        <path d="M127.691 42.392c.32.078.456-.419.136-.497a6.85 6.85 0 0 0-2.005-.188c-.07-.469-.01-.942.182-1.377.132-.3-.308-.563-.442-.26a3.107 3.107 0 0 0-.246 1.685 6.729 6.729 0 0 0-.752.143l.003.012c.036.167.059.334.071.502 1-.258 2.032-.269 3.053-.02z" fill="#260E04" data-color="1" data-darkreader-inline-fill="" style="--darkreader-inline-fill: #dbd8d3;"></path>
        <path d="M110.333 38.595a3.34 3.34 0 0 1 .372-1.431c.663-1.274 2.098-1.917 3.47-1.992 1.273-.07 2.561.27 3.753.738-.202-.161-.269-.44-.338-.714-.02-.08-.04-.159-.064-.235-.465.245-.972.16-1.433-.184l-.198-.151c-.288-.222-.558-.428-.927-.541a2.45 2.45 0 0 0-1.394.003.236.236 0 0 1-.176-.015.223.223 0 0 1-.197-.181 2.527 2.527 0 0 1 .206-1.75c.124-.236.288-.451.492-.634a9.051 9.051 0 0 0-3.093 1.171c-.946.578-2.027 1.387-2.473 2.443-.429 1.014.033 2.11.664 2.925.379.49.842.897 1.363 1.21a4.181 4.181 0 0 1-.027-.662z" fill="#FDEBE1" data-color="2" data-darkreader-inline-fill="" style="--darkreader-inline-fill: #fad1ba;"></path>
        <path d="M113.408 32.144a2.52 2.52 0 0 0-.206 1.75.222.222 0 0 0 .197.181.236.236 0 0 0 .176.015c.462-.13.931-.144 1.394-.003.369.112.639.319.927.541.681.341 1.407.258 1.969-.175.142-.11.274-.241.392-.394.201-.262.561.105.362.364a2.42 2.42 0 0 1-1.028.775c.069.275.136.554.338.714.105.041.21.084.314.127l.026.005a.524.524 0 0 0 .458-.176c.108.056.228.08.362.05a.484.484 0 0 0 .318-.221c.156-.016.297-.123.371-.312.183-.463.056-1.126-.087-1.584-.338-1.082-1.169-1.933-2.178-2.409a5.887 5.887 0 0 0-.903-.335c-.78-.212-1.622-.233-2.326.173a2.276 2.276 0 0 0-.876.914z" fill="#F7B090" data-color="4" data-darkreader-inline-fill="" style="--darkreader-inline-fill: #f6a682;"></path>
        <path d="m126.622 32.649.002-.032c-.025.024-.049.05-.075.073l.073-.041z" fill="#BFCABF" data-color="7" data-darkreader-inline-fill="" style="--darkreader-inline-fill: #c3beb6;"></path>
        <path d="M124.948 46.627c.72-.844.137-2.642-.324-3.477-.03.287-.085.574-.157.859a14.374 14.374 0 0 1-.492 1.496c-.091.244-.184.485-.27.722l-.091.254c-.022.064-.045.147-.072.239l-.032.107c.161.188.416.279.746.202l.046-.013c.283-.075.493-.211.646-.389z" fill="#F7B090" data-color="4" data-darkreader-inline-fill="" style="--darkreader-inline-fill: #f6a682;"></path>
        <path d="M126.124 32.903a6.74 6.74 0 0 1-3.694.557 3.126 3.126 0 0 1-.292-.111l.034.071.273.562c.744.09 1.494.061 2.223-.079a7.324 7.324 0 0 0 1.981-.687l-.004-.03a3.158 3.158 0 0 1-.024-.535l-.074.041c-.138.075-.28.145-.423.211z" fill="#260E04" data-color="1" data-darkreader-inline-fill="" style="--darkreader-inline-fill: #dbd8d3;"></path>
        <path d="M111.438 55.882c-.562-.031-1.158.102-1.663.261-.836.262-1.614.681-2.374 1.111l-.437.249c-.158.091-.316.184-.471.279a7.161 7.161 0 0 0-1.116.819c-.633.582-1.026 1.336-1.377 2.112-.828 1.829-1.795 3.558-2.988 5.169a.22.22 0 0 0-.052.016c.125.131.257.256.394.377.821.721 1.823 1.288 2.574 2.04.338.339.625.716.822 1.161a.264.264 0 0 0 .195-.075c.466-.508.678-1.126.872-1.76.052-.169.102-.338.156-.507.034-.106.069-.213.106-.318.411-1.157 1.425-2.077 2.315-2.878.449-.404.918-.794 1.443-1.096.522-.301 1.035-.405 1.609-.535.18-.041.357-.101.51-.193a.908.908 0 0 0 .399-.457c.008-.02.013-.04.019-.06a.862.862 0 0 0 .042-.299l-.162-.009a8.782 8.782 0 0 0-.281-.007l-.073-.001a8.052 8.052 0 0 0-2.189.312c-.318.09-.452-.407-.136-.497a8.507 8.507 0 0 1 3.07-.294.9.9 0 0 0 .025-.298c-.012-.147-.044-.272-.042-.394a8.026 8.026 0 0 0-2.547.06c-.322.06-.459-.437-.136-.497a8.72 8.72 0 0 1 2.957-.04c.049-.041.099-.081.143-.126a1.087 1.087 0 0 0 .284-.443.618.618 0 0 0 .023-.203c-.009-.18-.096-.332-.204-.467a1.468 1.468 0 0 0-.072-.085l-.011-.011a6.374 6.374 0 0 0-.754-.103 6.127 6.127 0 0 0-2.109.215c-.318.089-.453-.409-.136-.497a6.656 6.656 0 0 1 2.756-.177l.004-.013.014.016.15.176a4.592 4.592 0 0 0-1.552-2.033z" fill="#F7B090" data-color="4" data-darkreader-inline-fill="" style="--darkreader-inline-fill: #f6a682;"></path>
        <path d="M126.113 56.426c-.04.059-.073.121-.099.184-.176.433-.033 1.327-.776 1.087-.45-.145-.814-.539-1.245-.738a4.025 4.025 0 0 0-2.684-.243 4.34 4.34 0 0 0-1.472 1.544 4.18 4.18 0 0 0-.207.65l-.003.013.05-.054c.178-.193.376-.363.591-.51.049-.034.099-.065.15-.097.228-.139.471-.256.731-.343.314-.105.447.393.136.497-.441.148-.83.393-1.151.715-.156.157-.298.33-.419.522a.277.277 0 0 1-.083.084c.021.076.041.152.053.227a5.07 5.07 0 0 1 1.179-.82c.294-.147.553.297.258.445-.309.155-.597.34-.863.553a4.55 4.55 0 0 0-.769.787c.039.12.112.172.193.22a3.344 3.344 0 0 1 1.822-.947c.323-.054.46.442.136.497a2.946 2.946 0 0 0-1.766.997.213.213 0 0 1-.196.081.682.682 0 0 0-.038.163c-.068.616.472.954.969 1.136l.015.006.476.176c1.132.424 2.238.892 3.208 1.61.222.165.438.341.645.535.03.028.057.057.086.085.465.455.842.975 1.202 1.511l.276.414.013.02 1.591 2.406a7.825 7.825 0 0 0 3.754-2.99c.151-.226.29-.46.418-.702-.06-.125-.128-.246-.191-.364a42.815 42.815 0 0 0-.733-1.326c-.46-.79-.974-1.538-1.564-2.235-.58-.684-1.212-1.34-1.65-2.132-.471-.852-.56-1.804-.723-2.748-.077-.448-.248-1.294-.847-1.221a.684.684 0 0 0-.132.029.68.68 0 0 0-.341.276z" fill="#F7B090" data-color="4" data-darkreader-inline-fill="" style="--darkreader-inline-fill: #f6a682;"></path>
        <path d="M126.243 66.999c-.361-.537-.738-1.057-1.202-1.511a4.963 4.963 0 0 0-2.761.195c-.311.113-.443-.385-.136-.497a5.424 5.424 0 0 1 2.166-.319c-.97-.718-2.076-1.186-3.208-1.61a66.824 66.824 0 0 0-.476-.176c-.003.953-.551 1.861-.607 2.816-.063 1.078.632 1.884 1.566 2.316 1.693.782 3.621.402 4.947-.78l-.013-.02c-.092-.139-.183-.277-.276-.414z" fill="#8C3C06" data-color="3" data-darkreader-inline-fill="" style="--darkreader-inline-fill: #f9a56c;"></path>
        <path d="M111.955 62.111c-.153.092-.33.152-.51.193-.575.13-1.087.234-1.609.535-.524.302-.993.692-1.443 1.096-.89.801-1.904 1.721-2.315 2.878-.037.105-.072.212-.106.318-.054.169-.104.339-.156.507 1.629.993 4.099 1.61 5.705.429.454-.334.72-.794.882-1.302a3.892 3.892 0 0 0-.387-.493 3.917 3.917 0 0 0-3.933-1.098c-.318.088-.453-.409-.136-.497a4.393 4.393 0 0 1 4.605 1.45c.034-.204.059-.411.077-.616a13.252 13.252 0 0 0-.257-3.918c-.006.02-.011.04-.019.06a.896.896 0 0 1-.398.458z" fill="#8C3C06" data-color="3" data-darkreader-inline-fill="" style="--darkreader-inline-fill: #f9a56c;"></path>
        <path d="M106.492 57.782c.156-.096.313-.189.471-.279l.437-.249c.76-.431 1.538-.85 2.374-1.111.506-.158 1.101-.292 1.663-.261.049.003.098.005.147.01.121.013.239.034.355.066-.009-.119-.015-.238-.022-.357l-.009-.139a37.235 37.235 0 0 1-.062-2.705.244.244 0 0 1 .061-.163c.005-.006.01-.013.016-.018a12.515 12.515 0 0 1-1.067-3.97.244.244 0 0 1-.138-.04 2.147 2.147 0 0 1-.594-.57 10.113 10.113 0 0 0-2.929 3.826 10.236 10.236 0 0 0-.813 3.087c-.098.944-.065 1.91.11 2.873z" fill="#8C3C06" data-color="3" data-darkreader-inline-fill="" style="--darkreader-inline-fill: #f9a56c;"></path>
        <path d="M112.11 65.661a4.391 4.391 0 0 0-4.162-.982c-.317.088-.182.585.136.497a3.918 3.918 0 0 1 3.933 1.098c.141.152.27.316.387.493a4.52 4.52 0 0 0 .15-.638 4.477 4.477 0 0 0-.444-.468z" fill="#260E04" data-color="1" data-darkreader-inline-fill="" style="--darkreader-inline-fill: #dbd8d3;"></path>
        <path d="M122.144 65.186c-.307.112-.175.61.136.497a4.963 4.963 0 0 1 2.761-.195c-.029-.028-.057-.058-.086-.085a7.2 7.2 0 0 0-.645-.535 5.406 5.406 0 0 0-2.166.318z" fill="#260E04" data-color="1" data-darkreader-inline-fill="" style="--darkreader-inline-fill: #dbd8d3;"></path>
        <path d="M112.082 57.668a6.691 6.691 0 0 0-2.016.243c-.317.088-.182.585.136.497a6.127 6.127 0 0 1 2.863-.112c-.123-.134-.224-.187-.254-.38a.454.454 0 0 1 .011-.182 6.476 6.476 0 0 0-.74-.066z" fill="#260E04" data-color="1" data-darkreader-inline-fill="" style="--darkreader-inline-fill: #dbd8d3;"></path>
        <path d="M130.781 78.887a16.164 16.164 0 0 1-2.336-6.158c.626.055 1.343-.242 1.883-.411a19.78 19.78 0 0 0 5.207-2.522c.272-.184.016-.631-.258-.445a19.38 19.38 0 0 1-4.051 2.115c-.682.256-1.378.476-2.085.65-.5.123-.986.193-1.284-.327-.216-.378-.193-.841-.165-1.265a8.345 8.345 0 0 0 5.04-4.106 25.554 25.554 0 0 1 5.372 6.397c.168.285.611.026.442-.26a25.99 25.99 0 0 0-5.538-6.576.25.25 0 0 0-.114-.057 9.255 9.255 0 0 1 .132-3.563c.075-.323-.418-.46-.493-.137a9.913 9.913 0 0 0-.145 3.755c-.029.058-.061.114-.091.172a7.824 7.824 0 0 1-.723 1.128 7.825 7.825 0 0 1-4.184 2.801.232.232 0 0 0-.18.246.277.277 0 0 0-.022.09c-.046.74-.036 1.648.651 2.112.024.016.049.028.073.042a.317.317 0 0 0 .002.053 16.514 16.514 0 0 0 3.605 8.152l.041-.772a18.077 18.077 0 0 1-.779-1.114z" fill="#260E04" data-color="1" data-darkreader-inline-fill="" style="--darkreader-inline-fill: #dbd8d3;"></path>
        <path d="M132.881 58.924c-.051.324.442.464.493.137a6.189 6.189 0 0 1 .881-2.344c-.115-.137-.234-.27-.354-.399a6.535 6.535 0 0 0-1.02 2.606z" fill="#260E04" data-color="1" data-darkreader-inline-fill="" style="--darkreader-inline-fill: #dbd8d3;"></path>
        <path d="M102.109 60.296c.034.326.546.33.512 0a14.568 14.568 0 0 0-1.302-4.682c-.16.059-.318.124-.473.197a13.806 13.806 0 0 1 1.263 4.485z" fill="#260E04" data-color="1" data-darkreader-inline-fill="" style="--darkreader-inline-fill: #dbd8d3;"></path>
        <path d="M101.354 66.274a6.389 6.389 0 0 1-.394-.377 4.552 4.552 0 0 1-.317-.365c-.063-.082-.142-.102-.215-.083a.243.243 0 0 0-.172.03c-.717.413-1.395.88-2.042 1.395-.088.07-.103.158-.075.236a.264.264 0 0 0 .01.2 8.243 8.243 0 0 0 2.582 3.199c.264.198.519-.249.258-.445a7.724 7.724 0 0 1-2.337-2.884c.547-.43 1.122-.818 1.721-1.171.073.087.15.171.23.253.897.92 2.209 1.557 3.064 2.497.463.509.792 1.106.849 1.887.099 1.365-.328 2.857-.792 4.126a13.982 13.982 0 0 1-1.206 2.482c.075.21.142.422.203.636a14.69 14.69 0 0 0 1.527-3.065c.479-1.336.918-2.929.765-4.363a3.275 3.275 0 0 0-.262-.988 3.841 3.841 0 0 0-.822-1.161c-.752-.751-1.755-1.318-2.575-2.039z" fill="#260E04" data-color="1" data-darkreader-inline-fill="" style="--darkreader-inline-fill: #dbd8d3;"></path>
        <path d="M99.07 98.083c.069-.162.128-.331.183-.503.017-.054.036-.107.052-.162a10.576 10.576 0 0 0 .218-.964c.144-.817.105-1.521-.19-2.298-.322-.849-.556-1.694-.646-2.602a.265.265 0 0 0-.072-.159 1.39 1.39 0 0 1-.355.187c-.019.064-.041.128-.062.191a7.499 7.499 0 0 1-1.637 2.78c.034.052.05.117.035.193-.394 1.992-1.821 3.374-3.429 4.458-.101.068-.203.135-.305.201l-.129.082c.02.024.043.046.068.067a.571.571 0 0 0-.066.127c.056-.01.112-.019.167-.03a8.294 8.294 0 0 0 2.163-.727.313.313 0 0 1 .06-.022c.267-.065.472.329.198.467a8.881 8.881 0 0 1-2.501.818.707.707 0 0 0 .181.167.8.8 0 0 0 .205.095c.159.048.331.08.509.1a.25.25 0 0 1 .114-.067 6.04 6.04 0 0 0 1.914-.907c.206-.145.403.08.367.279a.254.254 0 0 1-.108.166 6.496 6.496 0 0 1-.847.504c.143-.015.282-.032.413-.048.676-.086 1.335-.272 1.932-.609.579-.327.99-.748 1.29-1.237.032-.052.061-.106.091-.159.068-.126.13-.255.187-.388z" fill="#F7B090" data-color="4" data-darkreader-inline-fill="" style="--darkreader-inline-fill: #f6a682;"></path>
        <path d="M114.404 46.083c-.137-.287-.449-.341-.668-.133-.214.202-.334.532-.345.838-.006.175.02.375.101.534.045.164.143.289.322.328.609.132.792-1.143.59-1.567z" fill="#260E04" data-color="1" data-darkreader-inline-fill="" style="--darkreader-inline-fill: #dbd8d3;"></path>
        <path d="M119.116 48.38c.61.133.793-1.142.59-1.566-.137-.287-.449-.341-.668-.133-.214.202-.334.532-.345.838-.006.175.02.375.101.534.045.164.142.288.322.327z" fill="#260E04" data-color="1" data-darkreader-inline-fill="" style="--darkreader-inline-fill: #dbd8d3;"></path>
        <path d="M68.197 59.105c.057-.324-.436-.463-.493-.137-.071.404-.01.8.203 1.153.171.283.613.024.442-.26a1.087 1.087 0 0 1-.152-.756z" fill="#260E04" data-color="1" data-darkreader-inline-fill="" style="--darkreader-inline-fill: #dbd8d3;"></path>
        <path d="M79.376 58.292c-.054.128-.038.276.092.352.107.063.296.036.35-.092a1.047 1.047 0 0 0-.155-1.111c-.209-.256-.569.11-.362.364.105.129.14.332.075.487z" fill="#260E04" data-color="1" data-darkreader-inline-fill="" style="--darkreader-inline-fill: #dbd8d3;"></path>
        <path d="M87.41 67.182c.188-.273-.255-.531-.442-.26a.893.893 0 0 0 .134 1.139c.243.223.606-.141.362-.364a.381.381 0 0 1-.054-.515z" fill="#260E04" data-color="1" data-darkreader-inline-fill="" style="--darkreader-inline-fill: #dbd8d3;"></path>
        <path d="M96.881 67.231a1.11 1.11 0 0 0 .168-1.214c-.137-.301-.578-.039-.442.26a.566.566 0 0 1-.088.59c-.214.249.146.615.362.364z" fill="#260E04" data-color="1" data-darkreader-inline-fill="" style="--darkreader-inline-fill: #dbd8d3;"></path>
        <path d="M123.346 49.052a1.54 1.54 0 0 0 .128-1.025c-.069-.324-.562-.187-.493.137a.965.965 0 0 1-.076.628c-.145.296.296.557.441.26z" fill="#260E04" data-color="1" data-darkreader-inline-fill="" style="--darkreader-inline-fill: #dbd8d3;"></path>
        <path d="M110.662 46.846a.911.911 0 0 1-.061-.838c.134-.3-.307-.562-.442-.26-.199.446-.189.933.061 1.358.168.285.611.026.442-.26z" fill="#260E04" data-color="1" data-darkreader-inline-fill="" style="--darkreader-inline-fill: #dbd8d3;"></path>
        <path d="M119.284 26.569c-.091-.092-.273-.107-.362 0a.772.772 0 0 0-.083.905c.172.282.615.023.442-.26-.051-.084-.068-.196.003-.281.088-.106.103-.259 0-.364z" fill="#260E04" data-color="1" data-darkreader-inline-fill="" style="--darkreader-inline-fill: #dbd8d3;"></path>
        <path d="M129.236 29.539a.969.969 0 0 0 .194-.894c-.093-.317-.587-.182-.493.137a.429.429 0 0 1-.062.392c-.087.108-.105.259 0 .364.09.091.274.109.361.001z" fill="#260E04" data-color="1" data-darkreader-inline-fill="" style="--darkreader-inline-fill: #dbd8d3;"></path>
        <path d="M121.308 56.715c-.044.011-.087.021-.13.034a.494.494 0 0 0-.036.011c-.03.009-.061.017-.091.027-.015-.162-.033-.324-.051-.486a4.898 4.898 0 0 0-1.961 2.477c.31-.261.614-.537.92-.803a6.364 6.364 0 0 0-.121.284 4.3 4.3 0 0 1 1.47-1.544z" fill="#260E04" data-color="1" data-darkreader-inline-fill="" style="--darkreader-inline-fill: #dbd8d3;"></path>
        <path d="M111.917 55.601c.007.119.013.238.022.357a2.201 2.201 0 0 0-.355-.066c-.048-.005-.098-.007-.147-.01a4.603 4.603 0 0 1 1.553 2.03l.363.429c.132.157.267.312.404.463a5.109 5.109 0 0 0-1.84-3.203z" fill="#260E04" data-color="1" data-darkreader-inline-fill="" style="--darkreader-inline-fill: #dbd8d3;"></path>
        <path d="M105.015 98.543c-1.903-.251-3.913-.547-5.621-1.47a7.247 7.247 0 0 1-.09.345c-.016.055-.034.108-.052.162 1.393.727 2.968 1.055 4.517 1.299 2.307.364 4.639.549 6.972.627 2.349.079 4.701.053 7.051.005 2.303-.047 4.611-.075 6.909-.246 1.833-.136 3.662-.378 5.444-.82.065-.187.118-.379.161-.572-3.745.975-7.667 1.015-11.522 1.102-4.59.103-9.206.169-13.769-.432z" fill="#260E04" data-color="1" data-darkreader-inline-fill="" style="--darkreader-inline-fill: #dbd8d3;"></path>
        <path d="M101.902 160.328c.009.172.018.344.029.516 3.994.158 7.991.205 11.988.14l-.022-.515c-3.999.066-7.999.018-11.995-.141z" fill="#260E04" data-color="1" data-darkreader-inline-fill="" style="--darkreader-inline-fill: #dbd8d3;"></path>
        <path d="m114.795 161.086.03.516c3.483.046 6.966-.037 10.442-.25l-.03-.513c-3.476.212-6.959.294-10.442.247z" fill="#260E04" data-color="1" data-darkreader-inline-fill="" style="--darkreader-inline-fill: #dbd8d3;"></path>
        <path d="M123.878 106.352a14.053 14.053 0 0 0 4.648 2.223l.025-.528a13.672 13.672 0 0 1-4.415-2.139c-.266-.196-.522.251-.258.444z" fill="#260E04" data-color="1" data-darkreader-inline-fill="" style="--darkreader-inline-fill: #dbd8d3;"></path>
        <path d="M103.14 104.716a12.6 12.6 0 0 1-4.562 1.63l-.001.523a13.1 13.1 0 0 0 4.821-1.708c.283-.169.026-.614-.258-.445z" fill="#260E04" data-color="1" data-darkreader-inline-fill="" style="--darkreader-inline-fill: #dbd8d3;"></path>
        <path d="M111.726 42.009a.252.252 0 0 0 .061-.061.727.727 0 0 1 .359-.28.782.782 0 0 1 .265-.04c.175.002.36.051.545.123.382.149.76.397 1.028.529a8.378 8.378 0 0 0 1.992.688c1.426.3 2.901.263 4.331.006l.147-.029c.312-.063.62-.142.931-.209.279-.06.435-.004.519.115.118.166.097.455.07.728a7.776 7.776 0 0 0 .136 2.415c.083.385.193 1.247.611 1.479a.49.49 0 0 0 .091.039c.245.074.408-.057.523-.254.075-.128.13-.284.175-.43l.032-.107c.026-.092.049-.175.072-.239a15.7 15.7 0 0 1 .091-.254c.087-.237.179-.478.27-.722.184-.489.364-.99.492-1.496.072-.285.127-.572.157-.859.025-.246.032-.492.014-.739a3.61 3.61 0 0 0-.071-.502l-.003-.012c-.297-1.34-1.28-2.436-2.271-3.321a14.137 14.137 0 0 0-3.728-2.402c-.106-.047-.214-.092-.322-.137a29.372 29.372 0 0 0-.314-.127c-1.192-.468-2.48-.808-3.753-.738-1.372.075-2.807.719-3.47 1.992a3.34 3.34 0 0 0-.372 1.431c-.009.221.001.443.027.664.066.556.23 1.109.436 1.642a8.65 8.65 0 0 0 .114 3.124c.028.129.09.22.17.28a16.053 16.053 0 0 1 .645-2.297z" fill="#7F442D" data-color="6" data-darkreader-inline-fill="" style="--darkreader-inline-fill: #d29780;"></path>
        <path d="M89.182 65.817a.327.327 0 0 0 .162.027c.219-.019.501-.146.575-.372.049-.15-.027-.303-.157-.38a.49.49 0 0 0-.381-.03c-.226.066-.561.295-.432.575a.319.319 0 0 0 .233.18z" fill="#260E04" data-color="1" data-darkreader-inline-fill="" style="--darkreader-inline-fill: #dbd8d3;"></path>
        <path d="m112.182 115.906.928 7.525c.07-.724.152-1.447.244-2.168l-.661-5.357c-.04-.325-.552-.329-.511 0z" fill="#260E04" data-color="1" data-darkreader-inline-fill="" style="--darkreader-inline-fill: #dbd8d3;"></path>
        <path d="M92.878 103.187c-.07.247-.16.483-.268.709a4.023 4.023 0 0 1-1.906 1.911.405.405 0 0 1-.095.031 16.157 16.157 0 0 1-.29 3.9c-.156.782-.436 1.557-.467 2.359-.032.815.466 1.435.531 2.22.093 1.127-.562 2.216-1.281 3.024-.851.956-1.961 1.637-3.1 2.187-.603.291-1.22.553-1.837.811-.531.222-1.093.439-1.679.415-.937-.04-1.783-.772-1.591-1.776.212-1.109 1.309-1.98 2.03-2.771.893-.98 1.763-2.041 2.076-3.365.22-.929.184-1.889.078-2.841a32.347 32.347 0 0 1-5.876 2.32c-1.857.527-3.787.923-5.714 1.057-1.107.077-2.24.01-3.269-.358a5.15 5.15 0 0 1-.527-.221l1.359 18.861c.493 6.847.974 13.695 1.482 20.541.273 3.678.586 7.354 1.071 11.01l.032.249-.108.387-.014.051a1.288 1.288 0 0 0-.154.666c.01.327.137.637.253.938.117.301.2.633.376.906.239.372.604.523 1.001.552.158.011.32.003.482-.019l.045-.007c.844-.12 1.685-.388 2.512-.589.741-.179 1.486-.346 2.225-.532.149-.037.298-.074.447-.114l.049-.014c.486-.138.964-.411.889-1.001-.077-.602-.685-1.252-1.115-1.643l-.054-.045a29.071 29.071 0 0 1-.116-1.036c-.46-4.755.111-9.552.689-14.278a573.882 573.882 0 0 1 2.732-19.528l.011.257a84.351 84.351 0 0 1 1.334-6.87c.077-.323.57-.185.493.137a83.595 83.595 0 0 0-1.7 9.586l.584 13.118.21 4.708c.063 1.407.055 2.845.173 4.253.015.174.031.348.05.521l.003.03c.102.927.628 1.509 1.336 1.86.151.075.312.139.477.194.961.32 2.124.323 3.029.231.338-.034.675-.102.989-.215.175-.063.343-.14.499-.234.361-.217.662-.522.854-.946.174-.385.239-.805.283-1.225l.042-.431.008-.084.233-2.364.945-9.589c.628-6.368 1.428-12.749 1.73-19.143.3-6.338-.118-12.823-2.481-18.761zm-6.28 49.791z" opacity=".2"></path>
        <path d="M129.144 37.452c-.756-1.196-1.988-2.36-2.392-3.76a3.49 3.49 0 0 1-.103-.477 7.265 7.265 0 0 1-1.981.688l-1.923.699-.301-.619-.273-.562-.034-.071a3.697 3.697 0 0 1-.799-.475 4.141 4.141 0 0 1-.955-1.063 5.416 5.416 0 0 1-.619-1.429 7.103 7.103 0 0 1-.12-.504 6.897 6.897 0 0 0-3.034 1.177 5.386 5.386 0 0 1 .903.334c1.008.476 1.84 1.327 2.177 2.409.143.458.27 1.121.087 1.584-.075.19-.216.296-.371.312a.487.487 0 0 1-.318.221.517.517 0 0 1-.362-.05.524.524 0 0 1-.458.176l-.026-.005.322.137a14.071 14.071 0 0 1 3.728 2.402c.991.885 1.974 1.981 2.271 3.321.249-.062.5-.11.752-.143a3.108 3.108 0 0 1 .246-1.685c.133-.303.574-.04.442.26a2.486 2.486 0 0 0-.182 1.377 6.847 6.847 0 0 1 2.005.188c.32.078.184.575-.136.497a6.234 6.234 0 0 0-3.053.019c.018.246.011.493-.014.739.461.835 1.044 2.634.324 3.478a1.235 1.235 0 0 1-.645.388 4.326 4.326 0 0 0 3.378-.399c1.464-.85 2.146-2.406 2.356-4.036.229-1.771.078-3.594-.892-5.128z" opacity=".2"></path>
        <path d="M117.526 34.962c-.465.245-.972.16-1.433-.184l-.198-.151c-.288-.222-.558-.428-.927-.541a2.45 2.45 0 0 0-1.394.003.242.242 0 0 1-.176-.014.223.223 0 0 1-.197-.181 2.527 2.527 0 0 1 .206-1.75c.124-.236.288-.451.492-.634a9.051 9.051 0 0 0-3.093 1.171c-.946.578-2.026 1.387-2.473 2.443-.429 1.014.033 2.11.664 2.925.379.49.842.897 1.363 1.21a4.216 4.216 0 0 1-.027-.664 3.34 3.34 0 0 1 .372-1.431c.663-1.273 2.098-1.917 3.47-1.992 1.273-.069 2.561.27 3.753.739-.202-.161-.269-.44-.338-.714-.02-.08-.04-.159-.064-.235z" opacity=".2"></path>
        <path d="M91.553 99.596a1.361 1.361 0 0 0-.773-.289c-.236-.013-.543.061-.766-.043-.786-.365.14-.683.396-.691.345-.011.689.068 1.031-.013.581-.137.999-.654.748-1.256-.273-.653-.999-.759-1.624-.77a15.81 15.81 0 0 0-2.749.197c-.794.127-1.535.392-2.093.995-.267.289-.485.624-.79.876-.1.083-.208.155-.32.219a2.78 2.78 0 0 1-.569.244 3.436 3.436 0 0 1-.443.106c-.975.166-1.955-.085-2.894-.353.003.015.004.031.003.045-.013.16-.022.321-.032.481a20.05 20.05 0 0 0 .245 4.51c1.103-.093 2.227-.178 3.331-.066a8.85 8.85 0 0 1 .877.134c.721.153 1.361.455 2.032.747.524.228 1.08.417 1.659.349.422-.05.839-.218 1.135-.531l.023-.023c.21-.231.292-.496.338-.779.022-.14.035-.284.05-.43.038-.385.093-.575.443-.755.188-.097.36-.178.438-.391a.58.58 0 0 0-.048-.49c-.041-.077-.111-.136-.156-.209-.229-.371-.165-.921.416-.814.146.027.262-.04.315-.18a.74.74 0 0 0 .044-.38.729.729 0 0 0-.267-.44z" fill="#F7B090" data-color="4" data-darkreader-inline-fill="" style="--darkreader-inline-fill: #f6a682;"></path>
        <path d="M92.328 92.168c-.156.231-.411.523-.423.822-.024.629.599.494.934.266l.108-.076c-.22.398-.514.971-.182 1.342.391.437.869-.054 1.169-.339-.086.199-.124.403-.047.593.222.544.662.339 1.084-.049a.474.474 0 0 0 .253.344c.203.104.473.056.666-.102.058-.048.114-.1.168-.157.11-.114.212-.244.309-.382.226-.321.421-.682.606-.978a15.35 15.35 0 0 0 .967-1.812 1.026 1.026 0 0 1-.23-.023 1.238 1.238 0 0 1-.199-.059c-.026-.01-.051-.022-.077-.033-.451-.193-.864-.514-1.276-.774l-1.04-.654c-.197-.11-.392-.224-.583-.343a11.46 11.46 0 0 0-1.644 1.653 11.32 11.32 0 0 0-.563.761z" fill="#F7B090" data-color="4" data-darkreader-inline-fill="" style="--darkreader-inline-fill: #f6a682;"></path>
        <path d="M97.941 91.639c-.282.626-.604 1.23-.967 1.812-.185.296-.38.658-.606.978.077.013.15.057.194.125a7.507 7.507 0 0 0 1.637-2.78c.021-.064.043-.127.062-.191a1.056 1.056 0 0 1-.32.056z" fill="#260E04" data-color="1" data-darkreader-inline-fill="" style="--darkreader-inline-fill: #dbd8d3;"></path>
        <path d="M96.367 94.429a3.197 3.197 0 0 1-.309.382c-.054.056-.11.109-.168.157-.193.158-.462.207-.666.102a.474.474 0 0 1-.253-.344c-.422.388-.862.593-1.084.049-.077-.19-.039-.394.047-.593-.3.285-.778.776-1.169.339-.332-.371-.038-.944.182-1.342l-.108.076c-.335.229-.958.364-.934-.266.011-.299.267-.591.423-.822a11.958 11.958 0 0 1 .913-1.177l-3.507-.476-.8-.109-.569-.077-.326-.044c-.433-.059-.9-.081-1.306-.259l-.018-.009a1.73 1.73 0 0 1-.587-.443l.001.015c.113.804.303 1.584.569 2.346a32.58 32.58 0 0 1 1.204-1.518c.123-.144.292-.086.376.037a.264.264 0 0 1-.014.328 29.472 29.472 0 0 0-1.512 1.943c-1.241 1.962-2.291 4.035-2.71 6.341a2.78 2.78 0 0 0 .569-.244c.112-.064.22-.137.32-.219.306-.252.523-.587.79-.876.559-.604 1.299-.868 2.093-.995a15.824 15.824 0 0 1 2.749-.197c.625.011 1.351.117 1.624.77.252.603-.167 1.12-.748 1.256-.342.081-.686.002-1.031.013-.256.008-1.182.325-.396.691.223.103.53.03.766.043.272.015.565.116.773.289a.723.723 0 0 1 .266.44l.334-.194c.194-.115.387-.233.58-.354l.129-.082c.102-.066.204-.133.305-.201 1.608-1.084 3.035-2.465 3.429-4.458a.253.253 0 0 0-.035-.193.28.28 0 0 0-.192-.125z" fill="#7F442D" data-color="6" data-darkreader-inline-fill="" style="--darkreader-inline-fill: #d29780;"></path>
        <path d="m92.822 100.187.156-.028a8.881 8.881 0 0 0 2.345-.79c.274-.137.069-.531-.198-.467a.29.29 0 0 0-.06.022c-.69.345-1.41.584-2.163.727l-.167.03a.522.522 0 0 0 .087.506z" fill="#260E04" data-color="1" data-darkreader-inline-fill="" style="--darkreader-inline-fill: #dbd8d3;"></path>
        <path d="M96.112 99.854c.036-.199-.16-.424-.367-.279a6.04 6.04 0 0 1-1.914.907.235.235 0 0 0-.114.067c.465.053.977.024 1.44-.025.293-.146.576-.313.847-.504a.257.257 0 0 0 .108-.166z" fill="#260E04" data-color="1" data-darkreader-inline-fill="" style="--darkreader-inline-fill: #dbd8d3;"></path>
        <path d="M99.07 98.083c.069-.162.128-.331.183-.503.017-.054.036-.107.052-.162a10.576 10.576 0 0 0 .218-.964c.144-.817.105-1.521-.19-2.298-.322-.849-.556-1.694-.646-2.602a.265.265 0 0 0-.072-.159 1.39 1.39 0 0 1-.355.187c-.019.064-.041.128-.062.191a7.499 7.499 0 0 1-1.637 2.78c.034.052.05.117.035.193-.394 1.992-1.821 3.374-3.429 4.458-.101.068-.203.135-.305.201l-.129.082c.02.024.043.046.068.067a.571.571 0 0 0-.066.127c.056-.01.112-.019.167-.03a8.294 8.294 0 0 0 2.163-.727.313.313 0 0 1 .06-.022c.267-.065.472.329.198.467a8.881 8.881 0 0 1-2.501.818.707.707 0 0 0 .181.167.8.8 0 0 0 .205.095c.159.048.331.08.509.1a.25.25 0 0 1 .114-.067 6.04 6.04 0 0 0 1.914-.907c.206-.145.403.08.367.279a.254.254 0 0 1-.108.166 6.496 6.496 0 0 1-.847.504c.143-.015.282-.032.413-.048.676-.086 1.335-.272 1.932-.609.579-.327.99-.748 1.29-1.237.032-.052.061-.106.091-.159.068-.126.13-.255.187-.388z" fill="#F7B090" data-color="4" data-darkreader-inline-fill="" style="--darkreader-inline-fill: #f6a682;"></path>
    </g>
</svg>