<svg preserveAspectRatio="xMidYMid meet" data-bbox="20 20.5 160 159" viewBox="20 20.5 160 159" height="200" width="200" xmlns="http://www.w3.org/2000/svg" data-type="color" role="presentation" aria-hidden="true" aria-label="">
    <g>
        <path d="m20 90.76 42.843 32.189L180 99.665l-50.043-27.798L20 90.76z"></path>
        <path d="M20 90.76v-2.105l160 9.263v1.746S65.568 113.858 65.056 113.453C64.544 113.048 20 90.76 20 90.76z" fill="#2A3D47" data-color="1" data-darkreader-inline-fill="" style="--darkreader-inline-fill: #223139;"></path>
        <path fill="#FFD9BF" d="m20 88.655 43.279 32.038L180 97.918l-50.043-27.797L20 88.655z" data-color="2" data-darkreader-inline-fill="" style="--darkreader-inline-fill: #592400;"></path>
        <path d="M63.791 122.153v46.761h-1.024v-46.761h1.024z"></path>
        <path fill="#2A3D47" d="M179.994 99.125v46.761h-1.024V99.125h1.024z" data-color="1" data-darkreader-inline-fill="" style="--darkreader-inline-fill: #adc3cf;"></path>
        <path fill="#2A3D47" d="M21.04 89.758v47.271h-1.024V89.758h1.024z" data-color="1" data-darkreader-inline-fill="" style="--darkreader-inline-fill: #adc3cf;"></path>
        <path d="M71.287 92.173s2.179-1.996 6.499-3.758c4.936-2.013 9.292-1.988 9.292-1.988s4.16-3.252 8.064-4.464 6.528-.974 6.528-.974l5.739 5.311s-22.142 21.263-22.398 21.263c-.257 0-13.724-15.39-13.724-15.39z" fill="#FFFFFF" data-color="3" data-darkreader-inline-fill="" style="--darkreader-inline-fill: #e8e6e3;"></path>
        <path d="M95.641 96.273a.255.255 0 0 1-.19-.084L87.131 87a.254.254 0 0 1 .018-.36.258.258 0 0 1 .362.018l8.32 9.189a.254.254 0 0 1-.019.36.252.252 0 0 1-.171.066z"></path>
        <path d="M100.507 82.027a19.801 19.801 0 0 0-10.462 4.379c-.255.208.109.567.362.361a19.206 19.206 0 0 1 10.1-4.23c.324-.035.328-.546 0-.51z"></path>
        <path d="M102.03 83.614a19.801 19.801 0 0 0-10.462 4.379c-.255.208.109.567.362.361a19.206 19.206 0 0 1 10.1-4.23c.324-.035.328-.546 0-.51z"></path>
        <path d="M85.478 88.111a19.801 19.801 0 0 0-10.462 4.379c-.255.208.109.567.362.361a19.206 19.206 0 0 1 10.1-4.23c.324-.035.327-.546 0-.51z"></path>
        <path d="M86.937 89.773a19.801 19.801 0 0 0-10.462 4.379c-.255.208.109.567.362.361a19.206 19.206 0 0 1 10.1-4.23c.324-.035.328-.546 0-.51z"></path>
        <path d="M90.163 93.85a19.801 19.801 0 0 0-10.462 4.379c-.255.208.109.567.362.361a19.206 19.206 0 0 1 10.1-4.23c.324-.035.327-.546 0-.51z"></path>
        <path fill="#FFD9BF" d="m99.871 153.655 2.849 18.018 18.532 1.849-2.053-18.175-19.328-1.692z" data-color="2" data-darkreader-inline-fill="" style="--darkreader-inline-fill: #ffc69f;"></path>
        <path d="M125.093 179.5a.51.51 0 0 1-.512-.51v-20.867a.51.51 0 0 1 .512-.51.51.51 0 0 1 .512.51v20.867a.51.51 0 0 1-.512.51z"></path>
        <path d="M161.996 175.922a.513.513 0 0 1-.501-.407l-4.334-20.802a.511.511 0 0 1 1.002-.207l4.333 20.802a.51.51 0 0 1-.5.614z"></path>
        <path d="M137.001 169.035a.513.513 0 0 1-.501-.407l-4.334-20.802a.511.511 0 0 1 1.002-.207l4.334 20.802a.51.51 0 0 1-.501.614z"></path>
        <path d="M113.312 132.236c-.509.435-20.608-3.117-26.88-1.587-6.272 1.531-9.679 5.74-9.192 14.923.488 9.183 4.968 25.637 4.968 25.637l18.362 3.125-2.304-22.193 27.302.779s11.529-11.939 10.26-13.087-10.736-11.352-10.736-11.352l-11.78 3.755z" fill="#FFD9BF" data-color="2" data-darkreader-inline-fill="" style="--darkreader-inline-fill: #ffc69f;"></path>
        <path opacity=".1" d="m99.871 153.655 2.849 18.018 18.532 1.849-2.053-18.175-19.328-1.692z"></path>
        <path d="M113.312 132.236c-.509.435-20.608-3.117-26.88-1.587-6.272 1.531-9.679 5.74-9.192 14.923.488 9.183 4.968 25.637 4.968 25.637l18.362 3.125-2.304-22.193 27.302.779s11.529-11.939 10.26-13.087-10.736-11.352-10.736-11.352l-11.78 3.755z" opacity=".1"></path>
        <path d="M93.628 174.032a.51.51 0 0 1-.502-.614l4.639-22.269a.511.511 0 0 1 1.002.207l-4.639 22.269a.51.51 0 0 1-.5.407z"></path>
        <path d="m168.032 97.615-7.712-20.346-5.6-.826-3.093 2.211 1.621 10.99s6.464 7.525 6.976 7.972c.512.446 7.424 2.041 7.424 2.041l.384-2.042z" fill="#FFA794" data-color="4" data-darkreader-inline-fill="" style="--darkreader-inline-fill: #ff9781;"></path>
        <path d="m163.488 93.279 4.544 4.337s1.728 3.89 1.28 7.525c-.448 3.635-2.624 6.005-4.16 6.287-1.536.282-10.112-6.925-10.112-6.925l8.448-11.224z" fill="#FFA794" data-color="4" data-darkreader-inline-fill="" style="--darkreader-inline-fill: #ff9781;"></path>
        <path d="m86.304 100.039-7.083 4.507s-.427 14.03 2.56 14.158c2.987.128 14.165-4.209 14.165-4.209s-1.451-10.459-1.621-10.714c-.17-.256-8.021-3.742-8.021-3.742z" fill="#FFA794" data-color="4" data-darkreader-inline-fill="" style="--darkreader-inline-fill: #ff9781;"></path>
        <path d="M123.552 72.999c.128.551-5.089 2.357-5.089 2.357s-3.2.704-4.864.577c-1.249-.097-2.591-.357-3.584-1.245-1.085-.969-1.259-2.321-1.275-3.643v-.214c0-.092 0-.189-.005-.281-.015-.995-.128-1.99-.164-2.99-.072-1.954-.164-3.918-.128-5.872.046-2.296 1.797-5.143 1.797-5.143s12.457 3.571 13.056 6.035c.599 2.47.128 9.868.256 10.419z" fill="#FFA794" data-color="4" data-darkreader-inline-fill="" style="--darkreader-inline-fill: #ff9781;"></path>
        <path d="M108.789 65.13c-.142.292-1.111 2.048-1.239 2.454-.133.424-.129.715.24.989.158.118 1.32.839 1.511.607 0 0 1.024-1.238.853-1.64-.17-.402-1.365-2.41-1.365-2.41z" fill="#FFA794" data-color="4" data-darkreader-inline-fill="" style="--darkreader-inline-fill: #ff9781;"></path>
        <path d="m116.512 75.486 2.368 6.058 10.56-.51.832-3.061-2.368-7.206s-6.72-.912-6.976-1.03c-.256-.118-4.416 5.749-4.416 5.749z" fill="#FFA794" data-color="4" data-darkreader-inline-fill="" style="--darkreader-inline-fill: #ff9781;"></path>
        <path d="M109.778 63.986c.096-.116.236-.196.371-.173.207.035.309.283.341.507.05.347.01.711-.09 1.053-.038.13-.09.265-.191.349-.159.132-.395.085-.526-.062-.131-.147-.173-.367-.17-.578.004-.346.03-.784.247-1.074l.018-.022z" opacity=".78"></path>
        <path d="M111.668 62.778a1.779 1.779 0 0 0-.64-.53 2.814 2.814 0 0 0-.972-.255c-.217-.022-.446-.027-.642.069-.196.095-.345.318-.288.528.046.17.208.282.371.35.505.209 1.14.117 1.615.431.15.099.364.299.56.196.292-.155.136-.589-.004-.789z" fill="#E66363" data-color="5" data-darkreader-inline-fill="" style="--darkreader-inline-fill: #e66666;"></path>
        <path d="M111.668 62.778a1.779 1.779 0 0 0-.64-.53 2.814 2.814 0 0 0-.972-.255c-.217-.022-.446-.027-.642.069-.196.095-.345.318-.288.528.046.17.208.282.371.35.505.209 1.14.117 1.615.431.15.099.364.299.56.196.292-.155.136-.589-.004-.789z" opacity=".26"></path>
        <path d="M111.167 70.162c-.732.648-1.562.878-2.427.883v-.214c0-.092 0-.189-.005-.281.737 0 1.449-.199 2.068-.745.246-.219.609.138.364.357z" opacity=".78"></path>
        <path d="M133.14 55.189c-.265-1.4-1.165-2.659-2.442-3.333-.876-.462-.854-.642-1.739-1.088-1.054-.531-.872-1.416-1.92-1.959-2.04-1.057-4.518-.669-6.729-.039-.238.068-.489.138-.729.077-.178-.046-.328-.16-.48-.263-1.783-1.219-4.27-1.177-6.154-.119-2.983 1.675-5.334 6.408-2.292 9.1 1.109.981 2.569 1.462 4.01 1.811-.386 1.573-.223 5.412.566 6.143.463.429.843-.173 1.11-.513.456-.582 1.113-1.188 1.926-.871.851.333 1.015 1.518.984 2.303a7.353 7.353 0 0 1-.473 2.252c.289 1.103.555 2.251.749 3.392 1.09.761 2.275 1.386 3.545 1.788 1.999.633 5.211.364 5.423-.103.212-.467 1.532-3.383 2.087-4.178.56-.802.595-1.843.875-2.78.391-1.31 1.278-2.446 1.568-3.782a4.522 4.522 0 0 0-.984-3.855c.051.06.83-1.346.88-1.482.188-.51.293-1.05.298-1.594a4.475 4.475 0 0 0-.079-.907z" fill="#993D3D" data-color="6" data-darkreader-inline-fill="" style="--darkreader-inline-fill: #c66f6f;"></path>
        <path d="M99.744 87.603c.005-.003 11.395-7.462 24.96-9.056 13.568-1.594 19.328 1.212 21.248 2.36 1.92 1.148 6.272 8.546 7.808 13.137 1.536 4.592 2.816 9.056 2.816 10.714 0 1.658-22.144 44.514-22.144 44.514l-9.344-13.137s-5.888-.383-9.217-1.403c-4.834-1.483-5.483-7.174-6.592-11.337l-4.052-15.21-3.779-14.184c-.114-.429-1.991-6.21-1.704-6.398z" fill="#E66363" data-color="5" data-darkreader-inline-fill="" style="--darkreader-inline-fill: #e66666;"></path>
        <path d="M114.358 81.672s.64-2.859 1.792-3.763c1.152-.903 10.219-2.827 13.76-2.827 3.541 0 5.248 2.551 5.888 3.869.64 1.318-8.747 5.187-9.131 5.314-.384.128-12.309-2.593-12.309-2.593z" fill="#E66363" data-color="5" data-darkreader-inline-fill="" style="--darkreader-inline-fill: #e66666;"></path>
        <path d="M99.744 87.603 84.811 97.7s.853 7.313 3.584 12.585c2.731 5.272 6.656 8.418 6.656 8.418l17.237-3.826-8.277-20.918-4.267-6.356z" fill="#E66363" data-color="5" data-darkreader-inline-fill="" style="--darkreader-inline-fill: #e66666;"></path>
        <path d="M145.952 80.907s7.381 5.144 10.624 7.27c3.243 2.126 6.912 5.102 6.912 5.102s1.195 4.081-1.195 10.884c-2.389 6.803-14.848 7.653-15.36 7.143-.512-.51-8.533-21.895-8.021-23.702.512-1.808 7.04-6.697 7.04-6.697z" fill="#E66363" data-color="5" data-darkreader-inline-fill="" style="--darkreader-inline-fill: #e66666;"></path>
        <path d="M151.947 100.615a.255.255 0 0 1-.254-.228l-1.527-14.267a.256.256 0 0 1 .509-.055l1.527 14.266a.256.256 0 0 1-.227.281.092.092 0 0 1-.028.003z" opacity=".43"></path>
        <path d="m79.221 104.545-6.229-2.976-6.656 4.167.679 4.035s1.241 1.646 4.142 3.899c2.901 2.253 7.509 5.549 11.093 5.036 3.584-.513 5.323-2.724 5.323-2.724s-4.128-5.097-4.427-5.822c-.298-.725-3.925-5.615-3.925-5.615z" fill="#FFA794" data-color="4" data-darkreader-inline-fill="" style="--darkreader-inline-fill: #ff9781;"></path>
        <path d="M73.943 102.1c-.099-.079-.077-1.1-.108-1.282a8.353 8.353 0 0 0-.356-1.365c-.436-1.231-1.042-2.639-1.84-3.686-.317-.416-1.238-1.438-1.833-.985-.364.277-.175.882-.028 1.228.259.609.518 2.459-.344 2.745-.587.195-1.407-.348-1.875-.629-1.369-.823-2.581-1.892-3.777-2.94-.714-.625-2.117-2.29-3.248-1.847-.476.186-.606.51-.563.861-1.71-.537-2.102 1.048-2.235 2.547-.086.969.307 1.679.875 2.443.077.104.158.205.236.308-1.126.205.23 2.113.595 2.55a64.707 64.707 0 0 0 2.711 3.023c.857.904 4.863 4.7 4.863 4.7s1.407-1.835 2.971-2.983c1.406-1.033 4.061-2.529 4.045-4.499a.237.237 0 0 0-.089-.189z" fill="#FFA794" data-color="4" data-darkreader-inline-fill="" style="--darkreader-inline-fill: #ff9781;"></path>
        <path d="M64.322 97.837a5749.988 5749.988 0 0 1-3.49-3.495c-.233-.233-.595.128-.362.361l3.49 3.495c.232.233.594-.128.362-.361z" opacity=".43"></path>
        <path d="M63.023 99.688a21.37 21.37 0 0 1-4.437-3.938c-.214-.25-.575.112-.362.361a21.863 21.863 0 0 0 4.541 4.017c.275.183.532-.259.258-.44z" opacity=".43"></path>
        <path d="M62.043 101.636a56.688 56.688 0 0 1-2.431-1.999c-.247-.215-.611.144-.362.361a56.688 56.688 0 0 0 2.431 1.999c.257.199.622-.159.362-.361z" opacity=".43"></path>
        <path d="M78.716 104.968c-1.066.957-2.337 1.659-3.324 2.707-.226.239.136.601.362.361.986-1.046 2.258-1.75 3.324-2.707.245-.22-.118-.58-.362-.361z" opacity=".43"></path>
        <path d="M166.423 95.348c-.784-.564-1.412-1.323-2.298-1.742-.296-.14-.556.3-.258.44.882.417 1.516 1.179 2.298 1.742.267.193.523-.25.258-.44z" opacity=".43"></path>
        <path d="M157.729 68.834c-.183-.697-.613-1.603-1.091-2.172-.588-.701-1.766-1.152-2.508-.486a2.288 2.288 0 0 0-2.021-.109 1.908 1.908 0 0 0-.855-.26c-.566-.034-1.161-.007-1.704.17-.607-.353-1.296-.442-2.084-.126-.812.326-1.421.963-2.043 1.552-.317.3-.642.597-1.008.838-.495.325-1.6.596-1.085 1.459.312.522 1.068.508 1.58.36.847-.245 1.523-1.075 2.394-1.208 1.245-.19.956 1.19 1.089 1.959.103.598.362 1.01.284 1.646-.008.068.043.125.093.161.4.296 1.187-.073 1.618-.164l2.94-.619 2.893-.609c.442-.093 2.154.011 2.154.011s-.522-1.928-.646-2.403z" fill="#FFA794" data-color="4" data-darkreader-inline-fill="" style="--darkreader-inline-fill: #ff9781;"></path>
        <path d="M151.092 67.789a3.433 3.433 0 0 0-.916-1.679c-.231-.235-.593.126-.362.361.401.409.66.896.784 1.454.072.32.565.185.494-.136z" opacity=".43"></path>
        <path d="M153.587 67.87a5.897 5.897 0 0 0-.686-1.538c-.175-.277-.618-.021-.442.257.281.444.491.911.635 1.416.088.316.583.182.493-.135z" opacity=".43"></path>
        <path d="M155.677 68.083a4.58 4.58 0 0 0-.866-1.783c-.202-.259-.562.104-.362.361.361.462.601.989.735 1.557.075.32.569.185.493-.135z" opacity=".43"></path>
        <path d="M152.883 59.188 141.56 75.682c-.012.017-.029.042-.05.064-.376.448-2.029 1.899-2.165 1.807-.135-.092.616-2.145.902-2.661l.003-.004a.46.46 0 0 1 .042-.07l11.322-16.494a.77.77 0 0 1 1.068-.2.763.763 0 0 1 .201 1.064z" fill="#FFD9BF" data-color="2" data-darkreader-inline-fill="" style="--darkreader-inline-fill: #ffc69f;"></path>
        <path d="M141.51 75.747c-.376.448-2.029 1.899-2.165 1.807-.135-.092.616-2.145.902-2.661l.003-.004 1.26.858z" fill="#2A3D47" data-color="1" data-darkreader-inline-fill="" style="--darkreader-inline-fill: #adc3cf;"></path>
        <path d="M160.471 77.709s-1.378-3.988-1.536-4.638a15.957 15.957 0 0 0-.661-2.091c-.144-.367-.266-.88-.613-1.113-.247-.167-.579-.12-.862-.124-.729-.011-1.458-.009-2.187-.013-1.191-.007-2.516-.119-3.665.264-1.08.359-.808 1.682-1.655 2.219a.188.188 0 0 0-.15-.032c-1.901.372-3.469-2.322-5.367-1.446-1.371.633.702 1.631 1.129 2.009.738.654 1.358 1.439 1.877 2.274.455.733.776 1.573 1.324 2.246 1.122 1.376 3.22 1.377 4.643 2.34.025.046.065.081.119.084.024.018.049.033.072.051.122.095.275.017.317-.089.429.038 1.063.262 1.408.24.621-.039 1.241-.148 1.852-.265 1.142-.217 2.512-.368 3.557-.904.825-.423.398-1.012.398-1.012z" fill="#FFA794" data-color="4" data-darkreader-inline-fill="" style="--darkreader-inline-fill: #ff9781;"></path>
        <path d="m165.792 108.799-2.135 39.708c-.174 3.229-2.621 5.882-5.837 6.337l-33.26 4.658c-2.504.352-4.685-1.709-4.465-4.224l.302-3.413.292-3.311 3.436-38.866c.497-5.831 2.627-10.403 9.416-12.061a21.72 21.72 0 0 1 2.975-.505l.159-.01 17.669-1.286c2.458-.097 4.403.036 5.944.378 1.669.367 2.862.98 3.707 1.821.005 0 .005 0 .005.005 2.202 2.187 2.028 5.912 1.792 10.769z" fill="#2A3D47" data-color="1" data-darkreader-inline-fill="" style="--darkreader-inline-fill: #adc3cf;"></path>
        <path d="M121.973 152.673s-32.085-4.167-33.28-3.316c-.65.463-.926 1.814-.577 2.534.849 1.751 7.213 2.261 9.081 2.686 3.656.831 7.317 1.643 10.985 2.417 3.426.723 6.859 1.432 10.313 2.008 1.608.268 3.978 1.007 5.611.539 2.901-.831 10.24-6.018 10.24-6.018l-12.373-.85z" fill="#2A3D47" data-color="1" data-darkreader-inline-fill="" style="--darkreader-inline-fill: #adc3cf;"></path>
        <path d="m139.977 113.63-3.072.082c0-.066-.179-6.382-1.224-10.153a42.269 42.269 0 0 0-2.14-5.933 21.72 21.72 0 0 1 2.975-.505l.159-.01a47.59 47.59 0 0 1 1.971 5.632c1.142 4.132 1.326 10.612 1.331 10.887z" fill="#FFFFFF" data-color="3" data-darkreader-inline-fill="" style="--darkreader-inline-fill: #e8e6e3;"></path>
        <path d="M138.968 154.628c-.2.071-1.51.505-4.311.505-1.408 0-3.19-.112-5.396-.429-3.599-.525-6.717-1.775-8.863-2.842l.292-3.311c1.848 1.015 5.156 2.561 9.016 3.122 5.796.842 8.207.077 8.233.066l1.029 2.889z" fill="#FFFFFF" data-color="3" data-darkreader-inline-fill="" style="--darkreader-inline-fill: #e8e6e3;"></path>
        <path d="m164.143 111.9-2.929-.929s.384-1.398.384-5.311c0-.607-.01-1.275-.031-2.005-.108-3.801-.84-6.291-1.28-7.454 1.669.367 2.862.98 3.707 1.821.005 0 .005 0 .005.005.312 1.454.573 3.301.64 5.536.175 6.042-.429 8.118-.496 8.337z" fill="#FFFFFF" data-color="3" data-darkreader-inline-fill="" style="--darkreader-inline-fill: #e8e6e3;"></path>
        <path d="M127.136 61.899c-1.244-.01-2.564-.044-3.768-.382a3.338 3.338 0 0 1-.931-.363 2.572 2.572 0 0 1-.684-.958c-.106-.09-.207-.24-.346-.282-.448-.137-1.031.389-1.414.49-1.478.39-2.838-.326-3.571-1.598-.164-.285-.607-.028-.442.258.444.77 1.068 1.396 1.915 1.72a3.698 3.698 0 0 0 1.58.229c.512-.038.986-.389 1.453-.431.505-.046.496.285.817.649.262.296.608.477.973.618 1.349.52 2.993.551 4.419.562.328.001.328-.51-.001-.512z" opacity=".43"></path>
        <path d="M131.143 59.219c-1.729 1.247-3.922 1.892-5.768.496-.262-.198-.518.244-.258.441 1.98 1.497 4.418.851 6.285-.496.264-.191.009-.634-.259-.441z" opacity=".43"></path>
        <path d="M108.435 115.987a.254.254 0 0 1-.097-.491c.084-.034 8.439-3.537 7.917-14.67-.478-10.217-8.841-15.568-8.926-15.621a.254.254 0 0 1-.08-.352.257.257 0 0 1 .353-.08c.087.054 8.674 5.549 9.165 16.029.539 11.506-8.149 15.132-8.237 15.167a.262.262 0 0 1-.095.018z" opacity=".43"></path>
        <path d="M115.488 81.034a.256.256 0 0 1-.078-.498c.035-.011 3.58-1.119 9.649-1.923 3.884-.514 9.437-.702 9.492-.704.131-.015.26.105.264.246a.254.254 0 0 1-.247.263c-.056.002-5.583.189-9.442.7-6.02.797-9.527 1.893-9.561 1.903a.208.208 0 0 1-.077.013z" opacity=".43"></path>
        <path d="M170.584 140.088c-.256-1.02-3.22-5.551-3.22-5.551.345-2.771.606-5.554.824-8.337.366-4.678.872-9.67.196-14.341-.232-1.601-.785-3.083-1.7-4.418-.582-.848-1.571-2.346-2.673-2.581-4.654-.993-25.984.383-27.648 3.061-1.664 2.678-5.898 46.289-5.35 47.498 1.158 2.558 4.466 3.678 6.968 4.358 2.568.698 4.99 1.077 7.63.753 2.846-.349 19.4-2.705 22.024-5.092 1.318-1.199 1.732-3.642 2.295-8.182.128-.995.241-1.969.338-2.862.25-2.25.398-3.989.316-4.306z" fill="#FFD9BF" data-color="2" data-darkreader-inline-fill="" style="--darkreader-inline-fill: #ffc69f;"></path>
        <path d="M170.267 144.394c-.097.893-.21 1.867-.338 2.862l-24.714 2.561.358-2.74 24.694-2.683z" fill="#FFFFFF" data-color="3" data-darkreader-inline-fill="" style="--darkreader-inline-fill: #e8e6e3;"></path>
        <path d="M148.896 108.754h-.007a.766.766 0 0 1-.761-.77c.016-2.135 1.122-6.265 5.196-6.608 1.827-.153 3.231.293 4.172 1.328 1.665 1.831 1.138 4.79 1.115 4.915a.767.767 0 0 1-.895.613.765.765 0 0 1-.615-.892c.004-.021.409-2.348-.746-3.613-.603-.66-1.579-.938-2.901-.827-3.694.311-3.788 4.901-3.79 5.096a.768.768 0 0 1-.768.758z" fill="#FFFFFF" data-color="3" data-darkreader-inline-fill="" style="--darkreader-inline-fill: #e8e6e3;"></path>
        <path d="M169.914 140.089c-.864.057-20.531 1.361-23.811 2.645-.696-1.983-3.24-3.913-4.355-4.682l24.815-2.797a.256.256 0 0 0 .226-.282.259.259 0 0 0-.284-.225l-25.557 2.881c1.116-10.345 2.12-21.138 1.764-23.687l25.073-2.251a.256.256 0 0 0 .232-.277.258.258 0 0 0-.278-.231l-25.135 2.257c-1.028-3.7-4.074-5.471-4.206-5.546a.255.255 0 1 0-.254.443c.031.018 3.113 1.807 4.025 5.437.473 1.883-.599 13.316-1.772 24.142 0 .012-.011.021-.009.033.001.004.004.006.005.009a1496.3 1496.3 0 0 1-2.375 20.466.254.254 0 0 0 .222.284l.032.002a.256.256 0 0 0 .254-.224c.1-.803 1.275-10.277 2.366-20.338l.068-.008c.112.07 4.135 2.626 4.744 5.007.626 2.449-2.109 16.857-2.137 17.002a.255.255 0 0 0 .252.303.255.255 0 0 0 .251-.208c.111-.583 2.658-14.006 2.169-17.018 2.229-.993 16.365-2.147 23.709-2.629a.257.257 0 0 0 .239-.271.253.253 0 0 0-.273-.237z" opacity=".43"></path>
        <path fill="#FFFFFF" d="M165.707 116.195c0 1.057-.86 1.913-1.92 1.913s-1.92-.856-1.92-1.913.86-1.913 1.92-1.913 1.92.856 1.92 1.913z" data-color="3" data-darkreader-inline-fill="" style="--darkreader-inline-fill: #e8e6e3;"></path>
        <path fill="#495AAB" d="M167.328 122.025c0 1.057-.86 1.913-1.92 1.913s-1.92-.856-1.92-1.913.86-1.913 1.92-1.913 1.92.856 1.92 1.913z" data-color="7" data-darkreader-inline-fill="" style="--darkreader-inline-fill: #7597c4;"></path>
        <path fill="#2A3D47" d="m78.796 81.942-12.8 2.381V67.159h12.8v14.783z" data-color="1" data-darkreader-inline-fill="" style="--darkreader-inline-fill: #adc3cf;"></path>
        <path d="M72.588 78.451a1.299 1.299 0 0 1-1.301-1.297V69.99h2.603v7.164a1.3 1.3 0 0 1-1.302 1.297z" fill="#FFFFFF" data-color="3" data-darkreader-inline-fill="" style="--darkreader-inline-fill: #e8e6e3;"></path>
        <path d="M104.503 67.952 38.968 78.149a3.502 3.502 0 0 1-3.974-2.758l-5.1-42.869a3.493 3.493 0 0 1 3.019-4.157l66.013-7.84a3.5 3.5 0 0 1 3.848 2.775l4.623 40.512a3.493 3.493 0 0 1-2.894 4.14z" fill="#2A3D47" data-color="1" data-darkreader-inline-fill="" style="--darkreader-inline-fill: #adc3cf;"></path>
        <path d="M103.267 66.213a3.63 3.63 0 0 1-.64.158L93.8 67.749 71.031 71.3l-11.254 1.755-1.633.25-1.459.23-2.355.367-14.039 2.189a3.312 3.312 0 0 1-3.758-2.607l-1.444-13.357-2.852-26.331c-.384-1.888.353-3.576 2.273-3.806l62.966-7.53a3.31 3.31 0 0 1 3.635 2.622l4.04 37.708c.327 1.617-.43 2.934-1.884 3.423z" fill="#FFFFFF" data-color="3" data-darkreader-inline-fill="" style="--darkreader-inline-fill: #e8e6e3;"></path>
        <path fill="#2A3D47" d="m58.599 85.211 24.705-4.641 3.481 2.09-25.12 4.943-3.066-2.392z" data-color="1" data-darkreader-inline-fill="" style="--darkreader-inline-fill: #adc3cf;"></path>
        <path d="M93.792 40.219c0 .404.162 2.226.305 2.686.143.46 2.34.588 2.682.418.341-.17 1.387-.34 1.365-.68-.021-.34-.619-2.551-.704-2.721-.085-.17-2.539-.744-2.539-.744l-1.109 1.041z" fill="#E66363" data-color="5" data-darkreader-inline-fill="" style="--darkreader-inline-fill: #e66666;"></path>
        <path d="M97.285 38.478c.12 1.289-.645 2.402-1.709 2.485-1.064.084-2.023-.893-2.143-2.182-.12-1.289.645-2.402 1.709-2.485 1.064-.084 2.023.893 2.143 2.182z" fill="#FFA794" data-color="4" data-darkreader-inline-fill="" style="--darkreader-inline-fill: #ff9781;"></path>
        <path fill="#FFA794" d="M94.739 43.182v-2.93l1.528-.15.839 2.847-2.367.233z" data-color="4" data-darkreader-inline-fill="" style="--darkreader-inline-fill: #ff9781;"></path>
        <path d="M94.739 41.792s.508.213 1.084.128c.576-.085.898-.278.898-.278s1.592.042 2.59.48c.944.415 1.248 1.987 1.248 1.987l-9.502 1.218s.294-2.123 1.553-2.74 2.129-.795 2.129-.795z" fill="#2A3D47" data-color="1" data-darkreader-inline-fill="" style="--darkreader-inline-fill: #adc3cf;"></path>
        <path d="M97.474 42.288c.005.02-.003.034-.003.052.076.1.18.169.292.131.12-.041.205-.174.349-.207.18-.041.328.021.506.028.172.006.215-.068.261-.191-.068-.115-.137-.221-.177-.305-.323-.673-.351-1.4-.621-2.104-.407-1.061-.471-2.328-1.316-3.169-.79-.787-2.096-.863-3.07-.286-.936.555-.74 1.972-.708 2.916.016.471.063.941.102 1.411.045.544.13 1.1.116 1.646a18.32 18.32 0 0 0-.005.406c0 .075-.025.211.006.281.064.144.401-.151.532-.013.06.064.165.092.249.066.748-.239.332-1.139.287-1.714-.056-.735-.461-1.62-.407-2.345.047-.64.745-1.496.745-1.496s.512.193.704.413c.306.35.66.621.875 1.026.238.448.621.741.836 1.19.321.673.28 1.544.447 2.264z" fill="#E66363" data-color="5" data-darkreader-inline-fill="" style="--darkreader-inline-fill: #e66666;"></path>
        <path d="M98.806 50.085c.12 1.289-.645 2.402-1.709 2.485-1.064.084-2.023-.893-2.143-2.182-.12-1.289.645-2.402 1.709-2.485 1.063-.084 2.023.893 2.143 2.182z" fill="#FFA794" data-color="4" data-darkreader-inline-fill="" style="--darkreader-inline-fill: #ff9781;"></path>
        <path fill="#FFA794" d="M96.259 54.789v-2.93l1.529-.151.838 2.848-2.367.233z" data-color="4" data-darkreader-inline-fill="" style="--darkreader-inline-fill: #ff9781;"></path>
        <path d="m102.079 55.714-2.514.321-3.267.418-3.722.48s.297-2.122 1.556-2.74c.532-.26.988-.444 1.341-.566.491-.168.783-.23.783-.23s.512.214 1.085.128c.579-.082.901-.275.901-.275s.369.01.86.066c.082.01.169.02.256.036.481.066 1.034.184 1.469.378.95.412 1.252 1.984 1.252 1.984z" fill="#495AAB" data-color="7" data-darkreader-inline-fill="" style="--darkreader-inline-fill: #7597c4;"></path>
        <path d="m99.565 56.035-3.267.418-.824-2.826c.491-.168.783-.23.783-.23s.512.214 1.085.128c.579-.082.901-.275.901-.275s.369.01.86.066l.462 2.719z" fill="#FFFFFF" data-color="3" data-darkreader-inline-fill="" style="--darkreader-inline-fill: #e8e6e3;"></path>
        <path d="M99.436 48.991a1.796 1.796 0 0 0-.181-.426c-.229-.378-.8-1.016-1.195-1.216-.573-.289-1.088-.323-1.707-.152-.467.129-1.143.506-1.41.909-.424.639-.305 1.661-.234 2.421.019.2.185.266.351.168.424-.253.559-.795.868-1.179.264-.326.676-.57.76-.981.434.14.558.704.921.98.112.085.244.14.355.225.405.308.444.915.793 1.285.153.162.407.27.6.158.161-.093.214-.298.233-.482.033-.324.005-.651-.029-.975a4.309 4.309 0 0 0-.125-.735z" fill="#E66363" data-color="5" data-darkreader-inline-fill="" style="--darkreader-inline-fill: #e66666;"></path>
        <path d="M95.929 46.212c-.261-.111-.458-.004-.575.177-.21-.162-.543-.194-.792-.142-.363.076-.483.424-.436.759a.956.956 0 0 0-.214.23c-.159.253.006.549.166.757.355.462 1.253.402 1.688.079a.26.26 0 0 0 .106-.209 1.24 1.24 0 0 0 .297-.437c.128-.341.175-1.037-.24-1.214z" fill="#E66363" data-color="5" data-darkreader-inline-fill="" style="--darkreader-inline-fill: #e66666;"></path>
        <path d="M95.574 27.296c.12 1.289-.645 2.402-1.709 2.485-1.064.084-2.023-.893-2.143-2.182-.12-1.289.645-2.402 1.709-2.485 1.064-.083 2.023.894 2.143 2.182z" fill="#FFA794" data-color="4" data-darkreader-inline-fill="" style="--darkreader-inline-fill: #ff9781;"></path>
        <path fill="#FFA794" d="M93.028 32.001v-2.93l1.528-.151.839 2.848-2.367.233z" data-color="4" data-darkreader-inline-fill="" style="--darkreader-inline-fill: #ff9781;"></path>
        <path d="M95.574 27.296c-.12-1.289-1.079-2.266-2.143-2.182-1.064.084-1.829 1.197-1.709 2.485.087.934.616 1.702 1.305 2.024V32l2.367-.233-.68-2.31c.589-.434.945-1.253.86-2.161z" opacity=".24"></path>
        <path d="M95.466 25.219c-.172-.081-.357-.147-.532-.216-.488-.19-.979-.439-1.511-.414-.416.019-.803.208-1.129.444-.773.559-1.342 1.58-.91 2.468.068.139.211.283.375.246.148-.033.208-.189.257-.32a1.82 1.82 0 0 1 .529-.783c.252-.209.594-.338.933-.308.401.035.736.278 1.082.465.346.187.791.323 1.142.142a.854.854 0 0 0 .397-.488c.087-.245.089-.522-.04-.751-.124-.223-.345-.368-.593-.485z" fill="#2A3D47" data-color="1" data-darkreader-inline-fill="" style="--darkreader-inline-fill: #adc3cf;"></path>
        <path d="M93.028 30.611s.508.213 1.084.128c.576-.085.898-.278.898-.278s1.592.042 2.59.48c.944.415 1.248 1.987 1.248 1.987l-9.502 1.218s.294-2.123 1.553-2.74 2.129-.795 2.129-.795z" fill="#FFD9BF" data-color="2" data-darkreader-inline-fill="" style="--darkreader-inline-fill: #ffc69f;"></path>
        <path d="m35.491 36.316 2.522 23.203c.032.298.128.586.279.844l5.262 8.969a2.136 2.136 0 0 0 2.166 1.028l39.494-6.052a2.127 2.127 0 0 0 1.788-2.401l-4.476-31.333a2.133 2.133 0 0 0-2.371-1.811l-42.802 5.213a2.128 2.128 0 0 0-1.862 2.34z" fill="#495AAB" data-color="7" data-darkreader-inline-fill="" style="--darkreader-inline-fill: #7597c4;"></path>
        <path d="M80.793 50.256c-1.235.888-1.535 2.264-1.598 3.706-.046 1.046.046 2.126-.316 3.129-.716 1.983-2.891 2.103-4.371.86-1.617-1.359-2.591-3.591-3.705-5.349-.739-1.166-1.758-2.631-3.348-2.489-1.582.141-2.272 1.9-2.821 3.138-.431.973-.809 1.971-1.313 2.91-.498.927-1.234 1.475-2.315.913-.327-.17-.623-.393-.942-.575-3.404-1.948-5.413 2.234-5.964 5-.064.321.431.454.495.132.37-1.859 1.673-5.794 4.297-5.119 1.172.301 2.521 1.994 3.861 1.286.608-.321.942-1.226 1.22-1.788.474-.955.846-1.955 1.292-2.922.494-1.07 1.033-2.366 2.381-2.401 1.427-.037 2.186 1.327 2.85 2.387 1.376 2.197 3.38 6.952 6.784 6.184 3.992-.9 1.082-6.628 3.776-8.564.263-.19.005-.631-.263-.438z" fill="#FFFFFF" data-color="3" data-darkreader-inline-fill="" style="--darkreader-inline-fill: #e8e6e3;"></path>
        <path d="M44.86 37.598a.256.256 0 0 1-.254-.224.254.254 0 0 1 .222-.284l13.69-1.698a.255.255 0 1 1 .063.507l-13.69 1.698-.031.001z" fill="#FFFFFF" data-color="3" data-darkreader-inline-fill="" style="--darkreader-inline-fill: #e8e6e3;"></path>
        <path d="M40.797 41.136a.256.256 0 0 1-.033-.509l23.178-2.985a.257.257 0 0 1 .287.22.256.256 0 0 1-.221.286L40.83 41.134l-.033.002z" fill="#FFFFFF" data-color="3" data-darkreader-inline-fill="" style="--darkreader-inline-fill: #e8e6e3;"></path>
        <path d="M41.047 44.307a.256.256 0 0 1-.033-.509l23.346-3.006a.258.258 0 0 1 .287.22.256.256 0 0 1-.221.286L41.08 44.305c-.011.002-.022.002-.033.002z" fill="#FFFFFF" data-color="3" data-darkreader-inline-fill="" style="--darkreader-inline-fill: #e8e6e3;"></path>
        <path d="M41.573 47.65a.256.256 0 0 1-.033-.508l23.482-3.024a.259.259 0 0 1 .287.22.256.256 0 0 1-.221.286l-23.482 3.024a.188.188 0 0 1-.033.002z" fill="#FFFFFF" data-color="3" data-darkreader-inline-fill="" style="--darkreader-inline-fill: #e8e6e3;"></path>
        <path d="M73.745 43.576c-2.864 0-5.204-2.31-5.226-5.168-.022-2.872 2.305-5.225 5.187-5.247h.041c1.381 0 2.681.531 3.666 1.498a5.17 5.17 0 0 1 1.559 3.671c.022 2.872-2.305 5.225-5.187 5.247-.014-.002-.027-.001-.04-.001zm.001-9.906h-.037c-2.599.02-4.699 2.143-4.679 4.733.019 2.578 2.131 4.662 4.714 4.662h.036c2.599-.02 4.698-2.143 4.679-4.733a4.663 4.663 0 0 0-1.406-3.312 4.693 4.693 0 0 0-3.307-1.35z" fill="#FFFFFF" data-color="3" data-darkreader-inline-fill="" style="--darkreader-inline-fill: #e8e6e3;"></path>
        <path fill="#FFFFFF" d="m68.922 39.628-.086-.503 9.792-1.66.086.503-9.792 1.66z" data-color="3" data-darkreader-inline-fill="" style="--darkreader-inline-fill: #e8e6e3;"></path>
        <path d="M73.747 38.802a.256.256 0 0 1-.19-.426l3.424-3.765a.257.257 0 0 1 .362-.018.254.254 0 0 1 .018.36l-3.425 3.765a.253.253 0 0 1-.189.084z" fill="#FFFFFF" data-color="3" data-darkreader-inline-fill="" style="--darkreader-inline-fill: #e8e6e3;"></path>
        <path d="M47.545 49.394a.25.25 0 0 0-.105-.126.203.203 0 0 0-.197-.084c-.837.082-1.818.44-2.353 1.13-.328.423-.237.909-.437 1.369-.302.695-.934.735-1.448 1.193-.339.302-.383.613-.575.995-.422.837-.948 1.202-1.643 1.764-.506.409-.727.758-.14 1.242.912.751 2.725.79 3.843.796.935.004 2.271-.026 2.959-.775.664-.723.683-2.283.802-3.178.197-1.478-.192-2.949-.706-4.326z" fill="#FFD9BF" data-color="2" data-darkreader-inline-fill="" style="--darkreader-inline-fill: #ffc69f;"></path>
        <path d="M53.939 46.882s.77 5.146-1.178 6.545-4.892-.993-5.753-3.273c-.861-2.279-.861-5.439.634-6.613 1.495-1.173 5.98.091 6.297 3.341z" fill="#FFA794" data-color="4" data-darkreader-inline-fill="" style="--darkreader-inline-fill: #ff9781;"></path>
        <path fill="#FFA794" d="m51.294 52.816-.259 3.383-2.719 1.152-1.535-1.594.247-6.178 4.266 3.237z" data-color="4" data-darkreader-inline-fill="" style="--darkreader-inline-fill: #ff9781;"></path>
        <path d="m50.776 55.314 2.238 1.043s-2.334 1.731-4.931 1.443c-2.597-.288-3.587-2.784-3.587-2.784l4.637-.061 1.643.359z" fill="#FFA794" data-color="4" data-darkreader-inline-fill="" style="--darkreader-inline-fill: #ff9781;"></path>
        <path d="M58.973 62.06c-.138 3.51-1.039 7.653-2.289 11.474l-2.355.367L40.29 76.09a3.312 3.312 0 0 1-3.758-2.607l-1.444-13.357c.522-.602.937-.995.937-.995 3.18-3.612 8.469-4.117 8.469-4.117s1.597.918 2.836 1.699c.358.224.707.403 1.029.495.097.026.195.046.302.061 1.49.168 4.091-1.036 4.091-1.036.22.056 2.442.607 4.157 1.5a.929.929 0 0 1 .143.076c.051.031.118.066.205.117l.277.163c.369.23.686.469.927.73l.005.005c.159.173.287.352.369.541.067.158.118.444.138.837.036.476.031 1.108 0 1.858z" fill="#FFD9BF" data-color="2" data-darkreader-inline-fill="" style="--darkreader-inline-fill: #ffc69f;"></path>
        <path d="m53.146 50.84-2.889-.132s.919 1.083 1.752 1.004c.834-.079 1.137-.872 1.137-.872z" fill="#FFFFFF" data-color="3" data-darkreader-inline-fill="" style="--darkreader-inline-fill: #e8e6e3;"></path>
        <path d="M72.992 57.351 71.031 71.3l-11.254 1.755-1.633.25c-.348-.571.835-2.235.983-2.541.149-.316 4.864-4.143 4.864-4.143l.809 1.02 4.291-11.097 3.901.807z" fill="#FFA794" data-color="4" data-darkreader-inline-fill="" style="--darkreader-inline-fill: #ff9781;"></path>
        <path d="M63.991 66.622s-2.611 4.638-4.214 6.433l-1.633.25-1.459.23-2.355.367c.486-1.959 3.533-12.255 3.727-12.637.215-.423.404-2.444.404-2.444l.005.005c.077.041.696.439 1.894 2.311 1.281 2 3.631 5.485 3.631 5.485z" fill="#FFD9BF" data-color="2" data-darkreader-inline-fill="" style="--darkreader-inline-fill: #ffc69f;"></path>
        <path d="M60.361 61.137c-1.198-1.873-1.818-2.27-1.894-2.311l-.005-.005c-.241-.26-.558-.5-.927-.73l-.277-.163c-.087-.051-.154-.087-.205-.117a1.157 1.157 0 0 0-.102-.056c-.026-.015-.041-.02-.041-.02-1.715-.893-3.937-1.444-4.157-1.5 0 0-2.601 1.204-4.091 1.036a2.642 2.642 0 0 1-.302-.061c-.323-.092-.671-.27-1.029-.495-1.239-.781-2.836-1.699-2.836-1.699s-5.289.505-8.469 4.117c0 0-.415.393-.937.995l1.444 13.357a3.31 3.31 0 0 0 3.758 2.607l14.039-2.189 2.355-.367 1.459-.23 1.633-.25c1.603-1.796 4.214-6.433 4.214-6.433s-2.35-3.486-3.63-5.486z" opacity=".1"></path>
        <path d="M52.456 43.146c-1.215-.922-2.933-.841-4.352-.501-1.502.36-2.301 1.14-2.842 2.574-.603 1.601-.15 2.972.545 4.447-.163.155-.027.5.246.43.561-.143.324 1.836.728 1.389.554-.613.807-3.157 1.522-3.678.525-.382 1.369-.876 1.779-1.435.339-.463.553-.989.725-1.53.768.269 1.461.658 2.046 1.235.273.269.46.647.807.822.135.068.344.019.376-.152.245-1.31-.537-2.809-1.58-3.601z" fill="#FFD9BF" data-color="2" data-darkreader-inline-fill="" style="--darkreader-inline-fill: #ffc69f;"></path>
        <path d="M79.02 53.822a1.808 1.808 0 0 0-.01-.353c-.024-.149-.08-.311-.215-.378-.119-.059-.261-.025-.387.015-1.103.347-2.094 1.091-3.248 1.164.081-.161-.044-.363-.211-.431-.166-.068-.355-.042-.533-.014-.423.067-.846.133-1.267.21-.829.151-1.662.345-2.403.742-.516.277-.987.66-1.32 1.143-.145.21-.331.494-.368.751-.046.32.225.591.451.778.314.26.644.514 1.028.651l1.474.529s2.943-.906 3.925-1.275a6.6 6.6 0 0 0 2.791-2.065c.049-.063.093-.133.13-.205.084-.092.159-.193.211-.311.122-.277.185-.717-.048-.951z" fill="#FFA794" data-color="4" data-darkreader-inline-fill="" style="--darkreader-inline-fill: #ff9781;"></path>
        <path d="M64.53 68.237c-.27.885-.492 1.78-.669 2.688-.062.321.431.458.494.136.177-.908.4-1.803.669-2.688.095-.316-.399-.45-.494-.136z" opacity=".43"></path>
        <path d="M74.398 55.418c-1.096.192-2.199.436-2.983 1.282-.223.241.138.603.362.361.724-.781 1.75-.974 2.757-1.151.324-.057.187-.548-.136-.492z" opacity=".43"></path>
        <path fill="#2A3D47" d="m85.045 23.77 6.11 45.388-.508.068-6.11-45.387.508-.069z" data-color="1" data-darkreader-inline-fill="" style="--darkreader-inline-fill: #adc3cf;"></path>
        <path fill="#2A3D47" d="m102.91 32.124.066.506-16.462 2.148-.066-.506 16.462-2.148z" data-color="1" data-darkreader-inline-fill="" style="--darkreader-inline-fill: #adc3cf;"></path>
        <path fill="#2A3D47" d="m103.84 43.392.066.506-16.13 2.104-.066-.506 16.13-2.104z" data-color="1" data-darkreader-inline-fill="" style="--darkreader-inline-fill: #adc3cf;"></path>
        <path fill="#2A3D47" d="m105.527 54.98.066.505-16.462 2.148-.066-.506 16.462-2.147z" data-color="1" data-darkreader-inline-fill="" style="--darkreader-inline-fill: #adc3cf;"></path>
        <path d="M100.026 60.718c.12 1.289-.645 2.402-1.709 2.485-1.064.084-2.023-.893-2.143-2.182-.12-1.289.645-2.402 1.709-2.485 1.064-.083 2.023.894 2.143 2.182z" fill="#FFA794" data-color="4" data-darkreader-inline-fill="" style="--darkreader-inline-fill: #ff9781;"></path>
        <path fill="#FFA794" d="M97.48 65.422v-2.93l1.529-.15.838 2.847-2.367.233z" data-color="4" data-darkreader-inline-fill="" style="--darkreader-inline-fill: #ff9781;"></path>
        <path d="M103.267 66.213a3.63 3.63 0 0 1-.64.158L93.8 67.749s.051-.423.215-.959c.056-.189.128-.388.21-.587.236-.561.599-1.122 1.126-1.377 1.26-.617 2.13-.791 2.13-.791s.507.209 1.085.128c.573-.087.896-.281.896-.281s1.592.041 2.591.48c.195.087.364.219.507.383.123.138.23.296.317.454.215.392.338.805.39 1.014z" fill="#65B8AB" data-color="8" data-darkreader-inline-fill="" style="--darkreader-inline-fill: #70bdb1;"></path>
        <path d="M102.877 65.198c-1.382.306-2.77.566-4.173.781-1.551.24-3.195.306-4.69.811.056-.189.128-.388.21-.587 1.26-.357 2.586-.454 3.886-.648a68.744 68.744 0 0 0 4.449-.811c.124.138.231.296.318.454z" fill="#FFFFFF" data-color="3" data-darkreader-inline-fill="" style="--darkreader-inline-fill: #e8e6e3;"></path>
        <path d="M100.399 60.193c-.031-.082-.087-.148-.108-.23-.031-.112.01-.23.041-.342a1.393 1.393 0 0 0-.021-.857 1.02 1.02 0 0 0-.573-.617c-.051-.02-.107-.036-.148-.071-.051-.036-.077-.097-.113-.148-.2-.316-.62-.439-.988-.393-.072.01-.138.02-.21.01-.082-.01-.159-.056-.236-.092a.761.761 0 0 0-.666.036c-.051.031-.097.066-.154.082-.061.015-.123.005-.184 0a1.44 1.44 0 0 0-1.05.378c-.128.117-.287.296-.333.469-.056.214.082.444.113.653.026.219-.036.444-.051.663-.015.224.041.48.236.592a.38.38 0 0 0 .236.046.732.732 0 0 0 .43-.179c.189-.148.343-.347.558-.454.154-.077.328-.107.466-.204.107-.077.189-.194.312-.255.174-.082.389-.02.553.071.169.097.317.23.497.306.102.041.215.066.287.153.077.097.072.235.092.357.031.255.174.49.384.633a.581.581 0 0 0 .266.097.271.271 0 0 0 .189-.061.435.435 0 0 0 .102-.168.923.923 0 0 0 .092-.342.328.328 0 0 0-.019-.133z" fill="#FFD9BF" data-color="2" data-darkreader-inline-fill="" style="--darkreader-inline-fill: #ffc69f;"></path>
        <path fill="#65B8AB" d="M37.543 91.69h-9.216l-1.513-16.095 12.245-.034-1.516 16.129z" data-color="8" data-darkreader-inline-fill="" style="--darkreader-inline-fill: #70bdb1;"></path>
        <path fill="#65B8AB" d="M39.079 75.534c0 1.15-2.75 2.083-6.144 2.083-3.393 0-6.144-.933-6.144-2.083 0-1.15 2.75-2.083 6.144-2.083 3.393 0 6.144.933 6.144 2.083z" data-color="8" data-darkreader-inline-fill="" style="--darkreader-inline-fill: #70bdb1;"></path>
        <path d="M31.723 77.8a11.388 11.388 0 0 1-3.359-.918l-.077-.602-1.198-9.571 3.328-.347 1.244 10.918.062.52z" fill="#FFD9BF" data-color="2" data-darkreader-inline-fill="" style="--darkreader-inline-fill: #ffc69f;"></path>
        <path d="M34.109 77.83c-.369.025-.758.041-1.172.041-.123 0-.246 0-.364-.01l-.041-.51-.891-11.77a.767.767 0 0 1 1.531-.112l.896 11.852.041.509z" fill="#2A3D47" data-color="1" data-darkreader-inline-fill="" style="--darkreader-inline-fill: #adc3cf;"></path>
        <path d="m41.195 66.673-3.369 9.673-.246.689a8.422 8.422 0 0 1-1.823.566l.2-.566 3.789-10.862a.766.766 0 1 1 1.449.5z" fill="#FFFFFF" data-color="3" data-darkreader-inline-fill="" style="--darkreader-inline-fill: #e8e6e3;"></path>
        <path d="M39.697 74.402a.255.255 0 0 1-.24-.342l2.276-6.253-1.321-.404a.256.256 0 1 1 .15-.488l1.578.483c.067.02.123.067.154.13a.26.26 0 0 1 .012.201l-2.368 6.505a.256.256 0 0 1-.241.168z" fill="#FFFFFF" data-color="3" data-darkreader-inline-fill="" style="--darkreader-inline-fill: #e8e6e3;"></path>
        <path fill="#65B8AB" d="M37.543 91.69c0 1.15-2.063 2.083-4.608 2.083-2.545 0-4.608-.933-4.608-2.083 0-1.15 2.063-2.083 4.608-2.083 2.545 0 4.608.933 4.608 2.083z" data-color="8" data-darkreader-inline-fill="" style="--darkreader-inline-fill: #70bdb1;"></path>
        <path d="M38.784 76.315c-.036.031-.399.372-1.203.719a8.422 8.422 0 0 1-1.823.566c-.481.102-1.029.184-1.649.23-.369.025-.758.041-1.172.041-.123 0-.246 0-.364-.01a7.814 7.814 0 0 1-.85-.061 11.388 11.388 0 0 1-3.359-.918c-.788-.352-1.254-.668-1.295-.699a.249.249 0 0 1-.067-.352.261.261 0 0 1 .358-.066c.01.01.343.235.927.515.763.362 1.94.816 3.374 1 .276.036.568.061.87.071.133.005.266.01.404.01.399 0 .778-.015 1.132-.041a12.078 12.078 0 0 0 1.889-.286c.471-.112.87-.245 1.198-.378.266-.107.492-.214.671-.311.415-.224.604-.393.609-.398a.252.252 0 0 1 .358.01.25.25 0 0 1-.008.358z" fill="#2A3D47" data-color="1" data-darkreader-inline-fill="" style="--darkreader-inline-fill: #adc3cf;"></path>
        <path d="M44.496 55.015s.908 3.175 1.509 5.017c.777 2.381 1.899 8.333 1.899 8.333l4.86-12.124s-2.528.389-4.434.152c-1.905-.237-3.834-1.378-3.834-1.378z" fill="#FFFFFF" data-color="3" data-darkreader-inline-fill="" style="--darkreader-inline-fill: #e8e6e3;"></path>
    </g>
</svg>