<svg preserveAspectRatio="xMidYMid meet" data-bbox="20.752 53.256 158.497 93.488" xmlns="http://www.w3.org/2000/svg" width="200" height="200" viewBox="20.752 53.256 158.497 93.488" data-type="color" role="presentation" aria-hidden="true" aria-label="">
    <g>
        <path fill="#F09C70" d="M179.249 146.744c-.058-19.214-19.176-34.777-42.755-34.777s-42.697 15.562-42.755 34.777h85.51z" data-color="1" data-darkreader-inline-fill="" style="--darkreader-inline-fill: #84360e;"></path>
        <path opacity=".12" d="M179.249 146.744c-.058-19.214-19.176-34.777-42.755-34.777s-42.697 15.562-42.755 34.777h85.51z"></path>
        <path fill="#F09C70" d="M150.114 113.806a50.295 50.295 0 00-5.357-1.168v-8.934H128.23v8.934a50.349 50.349 0 00-5.357 1.168c0 .023-.004.046-.004.069 0 7.524 6.1 13.624 13.624 13.624s13.624-6.1 13.624-13.624c.001-.023-.003-.046-.003-.069z" data-color="1" data-darkreader-inline-fill="" style="--darkreader-inline-fill: #f09a6d;"></path>
        <path opacity=".6" fill="#FFFFFF" d="M150.114 113.806a50.295 50.295 0 00-5.357-1.168v-8.934H128.23v8.934a50.349 50.349 0 00-5.357 1.168c0 .023-.004.046-.004.069 0 7.524 6.1 13.624 13.624 13.624s13.624-6.1 13.624-13.624c.001-.023-.003-.046-.003-.069z" data-color="2" data-darkreader-inline-fill="" style="--darkreader-inline-fill: #e8e6e3;"></path>
        <path opacity=".1" d="M128.23 106.916h16.527l.001 3.65s-3.137 1.236-9.216-.054c-6.08-1.289-7.311-2.75-7.311-2.75l-.001-.846z"></path>
        <path fill="#F4AA00" d="M110.965 82.776h51.057V67.274c0-7.742-6.276-14.018-14.018-14.018h-23.021c-7.742 0-14.018 6.276-14.018 14.018v15.502z" data-color="3" data-darkreader-inline-fill="" style="--darkreader-inline-fill: #ffbc21;"></path>
        <path fill="#F09C70" d="M159.273 84.412c0-12.581-10.199-22.779-22.779-22.779-12.581 0-22.779 10.199-22.779 22.779 0 .245.011.487.018.73-.008.243-.018.485-.018.73 0 12.581 10.199 22.779 22.779 22.779 12.581 0 22.779-10.199 22.779-22.779 0-.245-.011-.487-.018-.73.007-.243.018-.485.018-.73z" data-color="1" data-darkreader-inline-fill="" style="--darkreader-inline-fill: #f09a6d;"></path>
        <path opacity=".6" fill="#FFFFFF" d="M159.273 84.412c0-12.581-10.199-22.779-22.779-22.779-12.581 0-22.779 10.199-22.779 22.779 0 .245.011.487.018.73-.008.243-.018.485-.018.73 0 12.581 10.199 22.779 22.779 22.779 12.581 0 22.779-10.199 22.779-22.779 0-.245-.011-.487-.018-.73.007-.243.018-.485.018-.73z" data-color="2" data-darkreader-inline-fill="" style="--darkreader-inline-fill: #e8e6e3;"></path>
        <path opacity=".08" d="M136.493 85.595c1.211 0 2.219.842 2.487 1.971.045-.191.075-.387.075-.591a2.563 2.563 0 00-5.126 0c0 .204.03.401.075.591a2.563 2.563 0 012.489-1.971z"></path>
        <path d="M149.364 80.991a1.085 1.085 0 11-2.17 0 1.085 1.085 0 012.17 0z" fill="#1A1A1A" data-color="4" data-darkreader-inline-fill="" style="--darkreader-inline-fill: #d8d4cf;"></path>
        <path d="M125.793 80.991a1.085 1.085 0 11-2.17 0 1.085 1.085 0 012.17 0z" fill="#1A1A1A" data-color="4" data-darkreader-inline-fill="" style="--darkreader-inline-fill: #d8d4cf;"></path>
        <path fill="#1A1A1A" d="M127.472 92.996l-.002.088a9.023 9.023 0 0018.046 0l-.002-.088h-18.042z" data-color="4" data-darkreader-inline-fill="" style="--darkreader-inline-fill: #d8d4cf;"></path>
        <path fill="#C1272D" d="M132.314 101.088a8.978 8.978 0 008.316 0 5.68 5.68 0 00-8.316 0z" data-color="5" data-darkreader-inline-fill="" style="--darkreader-inline-fill: #db4d53;"></path>
        <path d="M165.123 140.22v6.524h-18.274v-6.524h18.274z" opacity=".2"></path>
        <path fill="#F4AA00" d="M115.171 85.993l5.244-17.014h32.048l4.712 16.982h4.595c.046-4.295.171-4.714.171-8.952 0-14.055-11.394-20.569-25.448-20.569-14.055 0-25.448 6.515-25.448 20.569 0 4.237.345 5.47 2.177 8.984h1.949z" data-color="3" data-darkreader-inline-fill="" style="--darkreader-inline-fill: #ffbc21;"></path>
        <path fill="#F09C70" d="M114.18 81.112h-1.046a3.3 3.3 0 000 6.6h.639a23.09 23.09 0 01-.084-1.887c0-1.616.171-3.192.491-4.713z" data-color="1" data-darkreader-inline-fill="" style="--darkreader-inline-fill: #f09a6d;"></path>
        <path opacity=".4" fill="#FFFFFF" d="M114.18 81.112h-1.046a3.3 3.3 0 000 6.6h.639a23.09 23.09 0 01-.084-1.887c0-1.616.171-3.192.491-4.713z" data-color="2" data-darkreader-inline-fill="" style="--darkreader-inline-fill: #e8e6e3;"></path>
        <path fill="#F09C70" d="M159.707 81.112h-1.046a22.87 22.87 0 01.491 4.713c0 .636-.033 1.264-.084 1.887h.639a3.3 3.3 0 100-6.6z" data-color="1" data-darkreader-inline-fill="" style="--darkreader-inline-fill: #f09a6d;"></path>
        <path opacity=".4" fill="#FFFFFF" d="M159.707 81.112h-1.046a22.87 22.87 0 01.491 4.713c0 .636-.033 1.264-.084 1.887h.639a3.3 3.3 0 100-6.6z" data-color="2" data-darkreader-inline-fill="" style="--darkreader-inline-fill: #e8e6e3;"></path>
        <path fill="#467A31" d="M106.262 146.744c-.058-19.214-19.176-34.777-42.755-34.777s-42.697 15.562-42.755 34.777h85.51z" data-color="6" data-darkreader-inline-fill="" style="--darkreader-inline-fill: #386227;"></path>
        <path fill="#F09C70" d="M77.127 113.806a50.295 50.295 0 00-5.357-1.168v-8.934H55.243v8.934a50.349 50.349 0 00-5.357 1.168c0 .023-.004.046-.004.069 0 7.524 6.1 13.624 13.624 13.624s13.624-6.1 13.624-13.624c.001-.023-.003-.046-.003-.069z" data-color="1" data-darkreader-inline-fill="" style="--darkreader-inline-fill: #f09a6d;"></path>
        <path opacity=".1" d="M55.243 106.916H71.77l.001 3.65s-3.137 1.236-9.216-.054c-6.08-1.289-7.311-2.75-7.311-2.75v-.846h-.001z"></path>
        <path fill="#F09C70" d="M86.863 88.122H40.194a3.3 3.3 0 010-6.6h46.669a3.3 3.3 0 010 6.6z" data-color="1" data-darkreader-inline-fill="" style="--darkreader-inline-fill: #f09a6d;"></path>
        <path opacity=".06" fill="#F09C70" d="M86.863 88.122H40.194a3.3 3.3 0 010-6.6h46.669a3.3 3.3 0 010 6.6z" data-color="1" data-darkreader-inline-fill="" style="--darkreader-inline-fill: #f09a6d;"></path>
        <g opacity=".06">
            <path d="M86.863 88.122H40.194a3.3 3.3 0 010-6.6h46.669a3.3 3.3 0 010 6.6z"></path>
            <path opacity=".06" d="M86.863 88.122H40.194a3.3 3.3 0 010-6.6h46.669a3.3 3.3 0 010 6.6z"></path>
        </g>
        <path d="M86.483 86.235c0 12.58-10.199 22.779-22.779 22.779S40.925 98.815 40.925 86.235s10.199-22.779 22.779-22.779 22.779 10.199 22.779 22.779z" fill="#F09C70" data-color="1" data-darkreader-inline-fill="" style="--darkreader-inline-fill: #f09a6d;"></path>
        <path opacity=".08" d="M63.528 84.952c1.211 0 2.219.842 2.487 1.971.045-.191.075-.387.075-.591a2.563 2.563 0 00-5.126 0c0 .204.03.401.075.591a2.563 2.563 0 012.489-1.971z"></path>
        <path d="M77.727 80.295a1.085 1.085 0 11-2.17 0 1.085 1.085 0 012.17 0z" fill="#1A1A1A" data-color="4" data-darkreader-inline-fill="" style="--darkreader-inline-fill: #d8d4cf;"></path>
        <path d="M51.456 80.295a1.085 1.085 0 11-2.17 0 1.085 1.085 0 012.17 0z" fill="#1A1A1A" data-color="4" data-darkreader-inline-fill="" style="--darkreader-inline-fill: #d8d4cf;"></path>
        <path fill="#24377F" d="M84.719 71.202c-3.371-8.4-11.584-14.335-21.19-14.335s-17.819 5.934-21.19 14.335h-1.316v5.058h45.012v-5.058h-1.316z" data-color="7" data-darkreader-inline-fill="" style="--darkreader-inline-fill: #8bb0de;"></path>
        <path d="M86.034 71.202v5.058H41.022v-5.058h45.012z" opacity=".1"></path>
        <path fill="#754938" d="M70.538 90.7h-6.463v1.64h8.096v-.007c0-.902-.731-1.633-1.633-1.633z" data-color="8" data-darkreader-inline-fill="" style="--darkreader-inline-fill: #c79c8b;"></path>
        <path fill="#754938" d="M63.333 90.7H56.87c-.902 0-1.633.731-1.633 1.633v.007h8.096V90.7z" data-color="8" data-darkreader-inline-fill="" style="--darkreader-inline-fill: #c79c8b;"></path>
        <path fill="#1A1A1A" d="M54.491 93.887l-.002.088a9.023 9.023 0 0018.046 0l-.002-.088H54.491z" data-color="4" data-darkreader-inline-fill="" style="--darkreader-inline-fill: #d8d4cf;"></path>
        <path fill="#FFFFFF" d="M54.491 93.887l-.002.088c0 .693.086 1.366.234 2.014h17.579a9.038 9.038 0 00.234-2.014l-.002-.088H54.491z" data-color="2" data-darkreader-inline-fill="" style="--darkreader-inline-fill: #e8e6e3;"></path>
        <path fill="#C1272D" d="M59.332 101.979a8.978 8.978 0 008.316 0 5.68 5.68 0 00-8.316 0z" data-color="5" data-darkreader-inline-fill="" style="--darkreader-inline-fill: #db4d53;"></path>
    </g>
</svg>