<svg preserveAspectRatio="xMidYMid meet" data-bbox="20.4 58.859 159.277 82.155" xmlns="http://www.w3.org/2000/svg" width="200" height="200" viewBox="20.4 58.859 159.277 82.155" data-type="color" role="presentation" aria-hidden="true" aria-label="">
    <g>
        <path fill="#FFFFC8" d="M41.8 79l1.8-1.1 9.9 7.8s3.2-8.3 3.5-8.5 2.8.8 2.8.8l7.8 40.2-5.7 1.9H56L41.8 79z" data-color="1" data-darkreader-inline-fill="" style="--darkreader-inline-fill: #ffffa6;"></path>
        <path fill="#91A0B7" d="M153.6 77.9c-.3.1-.5.3-.7.6l-4.2 5.4c-1.3 1.6-2.6 3.3-3.8 5-.1.2-.328.504-.428.804-.2 0-.249-.179-.349-.279-.5-.9-1.109-1.96-1.709-2.86-.3-.5-.786-1.2-1.186-1.5.1 0 .214-.523.314-.523 1.5-1.1 3.105-1.97 4.605-3.07 1.1-.8 2.523-1.621 3.523-2.721.7-.8 1.533-1.253 2.233-1.953.1-.1.298.203.398.103.2-.1.3-.1.4.1.299.199.599.499.899.899z" data-color="2" data-darkreader-inline-fill="" style="--darkreader-inline-fill: #afa89d;"></path>
        <path fill="#91A0B7" d="M139.169 80.042c.9 1.5 1.572 3.249 2.372 4.849-.4.3-.781.747-1.081 1.047-.7.9-1.363 1.677-2.163 2.477-.1.1-.533.523-.733.523.3-.7.219-1.886.419-2.686.1-.5.249-.965.349-1.465.2-1-.009-1.86-.209-2.86-.1-.5-.244-1-.244-1.5 0-.2-.079-.284-.279-.384.3-.4 1.03-.553 1.43-.453 0-.002.039.352.139.452z" data-color="2" data-darkreader-inline-fill="" style="--darkreader-inline-fill: #afa89d;"></path>
        <path fill="#D65D41" d="M144.158 90.402c-.1-.3-.658-1.202-.858-1.502-.5-1-1.1-1.9-1.6-2.9-.2-.4-.3-.4-.5-.1-1 1.1-2 2.2-3.1 3.3v1c.1.6.2 1.1.5 1.6v.1c-.2.2-.2.4-.1.7-.2.4-.526.756-.726 1.256-1.6 3.4-3.005 6.642-4.605 9.942-2 4.3-4 8.612-6 13.012-.2.4-.309 1-.209 1.5.7 1.9 1.358 3.965 2.058 5.965.2.7.582 1.326.982 2.026.1.3.1.6.5.7.3 0 .4-.3.6-.5v-.1c.6-1.1 1.3-2.2 1.9-3.3.5-.8 1.483-2.77 1.983-3.57.1-.6.06-.188.06-.788 0-.4.2-.9 0-1.3l.009-.353c.1-.3.091-.247.091-.547 0-2 .277-3.977.677-5.977.5-2.7 1.058-5.005 2.058-7.605.3-.9.572-1.647.872-2.547 0 0 .24-.109.14-.209 0 0 4.621-8.542 4.5-8.826.3-.6.868-.477.768-.977zM138.9 91.7h.1c0 .1-.1 0-.1 0z" data-color="3" data-darkreader-inline-fill="" style="--darkreader-inline-fill: #d96a50;"></path>
        <path fill="#E3BE9A" d="M90.3 125.9c-.2 0-.4-.1-.5-.3-.2-.2-.2-.4 0-.5s.3-.3.5-.5.3-.4.3-.7v-.6c.1-.7-.618-.497-1.018-.997-.7-.8-1.355-1.571-2.355-1.971-.5-.2-.891-.642-1.291-.942-.3-.2-.363-.522-.763-.622-.2.1-.1.3 0 .4l.3 1.2c.1.7 0 1.3-.2 1.9-.3.6-1.197.57-1.797.07-.4-.3-1.34-.93-1.64-1.43-.6-1-.658-2.847-.558-4.047 0-.5.82-.661.92-1.161.5-.3 1-.3 1.6-.2.9.2 1.9.4 2.9.5.8.1 1.6.1 2.4 0 .3 0 .6 0 .9-.1.3 0 .5.2.6.4.7 1 1.2 2.2 1.7 3.4.5 1.2.9 2.5 1.5 3.7.1.1.1.3.1.4-.5.3-.9-.1-1.4 0-.3.1-.7.7-.9 1.1-.398.6-.798.8-1.298 1z" data-color="4" data-darkreader-inline-fill="" style="--darkreader-inline-fill: #e0b890;"></path>
        <path fill="#A07C60" d="M77.407 126.316c-1.1-3.4-2.4-6.7-3.4-10.1 0-.1-.1-.3-.1-.4.8-.1 1.4-.4 2.1-.8.2 0 .4-.1.6-.2.6-.1 1.1-.3 1.7-.4s1.1 0 1.7.3c.7.3 1.4.8 2 1.3-.1.5-.4 1-.4 1.5 0 1.2.3 2.3.9 3.4.3.5.7.9 1.1 1.3.6.4 1.1.3 1.4-.3.3-.6.4-1.2.2-1.9l-.3-1.2c0-.1-.1-.3 0-.4.4.1.7.4 1.1.6.5.3.9.7 1.4.9 1 .4 1.8 1.2 2.5 2 .4.5 2.5 1.6 2.4 2.3 0 .2-.1.3-.4.5 0 .3-.4.2-.6.4-.2.2.2.4-.2 1-.5.5-1.2 0-.9.2.2.1-.2.3 0 .2 0 .4-.1.4-.3.8-.2.5-.4.6-.9.5-.2 0-.3 0-.3.2 0 .6-.4.9-.9 1.1-.2-.2 0-.3 0-.4.3-.6.5-1.3.7-1.9.1-.4 0-.6-.3-.8-.2-.1-.2-.2-.2-.4.1-.6-.4-.9-1-.7-.3.1-.6.3-.9.5-.4.3-.7.7-1.1 1.1.1-.3.1-.5.1-.7.1-.6 0-.7-.6-.9-.4-.1-.7.1-1 .3-.3.2-.5.4-.8.6-.2-.2-.1-.3 0-.4 0-.2.1-.4-.1-.6-.2-.1-.4 0-.5 0-.6.2-1.2.5-1.8.9-.6.4-1.2.6-1.9.7-.4-.2-.7-.2-1-.1z" data-color="5" data-darkreader-inline-fill="" style="--darkreader-inline-fill: #a98970;"></path>
        <path fill="#91A0B7" d="M138.7 91.8c-.4-.5-.5-1-.5-1.6v-1c-.2.2-.5.4-.7.6 0 .1-.289.153-.389.253-.7 2-1.267 3.895-2.267 5.895-1.6 3.3-3.502 6.463-5.302 9.663-2 3.6-3.863 7.402-5.163 11.302-1.4 4-2.428 7.86-3.628 11.86-.1.3-.105.821-.105 1.221.2.1.14.637.14.837.1 0 .614.068.814.068h.2c.3 0 .6 0 .9.1 1.5.1 3 .3 4.5.5.1-.1.1-.2 0-.3-.2-.3-.2-.6-.3-.9-.2-.5-.1-.7.4-.9.2-.1.4-.2.6-.2 1.3-.4 2.7-.7 4-1.1.7-.2 1.4-.3 2.1-.3.3 0 .5.1.8-.1-.2 0-.244-.251-.444-.251-.3 0-.209-.009-.209-.209.1-1.2.179-2.319.279-3.419s.284-2.981.384-4.081c-.5.8-1.309 2.461-1.809 3.261-.7 1.1-1.3 2.2-1.9 3.3v.1c-.1.2-.3.5-.6.5-.4 0-.4-.4-.5-.7-.4-.7-.6-1.4-.8-2.1-.7-1.9-1.3-3.9-2-5.9-.2-.5-.1-.8.1-1.3 1.9-4.3 3.9-8.7 6-13 1.6-3.4 3.1-6.7 4.7-10.1.2-.4.4-.8.5-1.3-.101-.2-.001-.5.199-.7z" data-color="2" data-darkreader-inline-fill="" style="--darkreader-inline-fill: #afa89d;"></path>
        <path fill="#E3BE9A" d="M138.84 130.435c-.1-.8-.1-1.7-.1-2.5h-.4c-.8-.1-1.6-.4-2.5-.3h-.7c-.2.2-.5.1-.8.1-.7 0-1.447-.103-2.147.097-1.3.4-2.712.647-4.012 1.047-.2.1-.602.144-.802.244-.5.2-1.007.547-.907 1.047.1.3.109.712.209 1.012.1.1.698.493.698.593-.2.4-.195.537.105.837.1.1.488.388.488.488.3.2.568.135.468.535-.1.2-.1.3-.1.5s.1.3.2.5l.1.1c.8.6 1.5 1.2 2.6 1 1.3-.3 2.6-.5 3.9-.7 1.7-.3 3.3-.7 5-.7-1-1.2-1.2-2.6-1.3-3.9z" data-color="4" data-darkreader-inline-fill="" style="--darkreader-inline-fill: #e0b890;"></path>
        <path fill="#A07C60" d="M59.1 70.3c-.4-1.1-.775-2.414-1.175-3.514-.3-.7-.223-1.388-.523-1.988-.1-.3-.781-.872-1.081-.872-1.8.3-3.567 1.149-5.267 1.849-.4.2-6.251 5.816-7.151 5.616-.3 0-1.016.358-1.116.558l-.349.453c-.8.8-.216 1.233.384 2.233.1.1.209.114.209.314.1 0 .27.433.07.733-.1.3 0 1.019-.3 1.219.1.1.1.2.1.3-.1.6-.1 1.1-.2 1.7.1 0 .1 0 .2.1 2.3 1.6 4.8 2.8 7 4.6 1 .8 2 1.4 3.1 2.1.1.1.2.1.3.1h.7c.7-1.5 1.4-3 1.9-4.7.7-.1 1.4-.4 2-.7.4-.2.7-.4.8-.8.2-.4.4-.9.6-1.3-.1-.4.1-.7.1-1.1 0-.3.1-.5.2-.7.1-.6.1-1.1.2-1.7C59.8 73.5 59.7 71.9 59.1 70.3z" data-color="5" data-darkreader-inline-fill="" style="--darkreader-inline-fill: #a98970;"></path>
        <path fill="#E3BE9A" d="M154.2 72c0-.2-.1-.4-.2-.6-1.5-.2-2.8.1-3.9 1.3-.3.4-.7.6-1.3.4-.3-.1.042-.049.242-.349 0-.1.074-.353.174-.453.6-.9.084-1.798-.516-2.497-.5-.6-.491-1.137-.391-2.037.1-.7-.409-1.463-.709-2.163-.1-.2-.3-.3-.5-.4-1.6-.9-3.2-1.9-4.6-3.2-.1 0-.2.1-.3.2-.6.7-1.3 1.4-1.8 2.2-.6.9-1.2 1.8-1.7 2.8-.4.9-.8 1.8-1.1 2.7-.5 1.3-.9 2.7-1.2 4.1-.2.9-.3 1.8-.4 2.7-.1.8.2 1.3.7 1.6.6.5 1.3.9 2.1 1l1.8.3-1.8-.3c0 .1 0 .2.1.3l.1.1c.1.1.1.2.1.3.9 1.5 1.6 3.2 2.4 4.8h.3c.1 0 .1-.1.2-.1 1.5-1.1 3-2.1 4.5-3.2 1.1-.8 2.4-1.5 3.4-2.6.7-.8 1.5-1.4 2.2-2.1-.2-.9-.1-1.8 0-2.6h.4c1.1-.001 1.9-1.101 1.7-2.201z" data-color="4" data-darkreader-inline-fill="" style="--darkreader-inline-fill: #e0b890;"></path>
        <path fill="#E3BE9A" d="M77.251 125.983c.3-.1.949.117 1.249.017.7-.1 1.3-.3 1.9-.7.6-.4 1.2-.6 1.8-.9.2-.1.3-.2.5 0s.2.4.1.6c0 .1-.1.3 0 .4.3-.2.5-.4.8-.6s.6-.4 1-.3c.6.2.7.2.6.9 0 .2-.1.4-.1.7.4-.4.7-.8 1.1-1.1.3-.2.6-.4.9-.5.6-.2 1 .1 1 .7 0 .2 0 .3.2.4.4.2.4.3.3.8-.2.7-.096 1.321-.396 1.921-.1.1-.07.209-.304.379-.1.1-.2.1-.3.2-.4.4-.4.4-.9.1-.3-.2-.7 0-.8-.4-.2.1-.3.3-.5.4-.5.4-.9.3-1.3-.1-.1-.1-.1-.2-.2-.2-.4-.5-.4-.5-1-.1-.4.3-.9.4-1.4.2-.2-.1-.5-.1-.7-.3-.5-.2-.9-.4-1.5-.3-.5.1-.9-.1-1.2-.5-.1-.1-.54-.221-.64-.321 0-.3-.309-.896-.209-1.396zM84.4 127.5c-.1.1-.3.2-.4.4.4-.1.4-.1.4-.4z" data-color="4" data-darkreader-inline-fill="" style="--darkreader-inline-fill: #e0b890;"></path>
        <path fill="#352C2C" d="M155.1 65.3c-.4-1.4-1.1-2.5-2.2-3.4-1.3-1-2.8-1.6-4.3-2-.9-.2-1.8-.3-2.7-.1-.6.2-1.3.4-1.9.8-.3.2-.6.3-.9.5-.1.1-.3.2-.4.3-.1.1-.3.2-.3.3v.1c0 .2.1.3.1.5 1.4 1.2 3 2.2 4.6 3.2.2.1.4.2.5.4.3.7.6 1.4.5 2.1-.2.8 0 1.4.6 2.1s.7 1.6.1 2.5c-.1.1-.1.2-.2.3-.2.3-.1.4.2.5.5.2.9 0 1.3-.4 1-1.2 2.3-1.6 3.9-1.3.4-.5.7-1 .9-1.6.5-1.8.7-3.3.2-4.8z" data-color="6" data-darkreader-inline-fill="" style="--darkreader-inline-fill: #c9c5be;"></path>
        <path fill="#91A0B7" d="M89.116 112.89h.1c1.1-.3 2.1-.5 3.2-.9-.3-.1-.416-.69-.416-.89-.4-1-.7-2.1-1.1-3.1-.5-1.4-1.2-2.7-1.7-4-1.1-2.7-2.4-5.3-4.1-7.7-2-2.8-4.4-5.4-6.9-7.8-2.9-2.8-6.1-5.4-9.7-7.3-1.4-.7-2.8-1.4-4.3-1.9-.4-.1-.7-.3-1.1-.2-.9-.7-2-1.3-3.1-1.7-.2 0-.4 0-.4.3 0 .4-.2.7-.1 1.1.3.7.4 1.4.4 2.2 0 2.8.3 5.5.7 8.2 0 .3.1.6.1.9l.2 1.2c.4 2.4.9 4.9 1.5 7.3.5 2 1.1 4 1.6 6 .6 2.7 1.1 5.4 1.6 8.2.3 1.5.6 2.9 1 4.4.2.6.2.6-.5.9-.2.1-.4.1-.6.2-.5.2-1 .3-1.5.3-1.5.3-2.9.5-4.4.5-.6 0-1.3 0-1.9-.1-.3 0-.5-.2-.5-.5-.4-2.7-.9-5.3-1.3-8-.7-4.3-1.8-8.4-3.2-12.5-.7-2.1-1.6-4.2-2.6-6.2l-.5-1.2c-.2-.1-.3-.3-.4-.5-1.4-3.2-3.1-6.2-5.3-8.9-.3-.4-.6-.9-.9-1.3-.1-.1-.2-.3-.2-.5.1-.6.1-1.2.2-1.7 0-.1 0-.2-.1-.3-.4.1-.8.2-1.2.2-.6.1-1.2.3-1.6.9l-.3.3h-.3c-.8.3-1.5.5-2.2.8-.2.1-.4.2-.7.2-1 0-1.8.3-2.7.7-2 .9-3.7 2.2-5.1 3.8-2.3 2.5-4.2 5.3-5.5 8.5-1.9 4.4-2.8 9-2.9 13.8 0 1.5.1 2.9.2 4.4.2 1.7.4 3.4.8 5.1.8 3.9 2.1 7.6 4.2 11.1 1.1 1.9 2.5 3.5 4.1 4.9 1.7 1.4 3.7 2.4 5.7 3.2 3.9 1.6 8 2.2 12.2 2.4 1.7.1 3.5.1 5.2-.1 1.2-.1 2.3-.2 3.5-.3 1.9-.1 3.7-.4 5.6-.8 3.9-.7 7.6-2 10.9-4.1 1.4-.9 2.7-1.9 3.6-3.2.4-.5.7-1 1-1.6.1.1.2.3.4.2 0-.5-.3-.9-.2-1.3-1.1-3.4-2.4-6.7-3.4-10.1 0-.1-.1-.3-.1-.4.8-.1 1.4-.4 2.1-.8.2 0 .4-.1.6-.2 0-.1-.1-.2-.1-.2 0 .1 0 .2.1.2.6-.1 1.1-.3 1.7-.4s1.1 0 1.7.3c.7.3 1.4.8 2 1.3.5-.3 1-.3 1.6-.2.9.2 1.9.4 2.9.5.8.1 1.6.1 2.4 0 .3 0 .6 0 .9-.1-.4-.8-.9-1.6-1.3-2.4-.6-1-.384-1.01.416-1.11z" data-color="2" data-darkreader-inline-fill="" style="--darkreader-inline-fill: #afa89d;"></path>
        <path fill="#D65D41" d="M65.1 114.2L57 91.4c-.2-.5-.3-1 .1-1.5.2-.2.3-.5.3-.8-.2-.3-.6-.4-.9-.6-.7-.5-1.5-.9-2.2-1.3-.2-.1-.4-.2-.5 0-.7.8-1.3 1.5-2 2.3.4.5.8.8 1.3 1.2.5.4 1 .8 1.6.8.1 1.3.3 2.5.6 3.7.6 3.2 1.1 6.4 1.3 9.6.2 2.2.3 4.4.5 6.5.1 1.5.3 3.1.4 4.6.1.9.4 1.5 1 2.1.3.3.7.6.9.9 1.5 0 2.9-.3 4.4-.5.1-.5.1-.5 0 0l1.5-.3c-.1-.5 0-.9.1-1.4.1-.9 0-1.7-.3-2.5zm-7-16s0 .1 0 0c0 .1 0 .1 0 0-.1.1-.1 0 0 0z" data-color="3" data-darkreader-inline-fill="" style="--darkreader-inline-fill: #d96a50;"></path>
        <path fill="#3C516E" d="M179.1 115.7c-.5-3.3-1.3-6.5-2.1-9.7-1.2-4.8-3-9.2-5.5-13.4-2.6-4.3-6-7.7-10.5-9.9-1.1-.5-2.2-1.1-3.4-1.4-.4-.1-.8-.2-1.2-.1-.2-.1-.3-.3-.5-.5-.8-.9-1.6-1.9-2.4-2.8-.3.1-.5.3-.7.6l-4.2 5.4c-1.3 1.6-2.6 3.3-3.8 5-.1.2-.3.3-.4.6-.2 0-.2-.2-.3-.3-.5-.9-1-1.9-1.6-2.8-.3-.5-.5-1-.9-1.3h-.3c-.4.3-.7.6-1 .9-.7.9-1.5 1.7-2.3 2.5-.1.1-.2.3-.4.3.3-.7.3-1.5.5-2.3l.3-1.5c.2-1 0-2-.2-3-.1-.5-.2-1-.2-1.5 0-.2 0-.4-.2-.5-.4.2-.8.4-1.3.6-.3.2-.6.3-.9.5.3-.2.6-.3.9-.5-1.4-.6-2.9-.8-4.5-.7-1.4.1-2.8.6-4.1 1.2-4.1 1.9-7.5 4.6-10.2 8.2-2.6 3.3-5.2 6.5-7.9 9.6-3.3 3.7-6.9 7-11.1 9.7-2 1.3-4.1 2.4-6.4 3.2-1 .4-2.1.6-3.2.9H89c-.8.2-.9.4-.5 1.1.4.8.9 1.6 1.3 2.4.3 0 .5.2.6.4.7 1 1.2 2.2 1.7 3.4.5 1.2.9 2.5 1.5 3.7.1.1.1.3.1.4.6 1.4 1.3 2.8 1.9 4.1.3.6.5.7 1.1.6 3.6-.5 7-1.6 10.1-3.4 5.1-2.9 9.4-6.7 12.7-11.6 0-.1 0-.1.1-.1.2-.5.5-.8.8-1.2-.1.6-.4 1.1-.7 1.5l-1.2 2.4c-1.5 3.1-3.1 6.1-4.4 9.3-.5 1.2-.9 2.4-1.4 3.6 2.2.2 4.2 1.1 6.4 1.3.7.1 1.4.1 2 .3 0-.2 0-.4-.2-.6-.1-.4 0-.7.1-1.1 1.2-4 2.3-8.1 3.6-12 1.3-3.9 3.1-7.6 5.1-11.3 1.7-3.2 3.6-6.4 5.2-9.7.9-1.9 1.7-4 2.4-6 0-.1 0-.2.1-.3.2-.2.5-.4.7-.6 1-1.1 2.1-2.1 3.1-3.3.2-.3.3-.3.5.1.5 1 1.1 1.9 1.6 2.9.1.3.3.5.4.8.1.2.3.4.2.7.1 0 .1.1.2.1-.1-.1-.1-.1-.2-.1-.3.1-.3.5-.6.6 0 .1-.1.1-.1.2 0 0 0 .1-.1.1-.1.3-.2.5-.4.7-.1.3-.2.5-.4.7-.3.7-.7 1.3-1 2-.8 1.5-1.5 3-2.2 4.6-.1.2-.2.5-.3.7-.3.9-.7 1.7-1 2.6-1 2.5-1.8 5.1-2.3 7.8-.4 2-.6 4-.6 6 0 .3 0 .6-.1.9.2.4 0 .9 0 1.3 0 .6-.1 1.2-.2 1.8-.1 1.1-.2 2.3-.3 3.4-.1 1.2-.2 2.4-.3 3.5 0 .2 0 .4.3.3h1.4c.9 0 1.7.3 2.5.3h.4c0 .8 0 1.7.1 2.5.2 1.3.3 2.7 1.1 3.8.3.3.5.7.8.8.2.1.4.3.6.1-.1-.2-.2-.3-.2-.4.2-.2.3-.1.5 0 1.5.4 3 .9 4.5 1.5 5.4 2.1 10.9 3.7 16.6 4.5 1.8.3 3.6.3 5.4-.1 4.6-1.1 7.9-3.8 9.9-8 1.1-2.4 1.6-4.9 1.7-7.5.2-3.3 0-6.4-.5-9.5zm-58.6 14.9zm24-41v.2c.1-.1 0-.2 0-.2z" data-color="7" data-darkreader-inline-fill="" style="--darkreader-inline-fill: #304158;"></path>
        <path fill="#91A0B7" d="M143.7 89.7c.1.2.3.4.2.7-.3.1-.3.5-.6.6.2-.4.5-.8.4-1.3z" data-color="2" data-darkreader-inline-fill="" style="--darkreader-inline-fill: #afa89d;"></path>
        <path fill="#91A0B7" d="M142.4 92.7v-.2c0-.4 0-.4.5-.5-.2.3-.4.5-.5.7z" data-color="2" data-darkreader-inline-fill="" style="--darkreader-inline-fill: #afa89d;"></path>
        <path fill="#91A0B7" d="M143.2 91.3s.1-.1 0 0c.1-.1.1 0 0 0z" data-color="2" data-darkreader-inline-fill="" style="--darkreader-inline-fill: #afa89d;"></path>
        <path fill="#A07C60" d="M84.559 127.326c-.1.3.052.645-.559.574.1-.3.459-.574.559-.574z" data-color="5" data-darkreader-inline-fill="" style="--darkreader-inline-fill: #a98970;"></path>
        <path fill="#D65D41" d="M58.1 98.2s0 .1 0 0c0 .1 0 .1 0 0-.1.1-.1 0 0 0z" data-color="3" data-darkreader-inline-fill="" style="--darkreader-inline-fill: #d96a50;"></path>
        <path fill="#D65D41" d="M140.3 93.3c-.1.7-.4 1.3-.8 2 0-.5.3-1.4.8-2z" data-color="3" data-darkreader-inline-fill="" style="--darkreader-inline-fill: #d96a50;"></path>
        <path opacity=".3" d="M62.9 79c.1.3.3.6.4.8.7 1.3 1.3 2.6 1.9 3.9.7 1.6 1.5 3.2 2.3 4.7.2.4.3.7.5 1.1.1.3.1.5-.2.7l-1.5.9c-.1.1-.2.2-.4.3-.2.2-.3.4-.1.7.5.5 1 1.1 1.5 1.7.2.3.4.6.7.8.5.7.7 1.4.6 2.3-.3 2.2-.4 4.4-.5 6.6-.1 3.3-.2 6.7.1 10 .1 1 .3 2 .4 3 0 .2.2.3.4.2l.9-.3c.9-.5 1.7-1.1 2.4-1.6.3-.2.5-.4.8-.5.2-.1.4-.1.5.2.2.4.3.9.5 1.3 0 .1.1.3.1.4 1.1 3.4 2.3 6.7 3.4 10.1-.1.5.2.9.2 1.3-.2.1-.3-.1-.4-.2-1.5-3.8-2.9-7.7-4.1-11.6-.1-.2-.1-.4-.3-.7-.2.1-.4.2-.6.4-2.7 2.1-5.7 3.2-9 3.7-1.3.2-2.5.4-3.8.5-1.8.1-3.6-.2-5.4-.5-2.7-.5-4.9-1.9-7.1-3.5-4-2.9-6.6-6.9-8-11.6-.1-.5-.2-.9-.3-1.4-.1-.3-.1-.6 0-.9 0-.1.1-.3.3-.3s.2.2.2.3c.3 2.3 1.3 4.4 2.4 6.5 1.5 2.9 3.8 5.2 6.4 7.1 1.6 1.2 3.3 2.2 5.3 2.7.6.2 1.2.3 1.9.4.1-.3 0-.4-.1-.5-1.9-3.1-3.6-6.4-5.1-9.8-1.5-3.3-2.9-6.5-4.6-9.7-.2-.4-.2-.9-.1-1.3.3-.9.4-1.9.6-2.9.1-.4 0-.5-.4-.6-.5 0-1-.1-1.4-.1-.3-.1-.5-.2-.7-.5-1.1-2.4-2.2-4.8-3.2-7.3-.6-1.6-1.1-3.1-1.7-4.7-.1-.3-.1-.6.1-.9.5-.6.9-1.1 1.3-1.7.1-.1.3-.2.3-.3.4-.6 1-.8 1.6-.9.4-.1.8-.2 1.2-.2.1.1.1.2.1.3-.1.6-.1 1.1-.2 1.7-.1.2.1.3.2.5.3.5.6.9.9 1.3 2.1 2.7 3.8 5.8 5.3 8.9.1.2.1.4.4.5.9-.9 1.9-1.8 2.7-2.8.4-.5.8-.9 1.1-1.5h.7l.1.1c1.9 1.1 3.8 2.2 5.6 3.4.2.1.4.3.7.4 0-.3-.1-.6-.1-.9-.3-2.7-.7-5.5-.7-8.2 0-.7-.1-1.5-.4-2.2-.1-.4.1-.7.1-1.1 0-.3.2-.3.4-.3.9.6 1.9 1.1 2.9 1.8zm-5.5 10.1c-.2-.3-.6-.4-.9-.6-.7-.5-1.5-.9-2.2-1.3-.2-.1-.4-.2-.5 0-.7.8-1.3 1.5-2 2.3-.6.4-1.1 1-1.7 1.4-.3.2-.3.4-.1.7 1 2 1.9 4.1 2.6 6.2 1.4 4.1 2.5 8.3 3.2 12.5.4 2.7.9 5.4 1.3 8 .1.3.2.5.5.5.6.1 1.2.1 1.9.1 1.5 0 2.9-.3 4.4-.5l1.5-.3c.2-.1.4-.1.6-.2.6-.2.6-.2.5-.9-.4-1.5-.7-2.9-1-4.4-.5-2.7-1-5.5-1.6-8.2-.5-2-1.1-4-1.6-6-.6-2.4-1.1-4.8-1.5-7.3 0-.2-.1-.4-.3-.5-.8-.3-1.6-.8-2.3-1.3-.4 0-.5-.2-.8-.2z"></path>
        <path opacity=".2" d="M54.6 91.4c-.7 0-1.2-.3-1.6-.8-.4-.4-.9-.8-1.3-1.2.7-.8 1.4-1.5 2-2.3.2-.2.4-.1.5 0 .7.4 1.5.9 2.2 1.3.3.2.6.3.9.6 0 .3-.2.6-.3.8-.3.5-.3 1-.1 1.5l8.1 22.8c.3.8.4 1.6.3 2.5-.1.5-.1.9-.1 1.4-.5.2-1 .3-1.5.3.1-.7.3-1.3.4-2 .1-.4 0-.9-.2-1.3-1-2.8-1.9-5.5-2.9-8.3-.8-2.3-1.6-4.5-2.4-6.8-.1-.4-.3-.8-.5-1.3-.1.1-.1.2-.1.2.2.9.3 1.8.5 2.6.2 1.2.4 2.3.7 3.5.1.3.2.6-.2.8-.2.1-.4-.2-.5-.7-.4-1.5-.8-2.9-1-4.4-.1-.6-.4-1.2-.5-1.9-.1-.5-.2-1.1-.3-1.6-.3.2-.4.3-.5-.1-.3-.7-.5-1.5-.6-2.2-.2-1.1-.4-2.2-.5-3.3.1-.3 0-.3-.5-.1zm3.5 6.8s-.1.1 0 0c0 .1 0 .1 0 0 0 .1 0 0 0 0z"></path>
        <path opacity=".2" d="M43.1 76.3c.2-.3.1-.6.3-.9.2 0 .3.2.5.3.5.4 1.1.6 1.7.2.1 0 .2-.1.3-.1.6-.1.6-.1.8.3.5.9.9 1.8 1.7 2.6.5.6 1.1 1 1.8 1.4 1.5.8 3 1.3 4.8 1.2h.9c-.5 1.6-1.2 3.1-1.9 4.7h-.7c-.1 0-.2-.1-.3-.1-1.1-.7-2.1-1.3-3.1-2.1-2.2-1.8-4.7-3.1-7-4.6 0 0-.1 0-.2-.1.1-.6.1-1.2.2-1.7 0-.1 0-.2-.1-.3.4-.1.3-.5.3-.8z"></path>
        <path opacity=".2" d="M152.1 76.8c-.7.7-1.5 1.4-2.2 2.1-1 1.1-2.2 1.8-3.4 2.6-1.5 1.1-3 2.1-4.5 3.2-.1.1-.1.1-.2.1h-.3c-.8-1.6-1.5-3.3-2.4-4.8 0-.1 0-.2-.1-.3l-.1-.1c0-.1 0-.2-.1-.3 1.1.2 2.1.4 3.2.5 1.1.1 2.2 0 3.2-.4 1.6-.7 2.9-1.8 4-3.1.5-.6 1-1.3 1.5-2 .1-.1.2-.2.3-.4.1-.2.3-.2.5 0 .1.2.3.2.6.2-.1 1-.2 1.9 0 2.7z"></path>
        <path fill="#352C2C" d="M57.9 66.9c-.3-.7-.6-1.4-.9-2-.1-.3-.3-.4-.6-.4-1.8.3-3.5 1-5.2 1.7-.4.2-.8.5-1.1.9-.2.3-.4.4-.7.6-.4.4-.6.8-.4 1.3 0 .1 0 .2.1.3.1.5.1.5-.4.7-.8.3-1.1.7-1 1.5.1.7.1 1.4.3 2 .1.2.1.5-.2.6-.7.2-.8.3-1-.2-.1-.2-.3-.4-.5-.6-.8-.5-1.5-.9-2.4-1.1-.3 0-.5 0-.6.2-.8.8-.7 1.3-.1 2.3.1.1.2.2.2.4-.1.3-.1.6-.3.9-.9-1.9-1.9-3.7-3-5.5-.7-1.1-.8-2.3-.3-3.5.8-2.1 1.8-4.2 3.6-5.7 1-.9 2.2-1.6 3.6-1.8 1.7-.3 3.3-.5 5-.6.6-.1 1.3 0 1.9.1.5 0 1 .2 1.4.6.2.1.3.2.5.4.8.6 1.4 1.3 1.5 2.3.2 1 .4 2 .6 3.1.1.6.3 1.1 0 1.5z" data-color="6" data-darkreader-inline-fill="" style="--darkreader-inline-fill: #c9c5be;"></path>
        <path opacity=".2" d="M138.8 99.9c-.1-.1-.1-.1-.2 0-.4.9-1.1 1.8-1.4 2.8-.1.3-.3.5-.4.7-.1.1-.2.2-.3.2-.2-.1-.2-.2-.1-.4.1-.3.1-.5.2-.8.4-1.1.9-2.2 1.3-3.2s.8-2.1 1.3-3.1c.1-.2.2-.5-.2-.6-.2 0-.2-.2-.2-.3 0-.1 0-.3.1-.4.3-.9.5-1.7.8-2.6.1-.4.2-.4-.3-.5-.2 0-.4-.2-.7-.1-.4-.5-.5-1-.5-1.6v-1c1-1.1 2.1-2.1 3.1-3.3.2-.3.3-.3.5.1.5 1 1.1 1.9 1.6 2.9.1.3.3.5.4.8 0 .5-.2.9-.4 1.3 0 .1-.1.1-.1.2 0 0 0 .1-.1.1-.1.3-.2.5-.4.7-.5 0-.5 0-.5.5v.2c-.3.7-.7 1.3-1 2-.8 1.5-1.5 3-2.2 4.6 0 .4-.1.6-.3.8zm1.5-6.6c-.5.6-.8 1.4-.8 2 .4-.7.7-1.3.8-2z"></path>
        <path opacity=".2" d="M130.1 126c0-.4.2-.8.3-1.2.8-1.6 1.7-3.2 2.6-4.8.5-.9 1-1.8 1.5-2.6.1-.1.1-.2.2-.2.2.4 0 .9 0 1.3 0 .6-.1 1.2-.2 1.8-.5.8-.9 1.7-1.4 2.5-.7 1.1-1.3 2.2-1.9 3.3v.1c-.1.2-.3.5-.6.5-.4 0-.4-.4-.5-.7z"></path>
        <g opacity=".4">
            <path d="M141.805 110.995c.8-1.5 1.7-3 2.6-4.4 1.6-2.4 3.3-4.8 5-7.2 1.4-1.9 3-3.6 4.6-5.4.5-.5.7-1 .3-1.7-.5-.9-.7-1.8-.8-2.8.2-.1.4 0 .6 0 .6.1 1.3.2 1.9.3.6.1.7 0 .8-.6v-1c.2-1 .2-2 .3-3 .1-.7.1-1.4.2-2 .1-.5.1-1-.4-1.4-.2-.2-.3-.4-.5-.6-.2-.1-.3-.3-.5-.5-.8-.9-1.6-1.9-2.4-2.8-.3.1-.5.3-.7.6l-4.2 5.4c-1.3 1.6-2.6 3.3-3.8 5-.1.2-.3.3-.4.6-.2 0-.2-.2-.3-.3-.5-.9-1-1.9-1.6-2.8-.3-.5-.5-1-.9-1.3h-.3c-.4.3-.7.6-1 .9-.7.9-1.5 1.7-2.3 2.5-.1.1-.2.3-.4.3.3-.7.3-1.5.5-2.3l.3-1.5c.2-1 0-2-.2-3-.1-.5-.2-1-.2-1.5 0-.2 0-.4-.2-.5-.4.2-.8.4-1.3.6s-.9.5-1.4.7c-1.2.6-2.4 1.2-3.6 1.7-.3.1-.6.3-.9.5-.2.1-.4.4-.3.6.3.8.5 1.7 1 2.4.3.6.7 1.1 1.1 1.7.1.2.3.4.2.6-.2.5-.4.9-.9 1.3-1.5 1.1-3.1 2.2-4.5 3.3-.2.2-.4.4-.4.7-.1.7-.2 1.5-.3 2.2-.1.9-.2 1.7-.3 2.6-.1 1-.3 2-.5 3-.2 1.2-.4 2.3-.6 3.5-.4 2-.9 4-1.4 5.9s-1 3.9-1.4 5.8c-.3 1.3-.6 2.6-.8 3.9-.2 1.2-.3 2.3-.5 3.4-.3 1.8-.5 3.5-.8 5.3v.4c0 .1.1.2.2.3.1 0 .2 0 .3-.1.1-.1.1-.3.3-.3-.1-.4 0-.7.1-1.1 1.2-4 2.3-8.1 3.6-12 1.3-3.9 3.1-7.6 5.1-11.3 1.7-3.2 3.6-6.4 5.2-9.7.9-1.9 1.7-4 2.4-6 0-.1 0-.2.1-.3.2-.2.5-.4.7-.6 1-1.1 2.1-2.1 3.1-3.3.2-.3.3-.3.5.1.5 1 1.1 1.9 1.6 2.9.1.3.3.5.4.8.1.2.3.4.2.7.1 0 .1.1.2.1-.1-.1-.1-.1-.2-.1-.3.1-.3.5-.6.6 0 .1-.1.1-.1.2 0 0 0 .1-.1.1-.1.3-.2.5-.4.7-.1.3-.2.5-.4.7-.3.7-.7 1.3-1 2-.8 1.5-1.5 3-2.2 4.6-.1.2-.2.5-.3.7-.3.9-.7 1.7-1 2.6-1 2.5-1.8 5.1-2.3 7.8-.4 2-.6 4-.6 6 0 .3 0 .6-.1.9.2.4 0 .9 0 1.3 0 .6-.1 1.2-.2 1.8-.1 1.1-.2 2.3-.3 3.4-.1 1.2-.2 2.4-.3 3.5 0 .2 0 .4.3.3h1.4c0-.2.1-.3.1-.5.3-2.1.8-4.1 1.5-6.1.7-2.3 1.7-4.4 2.7-6.6.5-1 1.1-2.1 1.7-3.2zm2.8-21.5v.2c.1-.1 0-.2 0-.2z"></path>
            <path d="M164.505 122.395c-.2-.2-.5-.3-.7-.4-1.2-.5-2.4-.7-3.7-.8-.3 0-.5-.2-.7-.4-1-1.8-2.1-3.5-3.5-5.1-.1-.1-.2-.2-.4-.3-.1-.1-.2-.1-.3 0s-.1.2 0 .3c.3.4.5.8.8 1.2 1 1.3 1.8 2.7 2.6 4.1 0 .1.1.2 0 .2-2.3 0-4.7.3-7 .6-2.4.3-4.8.7-7.1 1.4-1.7.5-3.4 1.1-5.1 2-.4.2-.7.6-.7 1.1s-.1 1.1-.1 1.6c0 .8 0 1.7.1 2.5.2 1.3.3 2.7 1.1 3.8.3.3.5.7.8.8.2.1.4.3.6.1-.1-.2-.2-.3-.2-.4-.2-.3-.3-.6-.5-.8-.4-.5-.6-1-.8-1.6-.5-1.8-.5-3.5-.5-5.3 0-.7.2-1 .8-1.3 2.4-1.2 4.9-1.9 7.5-2.5 1.5-.3 3-.5 4.4-.7 1.3-.2 2.6-.4 4-.5s2.7-.2 4.1 0c.5 0 1.1.1 1.6.2.8.2 1.7.4 2.5.7.1 0 .3.1.4 0 .3-.3.1-.4 0-.5z"></path>
        </g>
        <path opacity=".3" d="M76.7 114.7c-.2.2-.4.2-.6.2-.8-3.5-1.5-7-2.3-10.5-.1-.4-.1-.7-.2-1.1 0-.2 0-.3.1-.5s.3-.2.4 0c.1.1.1.2.1.4.7 3.4 1.5 6.8 2.2 10.2.2.4.2.9.3 1.3z"></path>
    </g>
</svg>